<svg xmlns="http://www.w3.org/2000/svg" width="2236.6" height="820.7" viewBox="0 0 2236.6 820.7"><g opacity=".8" fill="#F0CD9C"><path d="M1847.2 678.2v20.6c-.4.2-.7.4-1.1.7-7.9 5.9-15.8 11.7-23.7 17.6-1.6 1.2-3.2 1.8-5.2 1.8h-205.1V378.1H1844V675c.1 3.2.1 3.2 3.2 3.2z"/><path d="M1847.2 678.2c-3.1-.1-3.1-.1-3.1-3.3v-294-2.9h3.2c-.1 100.1-.1 200.2-.1 300.2zM1612.2 718.9h205.1c2 0 3.6-.5 5.2-1.8 7.8-5.9 15.8-11.8 23.7-17.6.3-.3.7-.4 1.1-.7v20.3h-233.6c-.6.1-1-.1-1.5-.2z"/></g><path fill="none" d="M1611.9 377.8h235v340.9h-235z"/><path fill="#D7E3CF" d="M1851.5 662.7V378.1h231.9v249c0 2.5 0 2.6 2.5 2.5 1.6 0 1.9.7 1.9 2.1v40c0 2.4 0 2.4-2.4 2.4h-104c-1.1 0-2.3-.2-3.1-.8-4.2-2.9-8.2-5.9-12.3-9-1.5-1.1-2.9-1.6-4.8-1.6h-109.7z" opacity=".8"/><path fill="none" d="M1851.2 377.8h236.5v296.1h-236.5z"/><path fill="#F0CD9C" d="M1265.1 52.6V28.5c4-3.2 8.1-6.3 12.1-9.5 5-4 10-8 14.9-12.1h256.7v277.9H1268V70.6c0-1.5-.1-3-.3-4.4-.9-4.6-1.8-9.1-2.6-13.6z" opacity=".8"/><path fill="none" d="M1264.8 6.6h283.7v277.9h-283.7z"/><path fill="#ECCDCC" d="M1127.8 653.8v-24.5c1.2-3.4 2.4-6.8 3.7-10.2 1.4-3.5 1.8-7 1.8-10.7V239.1 67.6h127.8V290.4c-.1 1.2.5 1.6 1.6 1.6H1363.1c2.5 0 2.5 0 2.5 2.5V611.2c0 1.6-.4 3.3-1.1 4.7-1.9 4.1-4.2 8.1-6.1 12.2-.6 1.2-.9 2.6-.9 3.9-.1 13 0 26 0 38.9 0 3.1 0 3.1-3.1 3.1h-198c-.4 0-.9.1-1.3 0-.9-.3-2-.4-2.7-1-2.3-1.7-4.5-3.6-6.7-5.3-6.1-4.5-12-9.2-17.9-13.9z" opacity=".8"/><path fill="none" d="M1127.5 67.4h237.7v606.4h-237.7z"/><path fill="#D7E3CF" d="M1372.9 662.7V378.1h231.9v296.3c0 4.4-.4 3.8 3.8 3.9V719h-90.2c-.9 0-2.1-.2-2.8-.8-8.3-6.1-16.5-12.2-24.8-18.3-1-.7-1.4-1.6-1.4-2.8v-16.8c0-1.1-.2-2.3-.5-3.4-1-3.7-2.1-7.4-3.1-11.2-.8-2.8-.8-2.8-3.7-2.8-36.4-.2-72.8-.2-109.2-.2z" opacity=".8"/><path fill="none" d="M1372.5 377.8h235.7v340.9h-235.7z"/><path fill="#BFD5FF" d="M1787.9 284.9V6.9h256.7l.4.4c8.4 6.7 16.8 13.5 25.3 20.2 1 .8 1.3 1.6 1.3 2.8 0 6.2-.1 12.5 0 18.7 0 1.9.3 3.8.8 5.6.9 3.5 1.9 7 2.9 10.6.7 2.6.7 2.6 3.4 2.6h121.2c3.2 0 3.2 0 3.2 3.2v140.1c0 2.5 0 2.5 2.5 2.5h24.5c2.2 0 2.3.1 2.3 2.2v44.5c0 2.1-.1 2.3-2.2 2.3h-24.6c-2.3 0-2.4.1-2.4 2.3v170.8c0 2.2.1 2.3 2.4 2.3h24.5c2.3 0 2.4.1 2.4 2.4v44.2c0 2.3-.1 2.4-2.3 2.4h-24.3c-2.6 0-2.6 0-2.6 2.7V627c0 2.7 0 2.7 2.6 2.7h7c1.4 0 1.9.5 1.9 1.9 0 6.5 0 13-.1 19.5 0 .8-.5 1.8-1.1 2.2-8 6.5-16 12.8-24 19.3-1.4 1.1-2.8 1.6-4.6 1.6-12.9-.1-25.8 0-38.8 0h-52.6c-1.4 0-2.2-.2-2.3-2-.3-20.2.8-40.5-.6-60.7V452.3c0-26.6 0-53.2.1-79.7 0-1-.3-1.5-1.4-1.5H1972.4c-.9 0-1.4-.4-1.4-1.4V368v-80.4c0-2.6 0-2.6-2.6-2.6h-45.6c-45-.1-89.9-.1-134.9-.1z" opacity=".8"/><g opacity=".8" fill="#F0CD9C"><path d="M390.1 678.2v20.6c.4.2.7.4 1.1.7 7.9 5.9 15.8 11.7 23.7 17.6 1.6 1.2 3.2 1.8 5.2 1.8h205.1V378.1H393.3V675c-.1 3.2-.1 3.2-3.2 3.2z"/><path d="M390.1 678.2c3.1-.1 3.1-.1 3.1-3.3v-294-2.9H390c.1 100.1.1 200.2.1 300.2zM625.1 718.9H420c-2 0-3.6-.5-5.2-1.8-7.8-5.9-15.8-11.8-23.7-17.6-.3-.3-.7-.4-1.1-.7v20.3h233.6c.6.1 1-.1 1.5-.2z"/></g><path fill="#D7E3CF" d="M385.8 662.7V378.1H153.9v249c0 2.5 0 2.6-2.5 2.5-1.6 0-1.9.7-1.9 2.1v40c0 2.4 0 2.4 2.4 2.4h104c1 0 2.3-.2 3.1-.8 4.2-2.9 8.2-5.9 12.3-9 1.5-1.1 2.9-1.6 4.8-1.6h109.7z" opacity=".8"/><path fill="#F0CD9C" d="M972.2 52.6V28.5c-4-3.2-8.1-6.3-12.1-9.5-5-4-10-8-14.9-12.1H688.5v277.9h280.8V70.6c0-1.5.1-3 .3-4.4.9-4.6 1.7-9.1 2.6-13.6z" opacity=".8"/><path fill="#ECCDCC" d="M1109.5 653.8v-24.5c-1.2-3.4-2.4-6.8-3.7-10.2-1.4-3.5-1.8-7-1.8-10.7V239.1 67.6H976.2V290.4c.1 1.2-.5 1.6-1.6 1.6H874.2c-2.5 0-2.5 0-2.5 2.5V611.2c0 1.6.4 3.3 1.1 4.7 1.9 4.1 4.2 8.1 6.1 12.2.6 1.2.9 2.6.9 3.9.1 13 0 26 0 38.9 0 3.1 0 3.1 3.1 3.1h198c.4 0 .9.1 1.3 0 .9-.3 2-.4 2.7-1 2.3-1.7 4.5-3.6 6.7-5.3 6.1-4.5 12-9.2 17.9-13.9z" opacity=".8"/><path fill="#D7E3CF" d="M864.4 662.7V378.1H632.5v296.3c0 4.4.4 3.8-3.8 3.9V719h90.2c.9 0 2.1-.2 2.8-.8 8.3-6.1 16.5-12.2 24.8-18.3 1-.7 1.4-1.6 1.4-2.8v-16.8c0-1.1.2-2.3.5-3.4 1-3.7 2.1-7.4 3.1-11.2.8-2.8.8-2.8 3.7-2.8 36.4-.2 72.8-.2 109.2-.2z" opacity=".8"/><path fill="#BFD5FF" d="M449.4 284.9V6.9H192.7l-.4.4c-8.4 6.7-16.8 13.5-25.3 20.2-1 .8-1.3 1.6-1.3 2.8 0 6.2.1 12.5 0 18.7 0 1.9-.3 3.8-.8 5.6-.9 3.5-1.9 7-2.9 10.6-.7 2.6-.7 2.6-3.4 2.6H37.4c-3.2 0-3.2 0-3.2 3.2v140.1c0 2.5 0 2.5-2.5 2.5H7.2c-2.2 0-2.3.1-2.3 2.2v44.5c0 2.1.1 2.3 2.2 2.3h24.6c2.3 0 2.4.1 2.4 2.3v170.8c0 2.2-.1 2.3-2.4 2.3H7.2c-2.3 0-2.4.1-2.4 2.4v44.2c0 2.3.1 2.4 2.3 2.4h24.3c2.6 0 2.6 0 2.6 2.7V627c0 2.7 0 2.7-2.6 2.7h-7c-1.4 0-1.9.5-1.9 1.9 0 6.5 0 13 .1 19.5 0 .8.5 1.8 1.1 2.2 8 6.5 16 12.8 24 19.3 1.4 1.1 2.8 1.6 4.6 1.6 12.9-.1 25.8 0 38.8 0h52.6c1.4 0 2.2-.2 2.3-2 .3-20.2-.8-40.5.6-60.7V452.3c0-26.6 0-53.2-.1-79.7 0-1 .3-1.5 1.4-1.5H264.9c.9 0 1.4-.4 1.4-1.4V368v-80.4c0-2.6 0-2.6 2.6-2.6h45.6c45-.1 89.9-.1 134.9-.1z" opacity=".8"/></svg>