<?xml version="1.0" encoding="utf-8"?>
<!-- Generator: Adobe Illustrator 19.0.1, SVG Export Plug-In . SVG Version: 6.00 Build 0)  -->
<svg version="1.1" xmlns="http://www.w3.org/2000/svg" xmlns:xlink="http://www.w3.org/1999/xlink" x="0px" y="0px"
	 width="1198.13px" height="798.64px" viewBox="0 0 1198.13 798.64" enable-background="new 0 0 1198.13 798.64"
	 xml:space="preserve">
<g id="Layer_1">
	
		<image overflow="visible" width="3500" height="2333" xlink:href="Dropbox/cinema_overlay/1456-4-wtl0002_exterior_cam_02.jpg"  transform="matrix(0.3423 0 0 0.3423 0 0)">
	</image>
</g>
<g id="Layer_2">
	<polygon opacity="0.79" fill="#FFFFFF" points="846.963,668.554 861.672,667.637 896.401,676.179 896.307,679.033 934.802,688.043 
		947.466,687.715 968.965,693.051 968.797,695.052 973.464,696.386 973.297,672.887 966.13,671.72 963.797,668.054 948.463,664.054 
		933.963,663.887 893.797,652.387 893.297,647.554 860.463,637.554 846.13,638.054 804.13,625.554 743.963,629.054 741.463,628.387 
		723.463,629.554 723.63,630.887 676.297,633.554 673.963,632.887 657.63,633.72 657.13,635.554 616.547,638.304 616.713,668.97 
		654.047,666.97 654.463,666.554 674.88,665.47 677.963,666.054 720.13,663.95 720.88,663.054 743.13,661.97 746.13,662.387 
		804.713,659.387 	"/>
	<polygon opacity="0.79" fill="#FFFFFF" points="846.255,638.137 860.422,637.554 893.338,647.595 893.797,652.387 934.005,663.929 
		948.463,664.095 963.922,668.054 966.047,671.72 973.213,672.887 972.713,648.887 965.047,646.054 962.213,642.22 947.963,637.554 
		933.297,637.012 893.213,621.595 893.088,615.47 859.63,602.095 845.672,602.887 803.88,586.845 744.005,591.845 741.38,590.72 
		723.755,592.095 723.38,593.095 676.255,596.345 674.005,595.595 657.63,596.345 657.13,597.554 616.38,600.845 616.88,638.095 
		656.88,635.72 657.63,633.72 674.005,632.97 676.547,633.637 723.505,630.929 723.588,629.595 741.547,628.387 744.213,629.137 
		803.963,625.47 	"/>
	<polygon opacity="0.79" fill="#FFFFFF" points="845.755,602.929 859.588,602.095 893.13,615.47 893.213,621.554 933.505,637.095 
		948.172,637.595 962.297,642.22 965.13,646.054 972.672,648.804 972.505,620.512 963.63,617.637 963.463,615.387 947.713,609.387 
		933.047,609.97 892.922,591.012 892.463,583.345 859.172,567.47 845.297,567.845 803.547,547.72 744.088,554.429 741.38,552.72 
		723.172,554.47 723.088,555.345 676.713,559.345 674.005,558.554 657.172,560.512 657.088,561.345 616.338,566.012 
		616.463,600.845 656.88,597.72 657.797,596.304 674.172,595.595 676.338,596.387 723.255,593.095 723.838,592.137 741.38,590.72 
		744.088,591.845 803.963,586.804 	"/>
	<polygon opacity="0.79" fill="#FFFFFF" points="845.317,567.845 859.317,567.47 892.317,583.283 893.005,591.095 933.192,610.033 
		947.817,609.408 963.38,615.408 963.63,617.658 972.63,620.595 972.067,600.095 963.817,596.345 963.755,591.47 944.505,582.095 
		932.442,582.408 892.13,559.033 892.13,550.283 858.599,531.095 844.708,532.283 802.919,508.345 743.556,515.908 740.749,514.158 
		723.19,516.158 722.816,517.283 676.442,523.783 673.442,523.22 657.255,525.345 657.099,526.595 616.255,531.845 616.13,566.095 
		656.849,561.283 657.021,560.595 673.919,558.658 676.868,559.408 723.249,555.22 723.377,554.595 741.503,552.72 743.942,554.47 
		803.317,547.72 	"/>
	<polygon opacity="0.79" fill="#FFFFFF" points="844.692,532.345 858.692,531.095 892.005,550.158 892.255,559.095 932.63,582.533 
		944.567,582.095 963.755,591.595 963.911,596.533 972.13,600.158 971.567,578.408 964.047,572.679 963.88,565.408 943.505,554.658 
		932.005,555.158 891.692,529.345 891.567,519.095 858.317,496.408 844.13,497.595 802.505,469.095 743.63,478.095 740.749,476.738 
		722.755,479.345 722.63,481.033 675.755,487.97 673.317,487.22 657.067,489.658 657.13,491.033 616.38,497.095 616.192,531.845 
		657.005,526.658 657.255,525.345 673.567,523.22 676.505,523.845 723.005,517.158 723.38,516.22 741.005,514.22 743.567,515.845 
		802.817,508.158 	"/>
	<polygon opacity="0.79" fill="#FFFFFF" points="844.38,497.72 858.38,496.47 891.63,519.137 891.713,529.554 932.13,555.304 
		943.63,554.72 963.963,565.47 964.213,572.72 971.63,578.47 970.963,556.637 962.963,549.304 962.797,541.22 942.88,527.804 
		931.963,528.72 891.463,499.304 891.13,487.137 858.047,461.887 843.88,463.387 802.505,432.929 742.88,441.304 740.047,439.72 
		722.755,442.527 722.63,444.107 675.963,452.054 673.213,451.554 656.963,454.22 656.797,455.804 616.463,463.137 616.547,497.137 
		657.13,490.804 657.13,489.72 673.213,487.22 675.963,487.97 722.547,481.054 722.88,479.387 740.63,476.804 743.797,478.054 
		802.819,469.508 	"/>
	<polygon opacity="0.79" fill="#FFFFFF" points="843.88,463.429 858.088,461.929 891.172,487.137 891.422,499.304 931.672,528.637 
		942.88,527.887 962.797,541.345 963.047,549.262 971.005,556.762 970.63,532.345 963.13,527.22 962.922,517.47 942.38,500.179 
		931.088,500.72 890.88,468.554 890.63,455.012 857.505,427.012 843.297,428.929 801.473,394.429 742.547,406.137 739.797,405.179 
		722.297,408.137 722.255,410.22 675.88,418.345 673.13,417.97 657.047,421.137 656.567,422.804 616.213,430.72 616.13,463.137 
		656.526,455.762 656.995,454.22 673.083,451.595 676.107,452.054 722.702,444.179 722.832,442.595 739.919,439.762 742.92,441.262 
		802.296,432.929 	"/>
	<polygon opacity="0.79" fill="#FFFFFF" points="843.38,429.033 857.567,427.095 890.63,455.033 890.942,468.533 931.067,500.783 
		942.505,500.283 963.067,517.408 963.192,527.095 970.692,532.533 970.338,509.97 962.547,502.929 962.422,491.72 942.047,473.429 
		930.547,473.72 890.255,437.804 890.088,423.595 856.838,391.97 843.13,394.304 801.255,357.304 741.922,369.47 739.505,368.179 
		721.88,371.97 722.005,373.762 675.672,383.72 672.88,382.679 656.797,386.22 656.713,388.554 616.38,397.137 616.255,430.595 
		656.692,422.908 657.13,421.158 673.255,418.095 675.755,418.408 722.13,410.158 722.13,408.47 739.88,405.158 742.755,406.22 
		802.28,394.975 	"/>
	<polygon opacity="0.79" fill="#FFFFFF" points="843.005,394.158 856.817,392.095 890.13,423.595 889.942,437.641 930.692,473.783 
		942.13,473.595 962.067,491.397 962.317,502.845 970.317,509.783 970.005,486.908 961.692,478.533 961.755,466.908 941.63,446.72 
		930.255,447.47 889.755,406.97 889.692,392.033 855.838,357.432 842.13,359.999 800.88,319.47 742.067,332.908 739.255,331.595 
		721.442,335.72 721.567,337.158 675.255,348.345 672.88,347.345 656.317,351.158 656.505,352.908 616.005,362.283 616.317,397.095 
		656.755,388.595 656.63,386.283 672.88,382.658 675.692,383.72 721.88,373.783 721.817,371.845 739.567,368.158 742.192,369.47 
		801.192,357.345 	"/>
	<polygon opacity="0.79" fill="#FFFFFF" points="843.005,360.418 856.547,357.804 889.797,392.637 889.942,408.129 930.692,447.783 
		942.13,447.578 961.88,467.554 961.713,478.387 970.317,487.283 970.005,464.184 961.692,454.995 961.755,442.24 941.63,420.09 
		930.255,420.913 889.755,376.476 889.692,360.087 855.838,322.123 842.13,324.939 800.88,280.47 742.067,295.214 739.255,293.774 
		721.442,298.3 721.567,299.877 675.255,312.152 672.88,311.055 656.317,315.238 656.505,317.158 616.005,327.445 616.13,362.554 
		656.797,352.97 656.63,351.778 672.88,347.8 675.63,348.304 721.88,337.063 721.817,335.937 739.567,331.891 742.192,333.331 
		801.192,320.027 	"/>
	<polygon opacity="0.79" fill="#FFFFFF" points="843.005,325.278 856.547,322.407 889.797,360.665 889.942,377.68 930.692,421.233 
		942.13,421.007 961.88,442.947 961.713,454.846 969.505,463.345 969.005,439.72 961.692,430.154 961.255,416.845 941.505,392.595 
		929.88,393.97 889.755,348.915 889.692,330.914 855.838,289.218 842.13,292.311 800.88,243.47 742.067,259.664 739.255,258.082 
		721.442,263.053 721.567,264.785 675.255,278.267 672.88,277.062 656.317,281.656 656.505,283.765 616.005,295.063 616.13,327.624 
		656.797,317.098 656.63,315.788 672.88,311.42 675.63,311.973 721.88,299.626 721.817,298.39 739.567,293.946 742.192,295.528 
		801.192,280.916 	"/>
	<polygon opacity="0.79" fill="#FFFFFF" points="842.505,292.22 855.38,289.845 889.005,330.095 889.255,348.22 929.63,394.095 
		941.38,392.97 961.13,416.844 961.13,429.72 969.38,439.47 968.755,416.72 960.63,406.595 960.271,390.011 940.513,364.153 
		928.884,365.619 888.757,317.576 888.693,297.381 854.839,252.919 841.13,256.217 799.63,206.47 741.38,223.22 738.38,221.22 
		720.442,226.019 720.567,227.866 674.255,241.242 671.88,239.957 655.755,244.845 656.005,246.595 616.255,258.095 616.13,294.845 
		656.005,283.47 656.255,281.845 672.505,277.22 675.255,278.22 721.38,264.97 721.88,262.72 738.567,257.961 741.192,259.647 
		800.192,244.067 	"/>
	<polygon opacity="0.79" fill="#FFFFFF" points="841.13,256.345 854.755,253.47 888.505,297.72 888.755,317.47 928.88,365.72 
		940.63,364.22 960.38,390.345 960.63,406.47 968.88,416.595 968.255,393.345 960.505,383.72 960.13,366.345 940.755,339.97 
		928.88,341.845 888.13,288.47 887.88,266.72 855.13,221.345 840.755,225.095 799.38,168.97 741.38,187.347 738.38,185.212 
		720.442,190.333 720.567,192.304 674.255,206.58 671.88,205.208 655.755,210.426 656.005,212.293 616.255,224.567 616.005,258.345 
		656.13,246.845 656.38,244.345 672.505,239.97 674.88,241.095 720.88,227.595 721.255,225.845 738.567,221.423 741.192,223.223 
		799.88,206.595 	"/>
	<polygon opacity="0.79" fill="#FFFFFF" points="840.63,225.095 855.005,221.47 888.13,268.095 888.13,287.97 929.005,341.611 
		940.63,339.99 960.13,366.345 960.13,383.845 968.567,394.095 968.228,371.468 960.491,361.065 960.123,342.287 940.752,313.782 
		928.878,315.808 888.129,258.122 887.88,234.615 855.13,185.576 840.755,189.629 799.88,129.845 741.255,149.47 738.442,146.524 
		719.13,153.47 719.13,156.47 674.942,170.595 672.411,169.22 654.646,175.095 654.763,178.97 616.259,192.22 616.007,225.564 
		656.131,213.135 656.38,210.433 672.505,205.705 674.88,206.921 720.88,192.33 721.255,190.439 738.567,185.659 741.192,187.605 
		799.88,169.634 	"/>
	<polygon opacity="0.79" fill="#F8FF7F" points="842.463,184.054 855.63,180.22 888.963,229.554 888.797,253.887 928.63,309.554 
		939.963,307.72 959.13,335.887 959.297,355.72 967.63,364.22 967.228,345.193 959.491,333.899 959.463,316.054 939.297,286.054 
		927.63,287.387 886.963,224.554 886.88,208.602 854.13,155.356 839.755,159.757 798.88,94.845 740.255,116.154 737.713,114.054 
		720.297,120.304 719.963,123.22 674.713,139.387 671.755,137.72 655.13,144.137 655.13,147.637 616.213,161.637 616.151,188.22 
		653.13,175.22 653.13,171.554 672.713,165.22 676.005,167.387 716.63,153.387 717.13,149.554 738.963,142.387 741.63,144.887 
		799.797,125.387 	"/>
	<polygon opacity="0.79" fill="#F8FF7F" points="839.755,159.908 854.13,155.345 887.067,208.908 887.005,224.658 927.692,287.283 
		939.317,286.095 958.692,314.908 958.567,333.658 967.067,344.845 966.567,325.658 958.88,311.845 958.463,287.034 
		938.297,256.087 926.63,257.463 885.963,192.647 885.88,176.192 853.13,121.265 838.755,125.805 797.88,58.845 739.255,80.826 
		736.713,78.66 719.297,85.107 718.963,88.116 673.713,104.793 670.755,103.073 654.13,109.692 654.13,113.303 615.88,127.783 
		616.255,161.658 655.067,147.533 655.255,144.033 671.88,137.658 674.692,139.533 719.88,123.158 720.38,120.47 737.63,114.158 
		740.317,116.283 798.817,94.908 	"/>
	<polygon opacity="0.79" fill="#9FCFFF" points="616.63,709.72 616.505,744.095 805.005,743.095 847.255,744.47 967.88,747.47 
		967.755,724.22 894.755,714.345 894.505,713.095 861.755,709.345 847.38,709.22 805.38,704.345 	"/>
	<polygon opacity="0.79" fill="#9FCFFF" points="616.63,674.887 616.797,709.554 805.005,704.294 847.255,709.711 967.63,724.22 
		968.13,698.554 894.755,681.655 894.505,680.366 862.297,672.72 847.38,673.371 805.38,664.345 	"/>
	<polygon opacity="0.79" fill="#9FCFFF" points="616.63,744.72 616.505,779.095 805.005,782.095 847.38,779.47 967.63,772.97 
		968.13,747.47 894.192,745.845 861.911,744.845 847.396,744.22 805.388,743.345 	"/>
	<polygon opacity="0.79" fill="#FFFFFF" points="184.255,692.095 283.88,687.22 585.13,709.887 585.13,692.22 284.463,660.22 
		184.463,667.22 	"/>
	<polygon opacity="0.79" fill="#9FCFFF" points="184.255,721.095 283.88,718.22 585.13,728.887 585.13,711.22 284.463,691.22 
		184.463,696.22 	"/>
	<polygon opacity="0.79" fill="#9FCFFF" points="184.255,748.095 283.88,746.22 585.13,746.887 585.13,729.22 284.463,719.22 
		184.463,723.22 	"/>
	<polygon opacity="0.79" fill="#9FCFFF" points="184.255,775.089 283.88,775.22 584.13,765.426 584.13,747.22 284.463,747.22 
		184.463,749.153 	"/>
	<polygon opacity="0.79" fill="#FFFFFF" points="184.63,666.97 285.13,659.97 585.13,691.887 584.88,670.47 285.63,632.97 
		184.88,641.47 	"/>
	<polygon opacity="0.79" fill="#FFFFFF" points="185.63,641.97 285.13,632.97 585.13,670.887 584.88,649.47 285.63,605.97 
		185.88,616.47 	"/>
	<polygon opacity="0.79" fill="#FFFFFF" points="186.13,616.22 286.005,606.095 585.13,649.887 584.63,630.22 489.38,614.72 
		481.372,615.024 452.13,610.72 452.13,607.72 321.38,582.97 313.379,583.727 285.63,578.97 186.38,589.22 	"/>
	<polygon opacity="0.79" fill="#FFFFFF" points="186.38,588.72 285.005,579.095 313.63,583.887 321.463,583.054 452.13,607.72 
		452.297,610.887 481.297,615.22 489.297,614.887 584.547,630.054 584.463,612.804 489.047,591.97 481.38,592.304 452.13,586.054 
		452.13,583.804 322.13,555.554 313.963,556.554 286.297,551.887 186.88,562.345 	"/>
	<polygon opacity="0.79" fill="#FFFFFF" points="186.63,562.345 286.63,551.72 313.63,556.912 321.463,555.994 452.255,583.845 
		452.38,586.095 481.13,592.22 489.005,591.97 584.255,612.97 584.38,593.47 489.047,569.823 481.38,570.19 452.13,563.301 
		452.13,560.82 322.13,528.679 313.963,529.781 287.255,523.22 187.38,536.22 	"/>
	<polygon opacity="0.79" fill="#FFFFFF" points="186.63,536.013 286.63,523.849 313.63,529.792 321.463,528.741 452.255,560.627 
		452.38,563.203 481.13,570.215 489.005,569.929 584.255,593.97 584.38,574.646 489.047,547.573 481.38,547.994 452.13,540.106 
		452.13,537.266 322.13,500.47 313.963,501.732 287.255,494.22 187.38,509.103 	"/>
	<polygon opacity="0.79" fill="#FFFFFF" points="187.63,508.72 286.63,494.896 313.63,501.719 321.463,500.512 452.255,537.113 
		452.38,540.07 481.13,548.119 489.005,547.79 584.255,575.387 584.63,555.22 490.047,526.129 482.38,526.612 453.13,517.558 
		453.13,514.298 323.13,472.06 314.963,473.509 288.255,464.887 188.38,481.971 	"/>
	<polygon opacity="0.79" fill="#FFFFFF" points="187.63,481.538 286.63,465.879 313.63,473.608 321.463,472.24 452.255,513.699 
		452.38,517.049 481.13,526.166 488.755,525.794 584.63,555.137 584.797,534.637 490.797,503.258 483.255,503.804 452.13,493.549 
		452.13,489.857 324.13,447.013 315.963,448.653 289.255,438.887 189.38,458.238 	"/>
	<polygon opacity="0.79" fill="#FFFFFF" points="189.505,458.158 288.63,438.908 315.942,448.72 324.192,447.095 452.255,489.848 
		452.38,493.428 482.505,503.845 490.005,503.095 584.817,534.283 584.88,515.22 489.13,481.72 482.13,482.408 453.13,470.97 
		453.13,467.72 323.942,421.408 316.13,423.095 289.005,412.845 190.317,435.845 	"/>
	<polygon opacity="0.79" fill="#FFFFFF" points="189.505,436.206 288.63,412.768 315.942,423.186 324.192,421.461 452.255,466.854 
		452.38,470.654 482.13,482.595 489.88,481.72 585.005,515.22 584.755,496.345 489.88,459.595 482.505,459.97 453.13,448.095 
		453.13,445.359 323.942,394.187 316.13,395.978 289.505,384.97 190.88,410.22 	"/>
	<polygon opacity="0.79" fill="#FFFFFF" points="191.005,410.22 289.505,384.595 315.942,395.942 324.192,394.063 452.255,445.095 
		452.38,447.663 482.13,460.673 489.88,459.72 585.005,496.22 584.755,477.655 489.88,437.613 482.505,438.47 453.13,425.083 
		453.13,422.102 323.942,366.346 316.13,368.298 290.13,356.22 191.63,383.97 	"/>
	<polygon opacity="0.79" fill="#FFFFFF" points="192.005,383.849 290.505,356.027 316.942,368.347 325.192,366.306 453.255,421.713 
		453.38,424.5 483.13,438.626 491.005,437.591 585.13,477.47 585.13,458.72 491.005,415.59 483.567,416.52 454.13,401.985 
		454.13,398.749 324.942,340.213 317.13,342.333 291.13,329.22 192.63,359.349 	"/>
	<polygon opacity="0.79" fill="#FFFFFF" points="192.005,358.674 290.505,329.414 316.942,342.371 325.192,340.224 453.255,398.497 
		453.38,401.428 483.13,416.284 491.005,415.195 585.13,459.137 585.13,439.417 491.005,392.056 483.567,393.035 454.13,377.748 
		454.13,374.345 324.942,312.782 317.13,315.011 291.13,301.22 192.63,332.907 	"/>
	<polygon opacity="0.79" fill="#F8FF7F" points="192.005,329.434 290.505,298.259 316.942,312.063 325.192,309.776 453.255,371.862 
		453.38,374.985 483.13,390.813 491.005,389.654 585.13,436.47 585.13,421.46 491.005,371 483.567,372.043 454.13,355.756 
		454.13,352.13 324.942,286.539 317.13,288.914 291.13,274.22 192.63,307.98 	"/>
	<polygon opacity="0.79" fill="#F8FF7F" points="193.005,307.816 290.505,274.296 316.942,288.696 325.192,286.31 453.255,351.074 
		453.38,354.332 483.297,372.054 490.63,371.054 585.13,421.47 585.13,401.887 491.005,350.175 483.63,351.887 454.13,336.554 
		454.13,330.491 324.942,262.07 317.13,264.547 291.13,249.22 193.63,285.437 	"/>
</g>
</svg>
