<svg xmlns="http://www.w3.org/2000/svg" xmlns:xlink="http://www.w3.org/1999/xlink" width="446.662" height="115.26" viewBox="0 0 446.662 115.26"><path d="M51.19 89.392l-9.202 12.99V89.39H39.18v12.99L29.99 89.39h-3.51l8.075 10.568-8.32 14.702H29.5l6.738-12.49 2.945 3.683v8.807h2.808v-8.807l2.95-3.684 6.742 12.492h3.26L46.627 99.96l8.065-10.568"/><defs><path id="a" d="M0 0h446.662v115.26H0z"/></defs><clipPath id="b"><use xlink:href="#a" overflow="visible"/></clipPath><path clip-path="url(#b)" d="M69.66 89.392v20.64c0 .91-.035 1.89-.068 2.806h.067c.353-1.16.46-2.07 1.018-3.474l7.862-19.972h4.07v25.27h-2.812V94.518c0-1.3.04-2.598.073-3.86H79.8c-.24 1.51-.523 2.95-.98 4.106l-7.893 19.898h-4.07v-25.27h2.804zM112.536 89.392v25.27h-2.814V91.92h-8.493v10.003c0 5.65-.103 13.057-5.02 13.057-.522 0-1.122-.073-1.688-.213v-2.49c.394.14.78.174 1.09.174 2.6 0 2.81-3.927 2.81-12.038v-11.02h14.114zM125.85 101.993c0-5.79.948-13.09 8.32-13.09 7.403 0 8.354 7.3 8.354 13.09 0 6.982-.988 13.267-8.355 13.267-7.372 0-8.32-6.285-8.32-13.267m8.254-10.563c-4.323 0-5.34 4.456-5.34 10.107 0 7.337.772 11.196 5.405 11.196 4.64 0 5.44-3.86 5.44-11.16 0-5.65-1.054-10.143-5.506-10.143M158.646 89.392v20.64c0 .91-.034 1.892-.068 2.806h.068c.352-1.16.462-2.07 1.02-3.474l7.862-19.972h4.072v25.27h-2.806V94.518c0-1.3.03-2.598.065-3.86h-.066c-.248 1.51-.53 2.95-.988 4.106l-7.89 19.898h-4.073v-25.27h2.803zm1.652-5.86c.425 1.754 1.58 2.424 3.225 2.424 1.728 0 2.775-.6 3.166-2.423h1.437c0 3.018-2.034 4.314-4.74 4.314-2.458 0-4.527-1.33-4.527-4.314h1.438zM205.614 102.38l9.194-12.988h3.515l-8.077 10.568 8.322 14.702h-3.265l-6.737-12.49-2.952 3.683v8.807h-2.806v-25.27h2.806M229.012 101.993c0-5.79.948-13.09 8.316-13.09 7.404 0 8.358 7.3 8.358 13.09 0 6.982-.988 13.267-8.358 13.267-7.368 0-8.316-6.285-8.316-13.267m8.248-10.563c-4.32 0-5.338 4.456-5.338 10.107 0 7.337.774 11.196 5.406 11.196 4.64 0 5.442-3.86 5.442-11.16 0-5.65-1.056-10.143-5.51-10.143M263.95 89.392l4.952 19.727c.236 1.05.382 2.103.523 3.718h.068c.174-1.263.245-2.32.633-3.758l5.02-19.688h4.948v25.27h-2.81v-20.81c0-1.09.108-2.248.108-3.194h-.107c-.354 1.472-.6 2.352-.844 3.367l-5.295 20.637h-3.332l-5.305-20.915c-.208-.877-.417-1.72-.737-3.09h-.064c0 1.334.098 2.175.098 3.263v20.742h-2.802v-25.27h4.947zM309.375 89.392v25.27h-2.797V91.92h-9.664v22.742h-2.803v-25.27M339.3 89.392v25.27h-2.81V91.92H328v10.003c0 5.65-.105 13.057-5.02 13.057-.522 0-1.12-.073-1.68-.213v-2.49c.384.14.77.174 1.085.174 2.595 0 2.81-3.927 2.81-12.038v-11.02H339.3zM365.99 89.392v2.528h-9.862v8.214h9.23v2.525h-9.23v9.473h9.897v2.53h-12.703v-25.27M381.877 102.38l9.19-12.988h3.52l-8.078 10.568 8.315 14.702h-3.264l-6.734-12.49-2.95 3.683v8.807h-2.805v-25.27h2.807M417.62 96.974c0-3.053-1.017-5.544-4.53-5.544-4.873 0-4.91 6.88-4.91 10.21 0 5.126.28 11.093 4.91 11.093 3.654 0 4.25-3.016 4.53-7.195h2.81c-.32 5.828-1.758 9.722-7.128 9.722-7.435 0-8.03-7.58-8.03-13.548 0-5.686 1.046-12.81 7.965-12.81 4.773 0 7.193 3.544 7.193 8.072h-2.81zM135.45 63.052h-26.972V35.097L90.884 63.052H66.806V2.518H93.78v28.894l17.478-28.894h24.19M214.276 63.052h-26.974V40.667H174.05v22.385h-26.977V2.518h26.977v22.234h13.252V2.518h26.974M273.61 63.052h-48.18V2.518h48.18v15.094h-21.675v7.214h19.17V39.84h-19.17v7.49h21.675M365.234 63.052h-25.758L336.1 39.45l-6.662 23.602h-13.016l-6.664-23.603-3.37 23.602H280.59l8.192-60.534h27.958l6.183 25.52 6.16-25.52h27.956M34.282 42.93c-5.6 0-10.142-4.543-10.142-10.144 0-5.605 4.542-10.14 10.142-10.14 3.374 0 6.337 1.66 8.19 4.19L61.857 12.75c-.844-1.074-1.742-2.122-2.75-3.124C52.612 3.208 44.34 0 34.31 0 24.29 0 16.027 3.208 9.5 9.626 3.17 15.876 0 23.598 0 32.786c0 9.216 3.17 16.946 9.5 23.203 6.496 6.378 14.766 9.58 24.807 9.58 10.033 0 18.304-3.21 24.802-9.623 1.006-.996 1.904-2.053 2.748-3.13L42.47 38.73c-1.85 2.534-4.814 4.2-8.188 4.2M425.297 2.517h-38.7l-21.363 60.535h27.638l3.135-10.428h19.916l3.138 10.428h27.602L425.297 2.517zm-13.22 29.545l1.73 8.825-7.86-4.374-7.857 4.374 1.728-8.825-6.586-6.122 8.93-1.085 3.785-8.16 3.793 8.16 8.924 1.085-6.588 6.122z"/></svg>