<svg xmlns="http://www.w3.org/2000/svg" width="870.15" height="545.3" viewBox="0 0 870.15 545.3"><path opacity=".6" fill="#E7B7C0" d="M96.76 507.62l-92.75.5-.25-466.75 108.312-.125-.375-37.906 97.563.06.03 33.72-22.28-.03.5 114.28-28.75-.25.5 68.25 28 .25-.25 59.75-89.5-.5"/><path opacity=".6" fill="#FFF381" d="M278.343 507.37h-177V284.703h176"/><path opacity=".6" fill="#FBC563" d="M459.343 541.37h-177V284.703h176"/><path opacity=".6" fill="#FFF381" d="M640.343 507.37h-88.916v34.167l-88.584-.167V284.703H639.34"/><path opacity=".6" fill="#E7B7C0" d="M821.51 469.37l-13 1v36.5h-160.5l-3-286.5 80.5-.5.5-170h93"/><path opacity=".6" fill="#FFF381" d="M164.51 157.37l.5 55.75 158.75.5 2-176-.25-33.75h-112v38.25h-19.75v115.5"/><path opacity=".6" fill="#FBC563" d="M718.343 50.037v163H507.01V3.703h112.667v47"/></svg>