<svg xmlns="http://www.w3.org/2000/svg" width="870.15" height="545.3" viewBox="0 0 870.15 545.3"><path opacity=".6" fill="#FFF381" d="M591.807 507.37h177V284.703h-176"/><path opacity=".6" fill="#FBC563" d="M410.807 541.37h177V284.703h-176"/><path opacity=".6" fill="#FFF381" d="M229.807 507.37h88.916v34.167l88.584-.167V284.703H230.81"/><path opacity=".6" fill="#E7B7C0" d="M48.64 469.37l13 1v36.5h160.5l3-286.5-80.5-.5-.5-170h-93"/><path opacity=".6" fill="#FBC563" d="M151.807 50.037v163H363.14V3.703H250.473v47"/><path opacity=".6" fill="#F00" d="M758.077 41.245l.375-37.906-97.562.06v.47H544.657l-.267 33.75 2.14 176 136.86-.403-.12 6.4-.38.003.25 59.75 89.5-.5.75 228.75 92.75.5.25-466.75"/></svg>