<svg xmlns="http://www.w3.org/2000/svg" xmlns:xlink="http://www.w3.org/1999/xlink" width="65" height="58" viewBox="0 0 134.668 120.059"><defs><path id="a" d="M0 0h134.668v120.06H0z"/></defs><clipPath id="b"><use xlink:href="#a" overflow="visible"/></clipPath><path clip-path="url(#b)" fill-rule="evenodd" clip-rule="evenodd" fill="#5F842A" d="M124.485 73.074c-.41-1.054-1.163-1.52-2.232-1.583-3.356-.205-6.95-.87-9.188-4.377-.515-.81-.956-1.8-1.392-3.01-2.302-6.4-.166-15.3.848-20.092.63-2.883 1.24-6.44.508-6.756-.73-.316-2.325.157-3.888.882 0-2.998-.72-8.515-1.984-8.662-.656-.078-2.083 1.034-3.567 2.413-.77-2.98-2.563-7.606-3.754-7.474-.71.08-1.98 1.71-3.208 3.557-1.19-3.047-3.264-7.006-4.41-6.773-.72.147-1.847 1.86-2.935 3.846-1.727-2.96-4.488-6.678-5.63-6.252-.734.273-1.65 2.314-2.474 4.602-1.764-2.888-5.59-7.658-6.872-7.073-.702.318-1.458 2.356-2.104 4.654-1.87-2.83-5.842-7.442-7.1-6.815-.773.386-1.54 2.926-2.14 5.567-2.068-3.043-6.068-7.63-7.368-6.987-.978.485-1.947 4.18-2.633 7.47-2.225-2.947-6.278-7.178-7.525-6.492-.977.536-1.803 4.422-2.35 7.79-2.362-2.832-6.14-6.455-7.3-5.774-.73.43-1.32 2.79-1.756 5.385-.113-.25-.23-.5-.358-.75-2.298-4.533-5.998-6.05-9.79-5.337-1.295.243-2.097.652-2.976 1.276.123-.382 6.92-4.922 4.923-16.31-8.518 4.122-10.424 10.097-8.926 15.883-1.317-1.85-2.155-2.6-3.133-3.29-.98-.688-1.756.02-2.333 1.027-.79 1.386 4.127 2.69 5.765 5.078-.132.044-.266.086-.4.12-7.23 1.908-10.535 7.428-7.085 13.586.364.654.772 1.276 1.217 1.87-2.886-.065-6.217.224-6.435 1.175-.18.775 1.233 2.843 2.77 4.808-2.71 1.024-5.728 2.555-5.573 3.522.117.718 1.862 1.936 3.81 3.087C2.942 48.57-.42 51.392.04 52.415c.247.55 1.666 1.137 3.388 1.67C1.57 56.437-.438 59.646.246 60.43c.336.386 1.483.554 2.92.603-1.025 2.676-1.856 5.853-1.043 6.374.308.197.987.17 1.86.01 2.506 22.255 35.993 29.65 55.048 29.984 18.804.332 35.118-4.768 46.607-9.602 5.307-2.23 12.876-6.207 17.594-10.766 1.137-1.1 1.81-2.52 1.255-3.958m-89.595-.15c-.04.302-.096.55-.176.73-.08.19-.178.33-.294.415-.11.08-.25.125-.382.125H19.946c-.506 0-.94-.15-1.29-.453-.347-.3-.524-.795-.524-1.48V45.966c0-.686.175-1.18.524-1.48.35-.304.78-.456 1.29-.456h14.02c.136 0 .267.042.375.12.103.076.2.215.278.407.073.198.136.446.176.747.04.31.056.693.056 1.16 0 .44-.016.805-.056 1.116-.04.3-.096.548-.176.732-.08.19-.173.33-.277.41-.107.09-.24.13-.373.13h-9.725v7.35h6.903c.143 0 .272.045.382.128.115.086.215.215.294.397.08.174.136.417.177.726.04.3.055.665.055 1.096 0 .452-.015.827-.055 1.122-.04.293-.097.53-.176.707-.08.18-.18.306-.293.38-.11.072-.244.12-.382.12h-6.903v8.495h9.796c.144 0 .272.043.382.127.116.088.215.223.294.414.08.184.136.43.176.732.04.31.054.684.054 1.137 0 .454-.015.828-.054 1.14m34.105.888c-.088.115-.255.22-.5.297-.235.07-.568.137-.972.173-.404.037-.93.057-1.58.057-.662 0-1.198-.02-1.602-.057-.41-.036-.75-.108-.992-.19-.253-.086-.435-.203-.55-.35-.112-.146-.225-.33-.293-.55l-2.14-6.84c-.28-.9-.582-1.674-.908-2.316-.32-.634-.704-1.162-1.138-1.576-.428-.407-.94-.713-1.512-.905l-.12-.037V73.36c0 .166-.046.31-.14.43-.09.12-.25.214-.47.303-.232.087-.533.152-.924.19-.38.04-.874.057-1.455.057-.59 0-1.084-.017-1.464-.057-.39-.038-.693-.103-.924-.19-.223-.09-.374-.184-.46-.304-.09-.12-.128-.264-.128-.43V61.518l-.118.037c-.57.192-1.083.498-1.513.906-.433.415-.816.943-1.137 1.577-.326.642-.626 1.416-.908 2.315l-2.14 6.842c-.068.22-.18.403-.294.548-.114.148-.296.265-.548.35-.244.083-.585.155-.995.19-.402.038-.937.058-1.598.058-.652 0-1.18-.02-1.582-.057-.404-.036-.735-.103-.97-.173-.246-.077-.415-.182-.502-.297-.09-.118-.143-.262-.143-.43 0-.08.002-.177.007-.285.006-.1.036-.235.072-.382.04-.15.095-.33.15-.525.06-.197.165-.44.263-.723l2.092-6.02c.39-1.123.783-2.072 1.17-2.84.387-.77.805-1.42 1.232-1.933.435-.522.915-.956 1.424-1.29.51-.332 1.09-.63 1.727-.874v-.024c-.542-.167-1.046-.407-1.505-.7-.45-.29-.884-.687-1.27-1.17-.397-.492-.788-1.105-1.147-1.83-.36-.727-.728-1.614-1.073-2.657l-1.79-5.403c-.164-.495-.293-.894-.35-1.176-.057-.283-.096-.533-.096-.73 0-.167.044-.315.128-.43.087-.118.242-.208.47-.28.22-.068.534-.126.93-.165.4-.04.908-.057 1.528-.057.66 0 1.188.02 1.59.057.405.036.726.11.955.19.23.08.4.204.503.35.098.143.184.33.246.54l1.9 6.38c.26.878.555 1.632.852 2.238.295.597.652 1.092 1.05 1.462.4.372.87.642 1.392.804V44.843c0-.177.04-.32.128-.432.086-.117.237-.213.46-.294.23-.078.534-.134.924-.173.38-.04.874-.057 1.463-.057.58 0 1.073.017 1.454.057.39.04.692.095.924.173.22.08.38.177.47.294.094.113.14.255.14.432V55.91c.523-.163.992-.433 1.394-.805.396-.37.755-.865 1.05-1.462.296-.606.59-1.36.85-2.237l1.9-6.38c.064-.21.15-.398.25-.54.1-.147.272-.27.5-.35.23-.08.55-.155.954-.19.402-.038.93-.058 1.592-.058.62 0 1.127.017 1.53.057.393.04.707.097.927.166.23.072.385.162.468.28.086.115.13.263.13.43 0 .197-.04.447-.095.73-.06.283-.187.682-.353 1.177l-1.788 5.402c-.346 1.042-.716 1.93-1.073 2.657-.36.723-.753 1.337-1.147 1.83-.388.482-.82.88-1.272 1.168-.46.294-.963.534-1.505.7v.025c.637.245 1.218.542 1.728.874.508.334.988.768 1.42 1.29.43.514.85 1.163 1.237 1.93.386.77.78 1.72 1.17 2.843l2.09 6.02c.097.284.205.526.262.724.056.195.115.377.152.526.038.147.065.28.072.382.005.108.008.206.008.286 0 .167-.052.31-.145.43m26.364-.405c0 .15-.05.285-.153.403-.103.12-.27.22-.503.294-.227.076-.55.138-.947.176-.398.04-.89.055-1.48.055-.588 0-1.08-.015-1.48-.055-.394-.038-.708-.103-.93-.176-.232-.074-.387-.176-.476-.294-.092-.118-.14-.254-.14-.404V58.634c0-.605.008-1.203.02-1.783.015-.586.04-1.105.072-1.55h-.05c-.127.214-.27.472-.442.753L78.242 73.433c-.105.175-.256.32-.38.437-.136.125-.303.223-.52.296-.204.068-.46.117-.763.142-.302.022-.7.03-1.177.03-.604 0-1.098-.015-1.465-.055-.372-.038-.666-.103-.874-.176-.214-.078-.358-.18-.43-.3-.078-.128-.12-.28-.12-.447V44.82c0-.153.048-.288.153-.405.103-.12.27-.216.507-.297.24-.07.56-.134.948-.173.383-.04.875-.057 1.463-.057.597 0 1.097.017 1.48.057.39.04.7.102.93.173.23.08.397.18.485.297.093.12.142.255.142.404v14.305c0 .492-.007 1.027-.02 1.582-.017.564-.04 1.108-.073 1.632h.05l11.066-17.545c.098-.157.223-.287.348-.405.127-.12.293-.22.502-.294.203-.076.47-.13.78-.16.31-.03.707-.048 1.192-.048.59 0 1.068.017 1.433.057s.655.097.875.173c.216.076.368.177.456.297.084.117.13.262.13.43v28.564zm7.494 1.003c-1.646 0-2.978-1.332-2.978-2.976s1.332-2.98 2.978-2.98c1.644 0 2.977 1.336 2.977 2.98s-1.332 2.976-2.976 2.976"/><path clip-path="url(#b)" d="M12.942 111.366c-.016.036-.04.06-.075.074-.036.014-.09.015-.16.003-.073-.013-.163-.037-.275-.075-.11-.037-.252-.093-.422-.166-.188-.08-.34-.152-.458-.213-.116-.062-.204-.117-.263-.164-.06-.046-.1-.092-.117-.137-.018-.046-.027-.092-.027-.14l.054-1.656c.01-.23.004-.427-.015-.592-.018-.165-.057-.306-.115-.424-.058-.117-.137-.218-.235-.3-.1-.084-.23-.16-.385-.227l-.342-.146-1.067 2.47c-.015.034-.042.06-.082.073-.04.015-.1.015-.173 0-.073-.01-.165-.036-.274-.073-.108-.036-.24-.088-.39-.153-.153-.065-.28-.125-.384-.18-.104-.056-.185-.106-.245-.15-.06-.045-.1-.088-.116-.127-.018-.04-.02-.076-.003-.113l1.067-2.468-.335-.145c-.16-.07-.306-.112-.434-.128-.13-.017-.257-.006-.384.032-.128.038-.26.106-.396.204-.134.098-.283.23-.444.393l-1.16 1.176c-.036.033-.076.058-.12.076-.046.018-.106.02-.18.01-.075-.01-.174-.038-.297-.08-.122-.042-.277-.104-.465-.185-.165-.072-.3-.136-.403-.19-.105-.055-.186-.105-.243-.15-.06-.043-.096-.082-.112-.12-.016-.035-.017-.07 0-.107.014-.035.043-.08.088-.133.044-.052.116-.126.215-.22l1.145-1.066c.197-.185.38-.334.548-.447.17-.113.333-.2.492-.262.16-.06.314-.1.466-.12.152-.02.31-.027.473-.027l.007-.012c-.092-.082-.18-.176-.26-.283-.08-.106-.152-.234-.213-.382-.06-.15-.11-.322-.145-.52-.037-.2-.052-.435-.045-.708l.025-1.366c0-.126.007-.225.016-.295.01-.07.023-.128.043-.173.015-.036.04-.06.07-.076.034-.015.085-.018.153-.01.068.008.157.03.266.067.108.036.245.09.41.162.188.08.34.152.454.212.115.06.202.114.26.164.058.05.094.098.11.144.013.046.02.096.018.147l-.09 1.515c-.007.22-.005.408.012.566.017.16.053.295.106.41.055.112.128.21.22.29.095.08.21.15.35.21l.334.144 1.017-2.354c.017-.037.044-.06.083-.072.04-.012.097-.012.17.002.075.013.167.04.28.076.11.037.242.088.394.155.152.066.278.126.38.18.1.055.182.105.242.15.06.044.1.085.117.122s.02.074.004.11l-1.016 2.353.342.15c.135.056.264.092.39.103.124.01.248-.003.37-.042.124-.04.25-.107.378-.2s.267-.216.418-.368l1.07-1.09c.036-.038.075-.067.116-.09.042-.022.1-.03.173-.02.074.008.17.03.288.072.118.04.268.1.452.18.165.07.298.133.4.188.1.054.178.104.23.147.053.045.087.084.1.12.014.034.014.07-.002.106-.02.046-.05.095-.096.15-.045.055-.114.127-.204.215l-.998.946c-.193.188-.373.338-.542.45-.167.114-.324.2-.467.257-.144.057-.28.093-.41.11-.128.015-.254.018-.376.007l-.006.014c.113.118.215.238.304.362.09.124.164.263.222.418.057.155.102.333.13.535.03.2.046.437.046.708v1.562c.004.07.004.13.004.18 0 .05-.004.094-.01.13-.005.038-.012.07-.02.092s-.014.044-.022.062M20.428 113.83c-.016.047-.042.083-.078.106-.036.023-.09.035-.16.034-.073-.002-.165-.016-.277-.044s-.25-.07-.416-.126c-.166-.056-.304-.11-.414-.156-.11-.048-.196-.095-.26-.14-.066-.045-.108-.09-.126-.13-.02-.043-.02-.088-.005-.133l.937-2.753c.065-.193.14-.393.222-.596.082-.203.168-.4.26-.59-.178.156-.363.305-.555.448-.193.143-.388.284-.585.423l-3.045 2.12c-.058.038-.112.067-.16.09-.05.02-.107.033-.17.034-.065 0-.144-.01-.233-.033-.09-.022-.204-.057-.342-.104-.166-.056-.3-.107-.4-.152-.1-.044-.178-.087-.234-.13-.056-.04-.09-.083-.103-.127-.014-.043-.013-.088.003-.134l2.108-6.19c.014-.043.04-.076.077-.102.036-.026.093-.04.167-.04.075 0 .17.014.28.04.114.024.252.065.418.12.327.113.55.215.668.307.118.09.162.18.133.268l-.934 2.74c-.064.19-.138.382-.22.58-.084.2-.168.39-.256.57.174-.147.348-.292.526-.435.177-.142.36-.278.547-.405l3.068-2.12c.055-.038.11-.067.163-.087.052-.02.114-.03.183-.03.07 0 .15.01.244.032.093.022.21.057.354.105.162.056.294.106.396.15.104.047.182.09.237.136.053.044.087.09.097.134.01.045.008.09-.01.137l-2.106 6.19zM27.99 115.922c-.014.046-.04.084-.076.11-.04.03-.094.045-.166.05-.073.007-.167 0-.285-.02-.12-.02-.263-.053-.432-.1-.173-.046-.316-.09-.428-.134-.112-.044-.2-.086-.26-.13-.062-.04-.1-.083-.118-.125-.015-.042-.017-.087-.005-.134l1.386-5.084-1.275-.348c-.277.718-.546 1.34-.808 1.866-.263.527-.52.973-.778 1.337-.255.365-.508.657-.756.874-.25.217-.5.375-.754.472-.254.098-.514.146-.778.144-.265 0-.533-.04-.806-.113-.066-.02-.117-.043-.154-.073-.037-.03-.06-.076-.07-.136-.008-.06-.003-.143.015-.25.02-.105.053-.244.1-.413.047-.173.09-.314.125-.42.037-.105.072-.186.107-.24.034-.053.07-.085.11-.095.038-.01.08-.008.127.005.13.036.264.043.4.022.133-.022.27-.087.416-.197.142-.11.293-.266.45-.47.155-.2.32-.464.496-.79.174-.327.362-.72.565-1.183.202-.463.422-1.005.662-1.626.062-.19.14-.32.24-.396.1-.074.23-.09.394-.044l3.645.995c.164.044.273.125.328.24.054.116.055.27.002.464l-1.62 5.942zM36.898 114.445c-.114.544-.29 1.026-.525 1.444-.237.417-.534.758-.894 1.02-.36.265-.776.44-1.252.524-.475.084-1.007.066-1.593-.057-.567-.12-1.045-.3-1.43-.546-.388-.243-.69-.546-.903-.904-.212-.36-.34-.77-.382-1.237-.042-.468-.004-.983.114-1.545.113-.544.29-1.026.53-1.446.24-.42.538-.76.897-1.023.358-.26.774-.434 1.248-.52.472-.084 1.003-.066 1.59.057.57.12 1.05.3 1.438.544.388.242.687.542.897.9.212.358.338.77.38 1.237.042.466.004.984-.115 1.55m-1.867-.315c.066-.315.102-.61.107-.885.005-.275-.03-.523-.11-.743-.078-.22-.204-.406-.38-.558-.175-.15-.412-.257-.712-.32-.267-.057-.512-.057-.732 0-.22.056-.415.164-.583.326-.168.16-.313.368-.432.62-.12.25-.215.545-.285.884-.066.314-.1.61-.104.885-.003.274.033.522.11.742.075.22.202.405.38.554.177.15.415.254.71.316.27.057.518.058.74.002.22-.055.413-.163.58-.323.17-.158.31-.363.43-.615.116-.25.21-.546.28-.885M44.058 118.897c-.007.048-.026.087-.057.118-.03.03-.082.05-.153.062-.07.01-.164.014-.278.007-.116-.006-.26-.022-.433-.047s-.32-.05-.436-.08c-.115-.026-.21-.055-.28-.087-.073-.033-.12-.068-.15-.106-.025-.038-.034-.082-.027-.13l.417-2.878c.03-.203.066-.412.11-.627.043-.216.09-.426.146-.63-.146.186-.3.367-.463.542-.163.176-.33.35-.496.523l-2.606 2.64c-.05.05-.098.087-.14.118-.045.03-.1.052-.162.066-.064.01-.142.015-.235.008-.09-.006-.21-.02-.355-.04-.174-.025-.314-.05-.42-.075-.11-.026-.192-.055-.255-.085-.06-.032-.104-.068-.125-.107-.02-.04-.028-.083-.02-.132l.938-6.472c.006-.043.025-.08.057-.114.032-.032.085-.055.158-.07.073-.013.168-.018.283-.013.115.003.26.018.434.042.34.05.58.11.712.178.13.07.19.15.178.24l-.415 2.864c-.03.198-.066.4-.11.612-.046.21-.096.412-.15.606.145-.176.292-.35.44-.524.148-.172.302-.338.464-.497l2.628-2.646c.046-.046.093-.085.14-.116.05-.03.11-.05.178-.063.067-.013.15-.016.244-.012.096.004.218.017.367.04.17.023.31.048.418.074.11.026.196.056.257.09.06.032.1.07.12.112.018.04.023.086.016.134l-.938 6.473zm.85-9.63c-.04.284-.126.544-.254.782-.128.237-.307.436-.54.596-.233.16-.525.272-.876.335-.35.063-.77.06-1.257-.01-.47-.07-.867-.18-1.184-.33-.32-.148-.57-.328-.753-.54-.184-.21-.305-.453-.364-.725-.06-.27-.067-.562-.022-.87.01-.072.032-.13.065-.17.034-.044.083-.074.15-.094.067-.02.155-.027.267-.024.11.004.246.018.41.042.155.022.282.048.38.077.1.03.173.063.22.102.05.04.08.083.097.132.015.048.018.104.01.167-.02.13-.014.254.015.37.03.12.084.223.16.316.08.092.18.17.303.236.124.064.265.108.424.13.153.023.297.02.428-.004.13-.025.248-.072.35-.142.1-.068.18-.156.244-.263.062-.105.103-.226.122-.36.01-.06.026-.108.05-.15.028-.04.07-.072.13-.094.06-.024.138-.036.235-.036.094 0 .214.008.36.03.173.025.315.052.427.08.11.028.2.062.262.1.062.04.104.084.124.133.02.05.024.11.014.183"/><path clip-path="url(#b)" fill="#5F842A" d="M55.823 115.197c-.048.842-.186 1.567-.413 2.176-.227.61-.536 1.108-.926 1.496-.39.386-.858.666-1.402.837-.544.172-1.164.238-1.86.198-.238-.013-.48-.045-.73-.096-.248-.052-.48-.114-.7-.187-.217-.074-.41-.156-.577-.25-.168-.092-.285-.172-.35-.242s-.106-.126-.125-.17c-.02-.046-.034-.104-.045-.175-.01-.072-.017-.158-.018-.258-.002-.1 0-.226.01-.376.014-.238.046-.41.096-.513.05-.105.115-.155.198-.15.06.003.138.045.236.127.097.08.23.17.402.268.17.097.385.19.646.278.26.088.583.143.968.165.345.02.66-.018.943-.11.284-.095.533-.248.747-.46s.39-.483.526-.812c.136-.33.225-.716.27-1.163l-3.916-.223c-.05-.003-.09-.018-.123-.047-.034-.028-.06-.073-.08-.132-.022-.06-.036-.138-.043-.233-.007-.096-.005-.212 0-.348.01-.136.022-.253.04-.35.018-.096.04-.17.068-.226.027-.054.058-.093.094-.118.036-.025.077-.036.126-.033l3.896.22c-.012-.4-.072-.756-.18-1.068-.11-.31-.26-.576-.454-.796-.192-.222-.43-.392-.71-.513-.28-.12-.594-.192-.94-.212-.316-.017-.597.004-.845.063-.246.06-.46.128-.644.205-.183.078-.333.15-.45.22-.116.07-.2.102-.254.1-.03-.003-.056-.015-.082-.04-.025-.022-.047-.06-.062-.112-.017-.052-.03-.123-.036-.21-.007-.09-.007-.2 0-.33.008-.146.02-.27.032-.37.014-.104.03-.187.048-.25.017-.066.04-.12.064-.166.024-.045.06-.088.11-.13.047-.04.145-.097.29-.17.146-.072.33-.137.55-.195.22-.058.47-.105.746-.14.28-.036.58-.044.906-.026.647.036 1.226.17 1.738.4.51.233.938.56 1.28.986.34.424.594.942.757 1.554.162.612.222 1.314.176 2.107M64.174 119.715c0 .054-.014.1-.042.136-.03.038-.08.068-.157.093-.075.025-.176.044-.303.057-.127.013-.29.02-.49.022-.21 0-.378-.004-.507-.014-.13-.01-.233-.03-.31-.057-.08-.024-.137-.06-.177-.107-.04-.046-.07-.103-.09-.17l-.774-2.1c-.11-.306-.224-.562-.342-.768-.12-.206-.25-.373-.392-.5-.143-.13-.303-.22-.484-.272-.18-.052-.383-.078-.608-.076l-.43.003.028 3.785c0 .054-.014.1-.043.136-.028.038-.08.07-.152.097-.073.028-.17.048-.29.06-.123.014-.28.02-.47.022-.185 0-.34-.004-.463-.016-.124-.01-.223-.03-.297-.056-.073-.026-.126-.057-.157-.093-.032-.037-.048-.082-.05-.135l-.065-8.937c0-.054.015-.1.046-.135.032-.037.084-.068.157-.093.074-.024.173-.043.297-.057.123-.013.278-.02.463-.02.19-.003.346.002.467.013.122.013.22.03.294.054.074.024.125.054.155.09s.044.082.044.135l.026 3.55.43-.003c.22 0 .413-.032.578-.092.166-.06.314-.154.447-.28.134-.13.255-.294.363-.497.108-.203.212-.454.312-.75l.622-1.89c.024-.07.053-.127.086-.174.034-.046.09-.083.164-.11.075-.028.175-.048.3-.06.124-.014.29-.02.5-.023.19 0 .346.005.47.015.125.012.222.028.293.05.07.02.12.05.144.086.023.038.037.083.037.136 0 .064-.01.14-.03.235-.022.093-.058.215-.11.367l-.624 1.685c-.115.313-.23.58-.344.8-.116.22-.238.406-.366.56-.127.155-.263.282-.406.38-.142.098-.302.18-.476.245v.007c.195.08.372.174.53.277.16.105.31.236.45.396.14.16.273.357.402.59.13.232.26.518.394.86l.79 1.95c.078.2.126.337.142.413.013.075.022.136.022.185M73.39 114.45c.06.782.017 1.49-.13 2.12-.144.633-.394 1.178-.744 1.637-.35.46-.8.825-1.348 1.095s-1.193.434-1.936.49c-.734.058-1.382.012-1.943-.137-.562-.15-1.04-.407-1.435-.772-.395-.365-.706-.844-.936-1.437-.23-.593-.378-1.305-.442-2.136-.06-.762-.015-1.456.132-2.08.147-.625.395-1.166.746-1.623.35-.457.8-.822 1.347-1.094.55-.273 1.197-.438 1.945-.495.714-.056 1.35-.01 1.913.137.56.147 1.04.403 1.438.768.398.364.713.84.947 1.425.233.586.38 1.286.445 2.102m-2.003.258c-.04-.496-.113-.943-.222-1.342-.11-.4-.268-.737-.478-1.012-.21-.274-.476-.478-.798-.612-.324-.133-.72-.182-1.186-.146-.47.036-.857.156-1.16.358-.302.202-.538.458-.71.77-.17.31-.28.667-.33 1.07-.05.402-.056.824-.022 1.266.04.514.114.974.224 1.38.11.403.268.744.475 1.02.208.278.474.48.796.61.323.128.72.175 1.19.137.472-.036.86-.153 1.16-.353.302-.2.54-.457.71-.774.17-.315.28-.677.33-1.084.05-.407.056-.836.02-1.288"/><path clip-path="url(#b)" d="M84.307 117.51c.006.04-.002.073-.023.104-.023.03-.067.06-.13.087-.066.03-.156.057-.273.085-.115.03-.26.058-.44.086-.202.033-.368.055-.5.066-.132.01-.237.015-.317.01-.08-.004-.14-.02-.178-.05-.04-.028-.072-.064-.1-.11l-.844-1.44c-.104-.195-.21-.356-.316-.482-.107-.126-.218-.223-.332-.29s-.24-.11-.375-.126c-.137-.016-.288-.01-.456.018l-.367.06.42 2.625c.005.034-.006.07-.034.107-.03.036-.08.072-.147.107-.068.037-.16.07-.272.1-.114.03-.252.06-.415.086-.17.026-.312.043-.428.05-.118.006-.215.003-.29-.01-.077-.013-.134-.032-.17-.058-.036-.026-.057-.057-.062-.09l-1.043-6.515c-.006-.034.005-.07.03-.105.027-.037.075-.07.143-.104.07-.034.16-.065.274-.096.112-.03.254-.06.42-.087.166-.026.305-.042.422-.048.12-.007.214-.005.29.005.077.01.133.028.172.054.038.026.06.056.067.09l.4 2.503.37-.06c.15-.024.28-.063.395-.12.114-.054.214-.13.3-.23.083-.1.157-.228.22-.38.06-.153.113-.34.158-.56l.32-1.47c.006-.052.023-.098.05-.14.03-.04.076-.078.142-.11.067-.033.16-.064.28-.094.122-.028.285-.06.487-.09.176-.03.323-.05.438-.057.115-.01.206-.01.275 0 .067.008.115.024.143.046.03.023.046.053.052.092.008.048.008.107 0 .178-.01.07-.028.167-.058.29l-.316 1.31c-.063.26-.136.486-.222.674-.085.19-.178.348-.278.478-.1.13-.205.238-.315.324-.108.086-.215.158-.32.214l.003.014c.16.04.31.084.45.136s.28.125.417.222c.137.096.273.22.408.374.135.154.276.342.42.566l.86 1.343c.038.06.07.11.094.152.024.043.044.082.06.116.014.035.025.064.03.088.007.024.012.045.015.064M90.985 112.634c.116.544.15 1.054.103 1.533-.048.478-.183.91-.405 1.296-.22.386-.533.714-.933.983-.4.27-.895.467-1.482.592-.566.12-1.076.147-1.528.078-.453-.068-.85-.222-1.19-.463-.34-.24-.624-.568-.85-.977-.228-.41-.4-.896-.52-1.46-.116-.542-.15-1.054-.1-1.536.05-.48.186-.913.41-1.297.22-.383.53-.71.93-.978.398-.27.89-.466 1.476-.59.57-.123 1.084-.15 1.536-.085.452.066.848.22 1.186.46.337.243.62.57.846.98.227.41.4.897.52 1.464m-1.835.466c-.067-.315-.154-.6-.26-.853-.107-.253-.24-.465-.4-.636-.162-.168-.353-.287-.573-.355-.222-.067-.483-.07-.783-.005-.266.056-.49.155-.67.295-.178.14-.312.32-.4.535-.09.215-.138.46-.146.74-.008.278.024.587.096.925.068.315.156.598.264.85.108.255.242.467.4.637.16.17.35.288.572.352.222.065.482.066.777.003.272-.057.498-.156.677-.297.18-.14.313-.317.402-.53.09-.213.138-.46.143-.737.005-.277-.03-.585-.1-.923M101.976 113.005c.042.115.012.21-.092.292-.103.08-.306.163-.605.248-.185.052-.33.09-.443.118-.11.027-.2.04-.263.037-.064-.002-.112-.018-.142-.046-.03-.03-.057-.072-.078-.127l-1.33-3.26c-.05-.118-.102-.25-.155-.396-.056-.146-.112-.295-.167-.446-.056-.15-.11-.302-.163-.452-.052-.15-.103-.283-.152-.4l-.043-.18.01.447c.002.16.002.326 0 .493-.003.17-.005.334-.003.5 0 .163 0 .31-.003.444l-.115 3.786c-.003.06-.017.12-.043.17-.026.054-.07.103-.13.148-.06.046-.14.09-.243.13-.103.043-.234.087-.393.132-.145.04-.27.07-.374.088-.104.016-.193.022-.27.016-.074-.007-.137-.026-.186-.057-.05-.033-.09-.078-.122-.134l-2.06-3.16c-.074-.11-.153-.234-.24-.37l-.265-.42c-.088-.142-.173-.284-.256-.425-.084-.14-.158-.27-.22-.387l.056.173c.025.124.054.265.088.42.035.154.066.31.096.47l.088.468c.028.155.056.294.08.418l.59 3.426c.008.065.005.12-.007.166-.013.046-.048.09-.106.132-.06.042-.145.083-.255.122s-.257.085-.44.137c-.164.047-.297.08-.398.098-.1.018-.182.022-.243.013-.06-.01-.106-.034-.134-.07-.027-.034-.048-.083-.06-.145l-1.052-6.044c-.035-.208-.012-.378.067-.51.08-.13.23-.228.45-.29l.89-.255c.19-.052.352-.083.49-.092.14-.01.27.007.388.05.118.042.227.114.327.217.102.103.203.24.307.407l1.315 1.95c.082.13.166.264.25.404l.258.42c.086.14.166.277.242.41.075.133.146.26.21.377l.007-.002c-.01-.133-.016-.28-.02-.44-.006-.162-.01-.325-.015-.49-.004-.167-.005-.33-.003-.494s.005-.316.01-.46l.092-2.343c-.002-.18.01-.34.03-.476.024-.136.07-.252.137-.35.07-.098.164-.183.285-.256.122-.07.278-.135.47-.19l.886-.252c.225-.064.407-.06.547.01.14.068.246.2.322.397l2.296 5.69zM109.188 110.42c.016.046.017.092.002.136-.016.044-.052.09-.11.136-.058.048-.14.098-.246.148-.106.052-.243.108-.413.17-.164.06-.303.105-.42.133-.117.03-.213.046-.29.048-.077.002-.134-.01-.172-.034-.037-.025-.065-.06-.082-.107l-1.79-4.932-2.315.84 1.792 4.932c.017.046.016.09 0 .136-.018.046-.057.09-.114.14-.06.045-.14.094-.246.146-.106.05-.243.108-.412.17-.17.06-.312.106-.426.135-.114.028-.208.043-.283.044-.074.002-.13-.01-.167-.035-.038-.025-.066-.06-.082-.107l-2.106-5.804c-.067-.183-.08-.335-.034-.457.043-.123.147-.214.313-.273l4.82-1.75c.16-.06.298-.056.41.01.11.065.2.19.268.373l2.108 5.804zM116.423 107.33c.02.044.022.09.01.134-.012.045-.044.093-.097.142-.053.05-.132.104-.236.162-.105.06-.238.124-.398.194-.166.072-.304.126-.42.163-.113.037-.21.058-.283.064-.075.005-.132-.004-.17-.026-.04-.023-.07-.057-.09-.102l-2.105-4.83-1.212.53c.233.732.414 1.386.54 1.96.126.576.203 1.086.232 1.53.03.444.015.83-.043 1.154-.056.325-.154.606-.29.84-.137.236-.31.436-.516.6-.207.165-.44.304-.7.417-.062.027-.118.04-.165.04-.047 0-.094-.02-.138-.063-.045-.04-.094-.11-.145-.204-.05-.094-.113-.222-.183-.382-.072-.165-.127-.3-.165-.406-.04-.107-.062-.19-.07-.254-.005-.064.004-.11.028-.143.023-.03.057-.056.1-.075.126-.055.236-.132.326-.234.092-.1.16-.238.202-.413.043-.176.062-.392.057-.648-.005-.255-.042-.565-.11-.928-.068-.365-.17-.79-.3-1.277-.134-.486-.302-1.047-.504-1.682-.072-.186-.093-.34-.06-.46.03-.12.122-.213.278-.28l3.463-1.51c.157-.07.293-.075.407-.02.115.057.213.176.293.36l2.463 5.646zM121.847 100.717c.103.2.134.37.095.51-.04.142-.138.252-.294.332l-3.526 1.817c.126.247.27.456.433.627.162.17.344.294.544.37.2.074.42.096.658.066.24-.03.5-.118.78-.263.287-.147.527-.297.723-.45.197-.152.36-.294.492-.425.133-.13.24-.244.324-.34.082-.094.156-.158.22-.19.04-.022.076-.03.11-.03.034.003.07.02.107.05.037.03.077.078.12.146.044.068.093.156.15.264.05.096.09.178.12.247.03.07.053.13.068.182.017.05.024.1.024.14 0 .042-.007.084-.02.13s-.068.125-.168.242c-.098.116-.23.25-.4.4-.17.15-.37.308-.603.474-.233.166-.49.323-.777.47-.516.266-1 .434-1.455.504s-.878.04-1.275-.09c-.395-.132-.76-.365-1.096-.702-.337-.337-.644-.776-.923-1.318-.266-.515-.438-1.014-.517-1.496-.078-.483-.064-.934.043-1.354.107-.42.305-.8.593-1.14.287-.34.66-.628 1.12-.865.485-.25.936-.392 1.354-.426.42-.033.802.02 1.154.158.352.14.67.356.95.65.283.292.53.642.74 1.05l.133.26zm-1.826.35c-.223-.467-.5-.78-.832-.94-.332-.16-.704-.136-1.115.077-.208.107-.37.24-.483.396-.113.157-.187.328-.22.513-.035.185-.032.38.006.587.04.21.107.417.203.624l2.44-1.258zM130.04 99.925c.02.033.027.068.018.105-.01.037-.038.08-.088.13-.05.05-.123.11-.22.18-.098.07-.224.15-.378.245-.175.106-.32.188-.44.248-.117.06-.213.102-.288.128-.077.027-.137.034-.184.022-.047-.01-.092-.033-.133-.065l-1.324-1.02c-.17-.14-.33-.25-.475-.327-.146-.077-.285-.125-.417-.145-.13-.02-.26-.012-.393.024-.132.036-.27.1-.416.187l-.318.192 1.375 2.277c.017.03.02.066.006.11-.012.045-.044.097-.093.155-.05.06-.122.124-.216.195-.094.07-.212.15-.354.234-.146.09-.272.16-.38.208-.105.05-.196.084-.27.1-.076.018-.135.02-.18.01-.043-.01-.073-.03-.09-.06l-3.41-5.65c-.017-.028-.02-.064-.01-.107.01-.044.04-.094.093-.15.05-.056.123-.12.217-.19.094-.072.214-.15.36-.24.14-.085.265-.153.372-.203.106-.05.197-.084.27-.104.074-.018.134-.023.18-.014.044.01.077.028.094.057l1.31 2.172.32-.194c.13-.078.236-.164.322-.26.084-.093.148-.202.19-.327.042-.125.062-.27.062-.435 0-.165-.02-.357-.062-.577l-.256-1.485c-.013-.05-.014-.098-.004-.147.01-.05.04-.1.09-.156.048-.056.124-.12.225-.19.102-.074.24-.164.416-.27.152-.092.28-.164.384-.215.103-.05.188-.085.254-.102.067-.018.117-.02.152-.01.035.01.062.032.082.065.026.04.046.097.066.165.018.068.037.165.056.29l.197 1.332c.042.266.058.502.05.71-.01.207-.035.39-.08.547-.044.157-.1.297-.17.418-.068.122-.142.228-.217.32l.008.01c.162-.022.32-.037.47-.042.15-.006.306.01.468.05.163.038.336.102.52.194.182.09.383.214.6.367l1.3.92c.058.04.107.076.144.107.04.03.072.06.098.085.03.026.05.05.064.068.015.02.027.04.037.055M134.346 95.57c.073.104.13.193.173.267.042.074.075.14.1.193.022.056.037.102.044.142s.002.1-.013.18c-.015.078-.058.192-.128.338-.07.147-.16.298-.272.453s-.243.31-.395.462c-.15.154-.32.295-.503.423-.41.287-.82.477-1.227.57s-.805.092-1.195-.007c-.39-.098-.766-.29-1.127-.572-.36-.283-.702-.656-1.025-1.12-.374-.535-.63-1.044-.768-1.527-.138-.482-.176-.935-.114-1.358.06-.423.212-.81.453-1.163s.557-.667.948-.94c.16-.11.326-.206.5-.286.173-.08.343-.14.51-.187.168-.045.325-.075.473-.09.15-.013.26-.013.335 0 .075.014.13.03.17.046.04.017.08.047.123.088s.093.095.148.16c.055.067.116.15.186.25.162.23.255.408.28.53.027.12.008.204-.057.25-.067.046-.16.07-.274.065-.114-.002-.246-.002-.398.004-.15.002-.318.027-.502.07-.182.046-.373.138-.573.277-.39.273-.586.633-.583 1.08.003.446.207.96.614 1.545.2.287.404.523.61.706.205.184.41.314.615.39.205.077.41.1.615.066.205-.033.41-.122.614-.264.208-.144.365-.3.47-.467.11-.166.19-.326.25-.48.06-.154.104-.29.137-.403.032-.115.074-.19.127-.227.035-.025.072-.036.11-.033.037.004.082.027.134.07s.112.106.18.185c.065.078.144.183.236.315"/></svg>