<svg xmlns="http://www.w3.org/2000/svg" width="1145.9" height="763.37" viewBox="0 0 1145.9 763.37"><path opacity=".6" fill="#FFF" d="M500.015 593.17l-36-2.5v-1.084l-13.5-.916-3.833.666-41.583-3.083-.085-1.167-14.416-1.25-3.335.917-45.083-3.583-10.667.166-41.333 9.667-6.833-.333-10.168.166-32 7.334-.083 3.833-53.918 12.333-5.917-.25-8.083.167-21.333 5.083-.085 3-12.166 2.834.624-22.084 12.79-3.583v-3.917l20.918-6.166 7.833-.25 5.667.583 54.917-15.5.25-4.333 31.332-9.5 9.583-.334 7.084.75 41.165-11.666 10.584-.334 45 4.167 3.415-1 14.167 1.5-.083 1.083 42.165 3.917 3.417-.75 13.583 1v.833l36 4"/><path opacity=".6" fill="#FFF" d="M499.932 561.753l-35.667-3.583-.25-1.063-13.5-1.13-3.833.82-41.583-3.802-.085-1.44-14.416-1.542-3.335 1.13-45.083-4.42-10.667.206-41.333 11.924-6.417-.6-9.583.166-32.167 9.166v4.834l-54 15.458-5.833-.292h-7.833l-21.918 6.292-.167 4.104-11.916 3.386.415-21.766 12.084-4.258.25-4.754 21.332-7.418 7.833-.25 6.084.332 54.603-18.23.062-5.125 30.917-11.774 9.583-.41 7.688.745 40.562-14.212 10.584-.412 45 5.14 3.415-1.233 14.167 1.85-.083 1.337 42.165 4.83 3.417-.924 13.583 1.234v1.028l36 4.934"/><path opacity=".6" fill="#FFF" d="M499.745 529.785l-35.73-4.51v-1l-12.687-1.357-3.74.978-41.536-4.52-.06-1.71-14.405-1.834-3.327 1.344-45.08-5.254-10.666.245-41.333 14.172-6.415-.715-9.583.198-33.042 11.388-.062 5.564-53.563 18.625-5.625-.5-8.187.31-21.688 7.75-.125 4.69-12.5 4.436.375-22.625 12.938-4.75.062-5.436 21.563-8.75 7.562-.25 5.875.562 54.5-21.562-.125-6.438 31.792-13.017 9.583-.49 7.063.694 41.187-16.7 10.584-.488 45 6.11 3.415-1.467 14.167 2.198-.083 1.59 42.165 5.74 3.417-1.098 13.583 1.466.125 2.085 34.782 5.002"/><path opacity=".6" fill="#FFF" d="M500.14 498.336l-36.125-5.322v-1.167l-12.687-1.582-3.74 1.14-41.536-5.273-.06-1.996-14.405-2.138-3.327 1.568-45.08-6.13-10.666.286-41.333 16.535-6.415-.834-9.583.23-33.042 13.288-.062 6.49-53.563 21.73-5.625-.584-8.187.365-21.688 9.042-.125 5.47-12.5 5.176.375-22.396 12.938-5.54.062-6.345 21.563-10.208 7.562-.293 5.75.656 54.25-24.417.125-7.5 32.625-15.125 9.563-.374 6.53.75 42.017-18.43 10.59-.57 44.05 6.5 3.5-1.375 13.75 2 .375 2.376 41.5 6 3.875-1 13.375 2 .375 2.25 34.875 5.125"/><path opacity=".6" fill="#FFF" d="M501.14 466.54l-36.125-6.14v-1.345l-12.687-1.824-3.74 1.316-41.536-6.083-.06-2.3-14.405-2.467-3.327 1.808-45.08-7.07-10.666.33-41.333 19.07-6.415-.962-9.583.267-33.042 15.322-.062 7.485-53.563 25.06-5.625-.672-8.187.42-21.688 10.428-.125 6.308-12.5 5.97.96-22.79 12.332-6.25.083-7.25 21.75-11.084 7.5-.416 5.75.75 54.167-27.584.083-8.583 32.625-16.936 9.563-.432 6.53.865 42.017-21.256 10.59-.658 44.05 7.497 3.5-1.586 13.75 2.307.375 2.74 41.5 6.92 3.875-1.154 12.46 2.36-.085 2.166 36.25 6.286"/><path opacity=".6" fill="#FFF" d="M500.765 435.274l-35.333-6.467-.167-2.054-11.937-2.58-4.896 1.413-41.083-7.25-.335-1.833-13.833-2.417-4.167 1.584-43.836-8.148-10.666.37-42.082 22.028-6.333-1.25-9.418.333-33.167 17.333.25 8.667-53.833 27.583-6-.666-7.23.238-22.103 11.845-.168 6.833-12 6.25.583-21.833 12-6.917.334-8 21.665-12.416 7.5-.417 6 .667 52.5-29.834v-9.266l32.625-19.06 10.542-1.007 6.5 1.083 41.068-23.51 10.59-.74 44.05 8.437 3.5-1.785 13.75 2.596.375 3.083 41.5 7.787 4.188-1.993 12.875 2.69.25 2.686 35.812 6.688"/><path opacity=".6" fill="#FFF" d="M500.765 403.99l-35.333-7.197-.167-2.285-11.937-2.872-5.146 2.2-41.167-8.083V383.1l-13.833-2.69-4.167 1.762-43.836-9.07-10.666.413-42.082 24.517-6.333-1.39-9.418.37-33.167 19.292.25 9.646-53.833 30.7-6-.74-7.23.265-22.103 13.183-.168 7.605-12 6.957.583-21.896 11.938-7.438.437-8.625 22.875-13.936 6.813-.188 6 .188 54.062-33.688.188-9.5 30.312-20.094 10.542-1.12 6.5 1.205 41.068-26.167 11.14-1.01 44.313 9.624 2.687-2.034 14.875 2.97.125 2.314 41.688 9.062 3.52-1.916 12.917 2.73-.187 3.592 35.812 7.444"/><path opacity=".6" fill="#FFF" d="M500.85 372.503l-35.5-7.833.082-2-13.667-2.75-3.333 1.583-41.333-8.75.082-2.833-13-2.9-4.167 1.926-43.836-9.913-10.666.45-42.082 26.8-13.417-2.947-35.5 22.92-.166 10.83-53.418 33.275-11.667-1.69-23.666 15.582-.168 8.314-12 7.604.583-21.917 9.584-6.25.332-9.667 26-17.75 11.583 1.667L242.1 371.67l.082-11.75 38.333-26.232 13.25 2.574 40.985-27.503 11.14-1.11 44.313 10.52 2.687-2.222 14.875 3.247-.166 2.725 41.415 8.917 3.167-1.917 13.833 3.598.084 3.235 34.915 8.167"/><path opacity=".6" fill="#FFF" d="M500.85 341.712l-35.5-8.463.082-2.16-13.667-2.972-3.333 1.71-41.333-9.452.082-3.06-13-3.135-4.167 2.082-43.836-10.71-10.666.488-42.082 28.952-13.417-3.183-38 26.693-.25 11.25-50.833 34.464-10.833-2.13-26.418 19.166-.25 9.083-10.167 6.5.834-21.416 10-7.417.082-10.25 25.75-19.38 11.583 1.8 50.584-37.36.082-12.695 38.333-28.34 13.25 2.782 40.985-29.712 11.14-1.197 44.313 11.366 2.687-2.402 14.875 3.51-.166 2.942 41.415 9.633 3.167-2.072 13.833 3.887.084 3.495 34.915 8.823"/><path opacity=".6" fill="#FFF" d="M500.85 310.55l-35.5-9.188.082-2.346-13.667-3.225-3.333 1.858-41.333-10.264.082-3.323-13-3.402-4.167 2.26-43.836-11.628-10.666.528-41.582 30.518-13.167-2.416-38.333 29-.167 12.333-51.333 37.166-10.833-2.315-25.835 20.398-.25 9.833-9.916 7.5.5-21.833 10.165-7.917.25-11.083 25.917-20.833 11.25 2.333 50.75-40.25.25-13.167 38.167-31.25 12.915 3.25 40.485-32.136 11.14-1.3 44.313 12.34 2.687-2.607 14.875 3.81-.166 3.195 41.415 10.46 3.167-2.25 13.833 4.222.084 3.795 34.915 9.58"/><path opacity=".6" fill="#FFF" d="M500.85 278.52l-34.5-8.96.082-2.545-13.667-3.497-3.333 2.013-41.333-11.127.082-3.603-14.542-3.714-3.375 2-44.25-11.875-9.5.876-41.75 32.875-13-2.966-38.333 31.442-.167 13.372-51.333 40.295-10.833-2.508-25.835 22.115-.25 10.662-9.916 8.13.79-22.79 10-8.626.5-12.375 25.125-21.624 11.625 2.25 50.75-42.875.25-14.25 37.75-32.874 13.375 3.566 40.485-34.842 11.14-1.41 44.313 13.38 2.687-2.828 14.875 4.13-.166 3.466 41.415 11.34 3.355-2.438 12.645 3.886v4.25l35.188 9.94"/><path opacity=".6" fill="#CAF700" d="M501.015 248.836l-34.708-10.41-.062-3.506-13.49-3.667-3.328 2.903-41.33-11.802.084-3.82-14.54-3.94-3.375 2.122-44.25-12.594-9.5.928-41.75 34.865-13-3.147-38.333 33.345-.167 14.182-51.333 42.734-10.833-2.66-25.835 23.453-.25 11.306-9.916 8.623.832-22 9.833-8.917.417-12.583 25.75-24 11.167 2.833 50.665-45.583.25-15.333 38.417-35.334 12.917 3.584 41.165-36.75 10.334-1.25 44.082 13.333 3.167-2.833 14.915 4.75v3.666l41 12.417 3.25-2.5 12.792 4.333.063 3.75 34.895 10.75"/><path opacity=".6" fill="#CAF700" d="M501.39 218.024l-35-11.063-.125-3.374-13.187-4.187-3.313 2.374-40.67-12.224.086-4.066-14.54-4.19-3.375 2.256-44.25-13.4-9.5.988-41.75 37.096-13-3.348-38.333 35.48-.167 15.088-51.333 45.47-10.833-2.832-25.835 24.955-.25 12.03-9.916 9.176.728-21.48 9.937-9.5.063-12.937 25.437-25.375 11.063 2.75 51-49.06.5-15.25 38-37.75 12.625 3.624 41.937-38.813 9.688-1.374 44.5 14.375 3.312-2.874 13.813 5 .187 3.375 40.75 13.314 3.313-2.063 13.187 4.126-.062 3.625 35.125 11.376"/><path opacity=".6" fill="#FFF" d="M500.015 622.07l-36-1.986v-.86l-13.5-.73-3.833.53-41.583-2.45-.085-.928-14.416-.993-3.335.73-45.083-2.85-10.667.133-41.333 7.683-6.833-.266-10.324.132-35.01 5.683v3l-50.99 9.993-5.84-.198-8.043.132-21.314 4.04-.074 2.384-12.162 2.253.627-20.55 12.795-2.85v-3.112l20.917-4.9 7.833-.198 5.667.463 54.917-12.32.25-3.442 31.332-7.55 9.583-.266 7.084.597 41.165-9.273 10.584-.264 45 3.312 3.415-.795 14.167 1.192-.083.86 42.165 3.114 3.417-.597 13.583.795v.662l36 3.18"/><path opacity=".6" fill="#74C7FF" d="M499.828 657.46l-158.313-5.81-10.187.25-42.125 4.5-6.875.124-9.813.062-31.312 2.75-.125 2.438-54.938 5.75-5.625-.313-7.593.126-21.907 2.375v1.75l-11.937 1.376.937-22.437 11.875-2.564.125-1.75 20.375-3.75 8.563.125 5.625.314 54.937-9.563-.125-2.374 30.625-5.437 10.813-.25 6.437.405 41.188-6.97h11.437l45.46 2.52 3.415-.52 14.167.874-.083.625 42.165 2.226 3.417-.42 13.583.57.188.75 35.812 1.99"/><path opacity=".6" fill="#74C7FF" d="M499.265 689.67l-158.25-2.834-10.666.084-191.5 10.166.665-22.875 11.917-1.25-.042-1.5 21.167-2.332 7.833-.083 5.96.208 54.832-6.042.208-1.707 30.625-3.323 10.813-.168 6.437.274 41.188-4.7h11.437l158.125 5.808"/><path opacity=".6" fill="#74C7FF" d="M499.265 727.68l-158.375-.47-12.125.25-190.375-2.374 1-26.75 191.063-9.75h11.437l157.782 3.094"/><path opacity=".6" fill="#FFF" d="M847.516 580.67l25 2.625 4.583-.688 9 .854.082 1.46 21.584 2.29 4.625-.957 7.584.958.083 1.293 18.75 2.042-.5-24.167-18.416-2.125-.208-2-7.833-1.083-4.5 1.04-21.418-2.582-.54-1.875-8.085-.958-4.708 1.208-25.668-3.458-26.75 3.833-4.364-.625-9.568.333-124.234 18.667v1.833l-16.042 2.625-.167 9.293-37.625 5.25.084 1.833-31 3.71-3.98-.376-7.302.333-43.01 5.917.042 1.208-10.834 1.375.084 17.667 10.75-1.417.29-1.25 43.71-5.208 6.625.083 3.376.125 30.666-3.25.75-1.27 37.167-4.282.082-8.265 16.667-1.84.582-1.92 124-15.337 9.084-.25 4.583.332"/><path opacity=".6" fill="#FFF" d="M847.516 609.01l25 2.156 4.583-.565 9 .703.082 1.198 21.584 1.884 4.625-.787 7.584.787.083 1.06 18.75 1.68-.5-24.857-18.416-1.746-.208-1.642-7.833-.89-4.5.856-21.418-2.123-.54-1.54-8.085-.787-4.708.993-25.668-2.84-26.75 3.148-4.364-.513-9.568.275-124.234 15.336v1.508l-16.042 2.156-.167 7.635-37.625 4.312.084 1.506-31 3.047-3.98-.308-7.302.274-43.01 4.862.042.993-10.834 1.13.21 17.952 10.75-1.164.124-.92 43.875-4.01 6.626.068 3.5-.022 30.666-2.67.563-1.232 37.166-3.517.147-5.98 16.667-1.512.458-.89 124-12.6 9.084-.207 4.583.274"/><path opacity=".6" fill="#FFF" d="M848.266 633.586l24.25 1.93 4.583-.454 43.957 2.888 17.71 1.636-.46-21.238-18.416-1.402-.208-1.318-7.833-.715-4.5.687-21.418-1.703-.54-1.237-8.085-.632-4.708.797-25.668-2.28-26.75 2.527-4.364-.412-9.568.22-124.234 12.31v1.208l-16.042 1.73-.167 6.128-37.625 3.462.084 1.208-31 2.446-3.98-.248-7.302.22-43.01 3.902.042.796-10.834.907.21 15.407 10.75-.934.124-.738 43.875-3.22 6.626.055 3.5-.017 30.666-2.144.563-.99 37.166-1.822.147-4.798 16.667-1.214.458-.715 124.084-9.984 9.75-.375 4.625.25"/><path opacity=".6" fill="#74C7FF" d="M848.266 664.583l90.5 4.437-.46-24.705-90.165-5.73-27.374 1.876-3.625-.124-9.624.25-125.5 8.787v.894l-16.042 1.28-.167 4.53-37.625 2.56.084.894-31 1.81-3.98-.183-7.302.162-43.01 2.884.042.59-10.834.67.584 17.122 61-2.75 3.625-.25 31.626-1v-.5l37.5-1.75.062-3.125 140.47-6.963 9.733-.278 4.618.184"/><path opacity=".6" fill="#74C7FF" d="M848.85 692.92l90.166 1.833-.71-24.404-89.79-4.14-28.334 1.567-4.364-.2-9.568.107-124.234 6v.59l-16.042.845-.167 2.986-37.625 1.688.084.59-31 1.192-3.98-.12-7.302.107-43.01 1.902.042.388-9.667.483.082 17.584"/><path opacity=".6" fill="#74C7FF" d="M850.266 728.753l89.54-3.167-.645-29.166-90.322-1.875-314.822 9.04v16.168"/><path opacity=".6" fill="#FFF" d="M847.516 552.972l25 3.158 4.583-.827 9 1.028.082 1.755 21.584 2.757 4.625-1.153 7.584 1.152.083 1.554 18.75 2.456-.5-24.072-18.416-2.556-.208-2.406-7.833-1.304-4.5 1.254-21.418-3.108-.54-2.256-8.085-1.153-4.708 1.455-25.668-4.16-26.75 4.61-4.364-.75-9.568.4-123.734 21.78-.334 2.418-16.166 2.75-.167 10.917-37.668 6.083-.083 1.833-30.918 4.834-3.583-.417-7.084.167-43.25 7-.25 1.666-10.834 1.834.084 17.54 10.75-1.703.29-1.503 43.71-6.266 6.625.1 3.376.15 30.666-3.91.75-1.528 37.167-5.15.082-9.943 16.667-2.215.582-2.31 124-18.45 9.084-.3 4.583.4"/><path opacity=".6" fill="#FFF" d="M846.516 525.395l25 3.686 4.583-.964 9 1.2.082 2.047 21.584 3.218 4.625-1.345 7.584 1.346.083 1.815 18.75 2.867-.54-24.55-18.44-3-.145-2.343-7.833-1.522-4.5 1.463-21.418-3.627-.54-2.633-8.085-1.346-4.708 1.697-25.668-4.855-26.75 5.383-4.364-.878-9.568.468-122.484 24.818-.438 2.688-16.75 3.312.125 12.813-37.25 6.686-.75 2.063-30.5 5.624-3.5-.438-6.812.25-43.374 8.063-.063 1.56-10.375 2.314-.312 17.25 10.562-2.188.125-1.312 43.625-7 6.438-.25 3.687.437 30.563-4.874.437-1.687 37.813-6.376v-11.25l15.937-2.438.625-2.375 123.385-21.717 9.068-.352 4.577.468"/><path opacity=".6" fill="#FFF" d="M846.516 497.384l25 4.234 4.583-1.11 9 1.38.082 2.35 21.584 3.698 4.625-1.546 7.584 1.546.083 2.083 18.75 3.292-.73-24.226-19.06-3.5v-2.437l-7.72-1.69-4.235 1-21.836-3.81.145-1.93-8.073-1.546-4.974 1.225-25.393-4.855-26.79 5.666-4.374-.936-9.188.437-123 27.814.03 3.062-16.592 3.688v14l-37.813 7.687-.062 2.5-31.187 6.19-3.625-.376-6.437.125-43.25 9.06-.124 2.25-10.313 2.064-.437 17.417 10.562-2.512.125-1.507 43.625-8.04 6.438-.287 3.687.503 30.563-5.6.437-1.938 37.813-7.322v-12.922l15.937-2.8.625-2.727 123.385-24.945 9.068-.405 4.577.536"/><path opacity=".6" fill="#FFF" d="M846.516 469.472l25 4.78 4.583-1.25 8.332 1.668.084 2.083 21.75 4.716 4-1.217 8.5 1.75-.188 1.708 19.23 3.747-.73-24.355-19.062-3.952v-2.752l-7.72-1.906-4.234 1.13-21.836-4.305.145-2.18-8.073-1.744-4.974 1.383-25.393-5.48-26.79 6.397-4.374-1.058-9.188.494-123 31.404.03 3.458-16.592 4.164v15.808l-37.813 8.68-.062 2.823-31.187 6.987-3.625-.423-6.437.142-43.25 9.233-.124 2.54-10.313 2.33-.437 17.666 10.562-2.836.125-1.703 43.625-9.077 6.438-.325 3.687.568 30.563-6.323.437-2.188 37.813-8.268v-14.59l15.937-3.162.625-3.08 123.385-28.168 9.068-.457 4.577.606"/><path opacity=".6" fill="#FFF" d="M845.516 442.31l25 5.3 4.583-1.388 9 1.725.082 2.944 21.5 4.363 4-1.333 8.292 1.597.083 2.608 18.75 4.12-1.125-24.325-18.666-4.05v-3.05l-7.72-2.113-4.234 1.25-21.836-4.77.145-2.415-8.073-1.935-4.974 1.533-25.224-5.867-25.96 6.884-4.374-1.173-9.188.548-124 33.81.03 3.834-16.592 4.615v17.524l-37.813 8.622-.062 3.13-30.187 7.743-3.625-.47-6.437.156-43.29 11.36-.75 2.25-9.584 2.834-.5 16.77 9.562-2.144.125-1.887 43.625-10.064 7.27-.593 3.918.5 29.5-6.646.437-2.426 37.813-9.164v-16.173l15.937-3.504.625-3.415 123.385-31.222 9.068-.507 4.577.67"/><path opacity=".6" fill="#FFF" d="M845.516 414.87l25 5.826 4.583-1.525 9 1.896.082 3.236 21.5 4.795 4-1.465 7.71 1.756.082 2.866 19.333 4.53-1.125-24.74-18.666-4.45v-3.355l-7.72-2.323-4.234 1.376-21.836-5.245.145-2.654-8.073-2.127-4.974 1.685-25.224-6.45-25.96 7.568-4.374-1.29-9.188.602-124 37.166.03 4.213-16.592 5.074v19.262l-37.813 9.477-.062 3.44-30.187 8.512-3.625-.516-6.437.17-43.29 12.488-.75 2.474-9.584 3.114-.5 16.435 9.562-2.357.125-2.074 43.625-11.063 7.27-.65 3.918.55 29.5-7.307.437-2.666 37.813-10.074v-17.778l15.937-3.852.625-3.753 123.385-34.32 9.068-.556 4.577.738"/><path opacity=".6" fill="#FFF" d="M844.516 387.357l26 6.374 4.583-1.668 9 2.074.082 3.54 20.834 4.66 4.666-1.016 7.584 2.016.25 3 18.5 4.667-1.084-24.167-18.666-5.333-.25-2.78-7.72-2.54-4.234 1.504-21.836-5.74.145-2.904-8.073-2.327-4.974 1.844-24.807-6.974-26.375 8.198-4.374-1.412-9.188.66-123 40.667.104 4.053-16.5 5.333-.25 20.584-37.083 10.916-.418 3.084-30.48 8.718-3.624-.565-6.437.188-43.29 13.666-.75 2.706-9.5 3.12-.584 17.272 10.333-2.854.332-2.5 43.917-12.417 6.082-.083 3.5.583 30.25-8.5.75-3.417 37.084-9.813V440.32l15.937-4.215.625-4.107 123.385-37.554 9.068-.61 4.577.808"/><path opacity=".6" fill="#FFF" d="M844.516 359.564l25.375 7.147 4.5-.874 8.25 2.25.376 2.375 21.5 6 4.5-1.374 7.5 2.25 1.125 2.75 17.5 4.875-.458-23.21-18.666-5.79-.5-3.02-7.72-2.758-3.61 1.634-21.835-6.23.02-3.28-8.073-2.526-5.474 2.128-24.807-7.572-26.625 8.625-4.124-.882-9.188.715-122.312 42.918-.084 4.26-16.875 6.04-.25 22.098-36.708 11.6-.293 3.724-30.48 9.464-3.874-.363-6.437.205-43.125 14.348.126 2.875-10.417 3.564-.584 17 10.333-3.1.332-2.713 43.917-13.48 6.082-.09 3.5.634 30.25-9.228.563-3.71 37.27-10.653v-21.12l15.75-4.575.72-4.46 123.432-40.77 9.09-.66 4.588.875"/><path opacity=".6" fill="#FFF" d="M843.516 332.505l25.375 7.698 4.5-1.742 8.626 2.376v3.405l21.5 6.463 4.625-1.367 7.75 2.25.75 3.02 17.5 5.25-.583-23.622-18.666-6.236.376-2.876-7.72-2.97-4.61 1.76-21.835-6.71.146-3.282-8.074-2.72-4.85 1.915-24.806-8.154-26.625 9.415-4.124-.95-8.938.644-122.312 46.22-.584 4.713-16.5 6.38-.5 23.42L627.6 409.3l-.293 3.883-31.23 10.755-2.686-.852-6.374.5-43.5 15-.375 3.262-9.916 3.602-.458 16.63 9.833-3.24 1.166-2.88 43.375-14.374 6-.125 3.876.626 29.166-9.442.75-3.996 38.084-11.723V394.18l16.062-5.178.625-4.802 122.26-43.408 9.068-.713 4.577.943"/><path opacity=".6" fill="#CAF700" d="M843.516 305.317l25.375 8.243 4.5-1.865 8.626 2.544v3.645l21.5 6.92 4.625-1.464 7.75 2.41.75 3.236 17.5 5.622-.833-23.465-17.958-6.557.25-3.2-7.72-3.182-4.698 1.716-22.08-7.85.144-3.515-8.147-2.47-4.918 2.25-24.833-8.665-26.5 10.25-4.168-1.084-8.833.5-122.334 48.878-.584 5.046-16.5 6.833-.5 25.082-36.333 13.38-.293 4.16-31.23 11.52-2.686-.914-6.374.537-43.5 16.064-.375 3.493-9.708 3.757-.25 17.166 10.084-3.666.5-3.142 43.375-15.395 6-.134 3.876.67 29.166-10.114.75-4.278 38.084-12.555v-24.358l16.062-5.545.625-5.142 122.26-46.487 9.068-.762 4.577 1.01"/><path opacity=".6" fill="#CAF700" d="M842.516 277.978l25.375 8.778 4.5-1.986 8.626 2.708v3.883l21.5 7.37 4.625-1.56 7.71 3 .79 3.01 17.5 5.987-.75-23.152-17.374-6.845v-2.584l-8-3-3.542 1.312-22.417-8.395-.187-3-8.01-3.083-4.235 1.728-25.763-8.978-26.923 11.25-3.42-1.167-9.586.626-122.584 52.043-.334 4.873-15.5 7.192-.21 25.932-36.186 14.666-.22 4.334-31.067 11.916-3.242-.916-6.328.333-43.332 17-.25 4-10.415 4.083.084 16.667 9.666-3.833v-3.584l44.166-16.083 6-.25 3.46.833 30.52-11.416.426-4.25 37.428-13.513V347.97l16.104-5.82.52-5.475 121.376-49.248 9.04-.813 4.564 1.076"/></svg>