<?xml version="1.0" encoding="utf-8"?>
<!-- Generator: Adobe Illustrator 19.2.0, SVG Export Plug-In . SVG Version: 6.00 Build 0)  -->
<!DOCTYPE svg PUBLIC "-//W3C//DTD SVG 1.1//EN" "http://www.w3.org/Graphics/SVG/1.1/DTD/svg11.dtd">
<svg version="1.1" id="Layer_1" xmlns="http://www.w3.org/2000/svg" xmlns:xlink="http://www.w3.org/1999/xlink" x="0px" y="0px"
	 width="185px" height="108px" viewBox="0 0 79.043 46.64" enable-background="new 0 0 79.043 46.64" xml:space="preserve">
<polygon fill="#FFFFFF" points="79.043,0 79.043,28.852 29.601,46.64 0,35.877 0,0 "/>
<polygon points="31.563,13.391 16.84,8.026 5.579,12.129 5.579,30.854 20.304,36.22 31.563,32.117 31.563,32.117 31.563,13.391 
	31.563,13.391 "/>
<polygon fill="#FFFFFF" points="18.396,27.295 20.303,28.006 20.303,24.751 18.396,24.04 18.396,20.373 15.536,19.306 
	15.536,30.606 18.396,31.673 "/>
<polygon fill="#BDBCBC" points="22.211,27.295 20.303,28.006 20.303,24.751 22.211,24.04 22.211,20.373 25.071,19.306 
	25.071,30.606 22.211,31.673 "/>
<g>
	<g>
		<path d="M38.152,21.761h-0.738v-5.159h0.738v2.065h2.441v-2.065h0.738v5.159h-0.738v-2.405h-2.441V21.761z"/>
		<path fill="#0B0B0A" d="M41.379,21.809h-0.833v-2.405H38.2v2.405h-0.833v-5.253H38.2v2.065h2.346v-2.065h0.833V21.809z
			 M40.641,21.714h0.644V16.65h-0.644v2.065h-2.536V16.65h-0.643v5.064h0.643v-2.405h2.536V21.714z"/>
	</g>
	<g>
		<path d="M45.022,21.658c-0.38,0.118-0.914,0.207-1.264,0.207c-1.096,0-1.761-0.459-1.761-1.998c0-1.488,0.606-1.961,1.696-1.961
			c1.111,0,1.601,0.414,1.564,2.124h-2.522c0.007,1.007,0.351,1.221,1.104,1.221c0.263,0,0.753-0.074,1.052-0.178L45.022,21.658z
			 M42.742,19.459h1.827c-0.037-0.799-0.249-0.969-0.848-0.969C43.049,18.49,42.801,18.712,42.742,19.459z"/>
		<path fill="#0B0B0A" d="M43.758,21.912c-1.251,0-1.809-0.631-1.809-2.046c0-1.408,0.521-2.009,1.743-2.009
			c0.572,0,0.937,0.113,1.184,0.365c0.315,0.322,0.447,0.879,0.427,1.807l-0.001,0.046h-2.52c0.018,0.956,0.357,1.126,1.056,1.126
			c0.251,0,0.739-0.072,1.037-0.175l0.05-0.017l0.153,0.679l-0.042,0.013C44.647,21.824,44.11,21.912,43.758,21.912z M43.692,17.953
			c-1.155,0-1.648,0.572-1.648,1.914c0,1.368,0.513,1.951,1.714,1.951c0.331,0,0.831-0.08,1.209-0.192l-0.111-0.491
			c-0.312,0.099-0.767,0.164-1.018,0.164c-0.741,0-1.143-0.202-1.151-1.268l0-0.048h2.523c0.014-0.872-0.11-1.395-0.401-1.692
			C44.581,18.057,44.236,17.953,43.692,17.953z M44.619,19.507h-1.928l0.004-0.051c0.059-0.757,0.318-1.013,1.027-1.013
			c0.658,0,0.859,0.228,0.895,1.015L44.619,19.507z M42.794,19.412h1.726c-0.042-0.741-0.25-0.875-0.798-0.875
			C43.079,18.537,42.856,18.743,42.794,19.412z"/>
	</g>
	<g>
		<path d="M45.863,19.867c0-1.532,0.563-1.961,1.725-1.961c1.169,0,1.725,0.429,1.725,1.961c0,1.539-0.548,1.998-1.725,1.998
			C46.418,21.865,45.863,21.406,45.863,19.867z M46.594,19.881c0,1.125,0.241,1.384,0.994,1.384c0.753,0,0.994-0.259,0.994-1.384
			c0-1.177-0.241-1.377-0.994-1.377C46.835,18.505,46.594,18.705,46.594,19.881z"/>
		<path fill="#0B0B0A" d="M47.588,21.912c-1.275,0-1.772-0.574-1.772-2.046c0-1.445,0.497-2.009,1.772-2.009
			c1.292,0,1.772,0.544,1.772,2.009C49.36,21.339,48.863,21.912,47.588,21.912z M47.588,17.953c-1.036,0-1.678,0.32-1.678,1.914
			c0,1.422,0.455,1.951,1.678,1.951c1.036,0,1.678-0.326,1.678-1.951C49.265,18.453,48.826,17.953,47.588,17.953z M47.588,21.313
			c-0.808,0-1.041-0.321-1.041-1.431c0-1.209,0.273-1.424,1.041-1.424s1.041,0.215,1.041,1.424
			C48.629,20.992,48.395,21.313,47.588,21.313z M47.588,18.552c-0.722,0-0.947,0.183-0.947,1.329c0,1.135,0.248,1.337,0.947,1.337
			s0.946-0.202,0.946-1.337C48.534,18.735,48.31,18.552,47.588,18.552z"/>
	</g>
	<g>
		<path d="M53.149,18.009h1.016v3.752h-0.68v-3.027c-0.402,0.866-0.84,1.939-1.14,2.783h-0.57c-0.314-0.859-0.738-1.939-1.111-2.783
			v3.027h-0.687v-3.752h1.052c0.387,0.829,0.738,1.65,1.074,2.509C52.433,19.645,52.769,18.83,53.149,18.009z"/>
		<path fill="#0B0B0A" d="M54.213,21.809h-0.774v-2.858c-0.373,0.82-0.767,1.79-1.048,2.582l-0.011,0.031h-0.637l-0.011-0.031
			c-0.327-0.892-0.7-1.835-1.019-2.572v2.848H49.93v-3.847h1.13l0.013,0.027c0.366,0.783,0.703,1.568,1.031,2.397
			c0.33-0.87,0.65-1.635,1.003-2.397l0.013-0.027h1.094V21.809z M53.533,21.714h0.585v-3.658H53.18
			c-0.362,0.785-0.69,1.573-1.031,2.478l-0.043,0.115l-0.045-0.115c-0.337-0.86-0.684-1.671-1.06-2.479h-0.975v3.658h0.592V18.51
			l0.091,0.205c0.334,0.756,0.745,1.784,1.101,2.755h0.504c0.305-0.853,0.736-1.906,1.131-2.755l0.09-0.195V21.714z"/>
	</g>
	<g>
		<path d="M57.776,21.658c-0.38,0.118-0.914,0.207-1.264,0.207c-1.096,0-1.761-0.459-1.761-1.998c0-1.488,0.607-1.961,1.696-1.961
			c1.111,0,1.601,0.414,1.564,2.124h-2.521c0.007,1.007,0.351,1.221,1.104,1.221c0.263,0,0.753-0.074,1.052-0.178L57.776,21.658z
			 M55.495,19.459h1.827c-0.036-0.799-0.248-0.969-0.848-0.969C55.802,18.49,55.554,18.712,55.495,19.459z"/>
		<path fill="#0B0B0A" d="M56.511,21.912c-1.251,0-1.809-0.631-1.809-2.046c0-1.408,0.521-2.009,1.743-2.009
			c0.572,0,0.937,0.113,1.184,0.365c0.315,0.322,0.447,0.879,0.427,1.807l-0.001,0.046h-2.52c0.018,0.956,0.357,1.126,1.056,1.126
			c0.251,0,0.739-0.072,1.037-0.175l0.05-0.017l0.153,0.679l-0.042,0.013C57.4,21.824,56.863,21.912,56.511,21.912z M56.445,17.953
			c-1.155,0-1.648,0.572-1.648,1.914c0,1.368,0.513,1.951,1.714,1.951c0.331,0,0.831-0.08,1.209-0.192l-0.111-0.491
			c-0.312,0.099-0.767,0.164-1.018,0.164c-0.741,0-1.143-0.202-1.151-1.268l0-0.048h2.523c0.014-0.872-0.11-1.395-0.401-1.692
			C57.334,18.057,56.989,17.953,56.445,17.953z M57.372,19.507h-1.928l0.004-0.051c0.059-0.757,0.318-1.013,1.027-1.013
			c0.658,0,0.859,0.228,0.895,1.015L57.372,19.507z M55.547,19.412h1.726c-0.042-0.741-0.25-0.875-0.798-0.875
			C55.832,18.537,55.609,18.743,55.547,19.412z"/>
	</g>
	<g>
		<path d="M60.458,21.761h-0.694v-3.131h-1.367v-0.622h3.42v0.622h-1.359V21.761z"/>
		<path fill="#0B0B0A" d="M60.505,21.809h-0.789v-3.131h-1.367v-0.716h3.515v0.716h-1.36V21.809z M59.811,21.714h0.6v-3.131h1.359
			v-0.527h-3.326v0.527h1.367V21.714z"/>
	</g>
	<g>
		<path d="M62.409,18.187c0.402-0.17,1.067-0.281,1.557-0.281c1.184,0,1.725,0.437,1.725,1.969s-0.57,1.991-1.644,1.991
			c-0.468,0-0.76-0.133-0.95-0.266v1.584h-0.687V18.187z M63.096,20.799c0,0.289,0.395,0.451,0.87,0.451
			c0.753,0,1.001-0.281,1.001-1.362c0-1.155-0.249-1.362-1.001-1.362c-0.307,0-0.636,0.045-0.87,0.133V20.799z"/>
		<path fill="#0B0B0A" d="M63.143,23.23h-0.782v-5.074l0.029-0.012c0.39-0.165,1.052-0.285,1.575-0.285
			c1.292,0,1.772,0.546,1.772,2.016c0,1.448-0.49,2.038-1.692,2.038c-0.357,0-0.654-0.074-0.903-0.226V23.23z M62.456,23.135h0.592
			v-1.627l0.075,0.052c0.248,0.174,0.549,0.258,0.923,0.258c1.149,0,1.597-0.545,1.597-1.944c0-1.418-0.439-1.921-1.677-1.921
			c-0.499,0-1.127,0.111-1.51,0.265V23.135z M63.966,21.298c-0.549,0-0.917-0.2-0.917-0.499v-2.172l0.031-0.012
			c0.225-0.085,0.556-0.136,0.887-0.136c0.774,0,1.049,0.213,1.049,1.409C65.014,20.969,64.77,21.298,63.966,21.298z M63.143,18.693
			v2.106c0,0.238,0.338,0.404,0.822,0.404c0.749,0,0.954-0.282,0.954-1.314c0-1.133-0.227-1.315-0.954-1.315
			C63.661,18.574,63.357,18.619,63.143,18.693z"/>
	</g>
	<g>
		<path d="M68.76,19.141c-0.512,0.91-1.155,1.836-1.754,2.62h-0.694v-3.752h0.694v2.724c0.599-0.785,1.213-1.776,1.754-2.724h0.687
			v3.752H68.76V19.141z"/>
		<path fill="#0B0B0A" d="M69.494,21.809h-0.782V19.32c-0.553,0.958-1.207,1.865-1.669,2.47l-0.014,0.019h-0.765v-3.847h0.789v2.63
			c0.5-0.67,1.06-1.545,1.666-2.606l0.014-0.024h0.762V21.809z M68.808,21.714H69.4v-3.658h-0.612
			c-0.637,1.114-1.223,2.024-1.744,2.705l-0.085,0.111v-2.816h-0.6v3.658h0.623c0.485-0.635,1.174-1.595,1.736-2.596l0.089-0.158
			V21.714z"/>
	</g>
	<g>
		<path d="M70.229,19.104c0-0.592,0.27-1.095,1.169-1.095h2.01v3.752h-0.694v-1.458h-0.621c-0.534,0-0.811,0.207-1.323,1.458h-0.782
			c0.592-1.347,0.863-1.591,1.308-1.658C70.499,20.089,70.229,19.637,70.229,19.104z M72.714,18.601h-1.199
			c-0.366,0-0.541,0.133-0.541,0.555c0,0.392,0.175,0.577,0.563,0.577h1.177V18.601z"/>
		<path fill="#0B0B0A" d="M73.456,21.809h-0.789v-1.458h-0.574c-0.521,0-0.779,0.207-1.279,1.429l-0.012,0.029h-0.886l0.029-0.066
			c0.477-1.085,0.748-1.469,1.084-1.615c-0.73-0.121-0.847-0.678-0.847-1.023c0-0.521,0.211-1.143,1.217-1.143h2.057V21.809z
			 M72.761,21.714h0.6v-3.658h-1.963c-0.745,0-1.122,0.353-1.122,1.048c0,0.426,0.177,0.936,1.021,0.952l0.006,0.094
			c-0.398,0.059-0.653,0.235-1.243,1.564h0.678c0.509-1.237,0.799-1.458,1.355-1.458h0.669V21.714z M72.761,19.781h-1.224
			c-0.411,0-0.61-0.204-0.61-0.625c0-0.422,0.176-0.602,0.588-0.602h1.246V19.781z M71.515,18.648c-0.364,0-0.494,0.133-0.494,0.508
			c0,0.366,0.159,0.53,0.516,0.53h1.129v-1.038H71.515z"/>
	</g>
</g>
<g>
	<g>
		<path fill="#706F6F" d="M38.92,26.602c-0.146,0.065-0.389,0.108-0.554,0.108c-0.604,0-0.939-0.239-0.939-1.035
			c0-0.793,0.339-1.016,0.939-1.016c0.162,0,0.416,0.042,0.554,0.096l-0.081,0.235c-0.139-0.065-0.312-0.092-0.474-0.092
			c-0.454,0-0.662,0.123-0.662,0.785c0,0.631,0.208,0.789,0.662,0.789c0.166,0,0.335-0.038,0.474-0.1L38.92,26.602z"/>
		<path fill="#706F6F" d="M40.181,26.656h-0.25v-1.713h-0.762v-0.231h1.774v0.231h-0.762V26.656z"/>
		<path fill="#706F6F" d="M41.523,26.548v0.847h-0.25v-2.583c0.212-0.096,0.551-0.154,0.785-0.154c0.6,0,0.881,0.223,0.881,1.016
			c0,0.797-0.277,1.035-0.881,1.035C41.781,26.71,41.62,26.625,41.523,26.548z M41.523,24.978v1.216
			c0,0.181,0.246,0.277,0.535,0.277c0.454,0,0.604-0.158,0.604-0.789c0-0.662-0.15-0.785-0.604-0.785
			C41.87,24.897,41.674,24.924,41.523,24.978z"/>
		<path fill="#706F6F" d="M43.346,25.675c0-0.793,0.281-1.016,0.881-1.016c0.604,0,0.885,0.223,0.885,1.016
			c0,0.797-0.277,1.035-0.885,1.035C43.624,26.71,43.346,26.471,43.346,25.675z M43.624,25.682c0,0.631,0.15,0.789,0.604,0.789
			c0.458,0,0.608-0.158,0.608-0.789c0-0.662-0.15-0.785-0.608-0.785C43.774,24.897,43.624,25.02,43.624,25.682z"/>
		<path fill="#706F6F" d="M46.871,25.128c-0.3,0.524-0.689,1.062-1.051,1.528h-0.25v-1.944h0.25v1.582
			c0.366-0.477,0.716-1.02,1.051-1.582h0.25v1.944h-0.25V25.128z"/>
		<path fill="#706F6F" d="M48.463,26.656h-0.25v-1.713h-0.762v-0.231h1.774v0.231h-0.762V26.656z"/>
		<path fill="#706F6F" d="M51.172,25.709h-1.389c0.004,0.631,0.204,0.766,0.654,0.766c0.138,0,0.393-0.042,0.558-0.104l0.058,0.231
			c-0.2,0.062-0.477,0.108-0.639,0.108c-0.589,0-0.908-0.239-0.908-1.035c0-0.762,0.297-1.016,0.874-1.016
			C50.929,24.659,51.172,24.882,51.172,25.709z M49.786,25.482h1.101c-0.023-0.485-0.15-0.589-0.508-0.589
			C49.971,24.893,49.817,25.024,49.786,25.482z"/>
		<path fill="#706F6F" d="M52.148,24.943c-0.05,0.543-0.196,1.208-0.358,1.713h-0.273c0.193-0.543,0.358-1.193,0.393-1.944h1.182
			v1.944h-0.25v-1.713H52.148z"/>
		<path fill="#706F6F" d="M54.676,25.49c0.423,0,0.597,0.181,0.597,0.562c0,0.419-0.173,0.604-0.597,0.604h-1.001v-1.944h0.25v0.777
			H54.676z M54.995,26.056c0-0.262-0.1-0.346-0.319-0.346h-0.75v0.716h0.75C54.903,26.425,54.995,26.333,54.995,26.056z"/>
		<path fill="#706F6F" d="M55.949,25.709v0.947h-0.25v-1.944h0.25v0.777h1.051v-0.777h0.25v1.944h-0.25v-0.947H55.949z"/>
		<path fill="#706F6F" d="M59.257,26.556c-0.212,0.096-0.539,0.154-0.785,0.154c-0.558,0-0.789-0.15-0.789-0.654
			c0-0.554,0.335-0.643,0.77-0.643c0.204,0,0.354,0.019,0.554,0.062c0-0.477-0.123-0.577-0.573-0.577
			c-0.185,0-0.404,0.027-0.558,0.092l-0.073-0.235c0.15-0.042,0.385-0.096,0.647-0.096c0.566,0,0.808,0.166,0.808,0.755V26.556z
			 M59.007,25.686c-0.142-0.035-0.331-0.05-0.523-0.05c-0.389,0-0.52,0.042-0.52,0.4c0,0.389,0.112,0.447,0.52,0.447
			c0.189,0,0.373-0.035,0.523-0.089V25.686z"/>
		<path fill="#706F6F" d="M61.296,24.712v1.944h-0.25v-0.82h-0.362c-0.304,0-0.474,0.108-0.789,0.82H59.61
			c0.346-0.727,0.493-0.847,0.685-0.878c-0.419,0-0.566-0.227-0.566-0.5c0-0.3,0.135-0.566,0.608-0.566H61.296z M61.046,25.621
			v-0.677h-0.708c-0.231,0-0.339,0.077-0.339,0.331c0,0.231,0.104,0.346,0.354,0.346H61.046z"/>
		<path fill="#706F6F" d="M38.716,31.077c-0.431-0.766-0.727-0.908-0.989-0.951v0.951h-0.25v-1.944h0.25v0.935
			c0.169-0.143,0.516-0.497,0.912-0.935h0.323c-0.454,0.504-0.743,0.804-0.866,0.885c0.212,0.081,0.404,0.165,0.928,1.058H38.716z"
			/>
		<path fill="#706F6F" d="M39.265,30.095c0-0.793,0.281-1.016,0.881-1.016c0.604,0,0.885,0.223,0.885,1.016
			c0,0.797-0.277,1.035-0.885,1.035C39.542,31.131,39.265,30.892,39.265,30.095z M39.542,30.103c0,0.631,0.15,0.789,0.604,0.789
			c0.458,0,0.608-0.158,0.608-0.789c0-0.662-0.15-0.785-0.608-0.785C39.692,29.318,39.542,29.441,39.542,30.103z"/>
		<path fill="#706F6F" d="M43.136,29.133h0.404v1.944h-0.25v-1.72c-0.239,0.512-0.481,1.089-0.662,1.582h-0.235
			c-0.196-0.504-0.427-1.082-0.654-1.582v1.72h-0.25v-1.944h0.419c0.219,0.485,0.427,0.958,0.62,1.443
			C42.713,30.08,42.913,29.614,43.136,29.133z"/>
		<path fill="#706F6F" d="M44.374,29.364v1.713h-0.25v-1.944h1.551v1.944h-0.25v-1.713H44.374z"/>
		<path fill="#706F6F" d="M47.683,30.977c-0.212,0.096-0.539,0.154-0.785,0.154c-0.558,0-0.789-0.15-0.789-0.654
			c0-0.554,0.335-0.643,0.77-0.643c0.204,0,0.354,0.019,0.554,0.062c0-0.477-0.123-0.577-0.574-0.577
			c-0.185,0-0.404,0.027-0.558,0.092l-0.073-0.235c0.15-0.042,0.385-0.096,0.647-0.096c0.566,0,0.808,0.166,0.808,0.754V30.977z
			 M47.433,30.107c-0.143-0.035-0.331-0.05-0.524-0.05c-0.389,0-0.52,0.042-0.52,0.4c0,0.389,0.112,0.447,0.52,0.447
			c0.189,0,0.373-0.035,0.524-0.088V30.107z"/>
		<path fill="#706F6F" d="M48.44,30.13v0.947h-0.25v-1.944h0.25v0.777h1.051v-0.777h0.25v1.944h-0.25V30.13H48.44z"/>
		<path fill="#706F6F" d="M51.549,29.549c-0.3,0.523-0.689,1.062-1.051,1.528h-0.25v-1.944h0.25v1.582
			c0.366-0.477,0.716-1.02,1.051-1.582h0.25v1.944h-0.25V29.549z"/>
		<path fill="#706F6F" d="M53.838,29.133v1.944h-0.25v-0.82h-0.362c-0.304,0-0.474,0.108-0.789,0.82h-0.285
			c0.346-0.727,0.493-0.847,0.685-0.878c-0.419,0-0.566-0.227-0.566-0.5c0-0.3,0.135-0.566,0.608-0.566H53.838z M53.587,30.042
			v-0.677h-0.708c-0.231,0-0.339,0.077-0.339,0.331c0,0.231,0.104,0.346,0.354,0.346H53.587z"/>
	</g>
</g>
</svg>
