<svg xmlns="http://www.w3.org/2000/svg" width="1617.209" height="719.818" viewBox="0 0 1617.209 719.818"><path opacity=".6" fill-rule="evenodd" clip-rule="evenodd" fill="#C1D466" d="M780.317 598.604L781.702 2.84l-128.525.545v295.128l-94.35-.63 3.356 33.422-.162 35.597-2.013 14.87-38.523-.053-.085 272.29 85.962-2.365 30.21-22.68 1.145-29.628"/><path opacity=".6" fill-rule="evenodd" clip-rule="evenodd" fill="#FBC563" d="M1046.33 598.84l.117-224.757-48.424 5.633 3.5-13.19-.072-35.75 1.007-37.1-90.985-2.466L908.215.365 781.67 4.67l.275 593.99 146.723.677-2.518 29.757 29.513 24.917 88.992 1.122"/><path opacity=".6" fill-rule="evenodd" clip-rule="evenodd" fill="#E7B7C0" d="M1533.972 304.457l8.678-256.638 2.366-21.15-30.212-25.047-104.934 1.602-5.47 287.985-89.682 7.555.024 81.963-44.022-.957 3.35 271.875h85.962l30.21-21.32-2.597-30.988 147.155-.733"/><path opacity=".6" fill-rule="evenodd" clip-rule="evenodd" fill="#C1D466" d="M1158.267 294.496l250.134.003V4.942L1156.1 2.46"/><path opacity=".6" fill-rule="evenodd" clip-rule="evenodd" fill="#FFF381" d="M1158.248 291.91L1158.08.367H908.215l3.257 290.844 116.108 3.145 36.102.047"/><path opacity=".6" fill-rule="evenodd" clip-rule="evenodd" fill="#E7B7C0" d="M176.538 606.43l-2.025 23.647 27.798 21.568 89.654 3.487.988-277.292-43.22-.257.374-11.756v-34.522l1.018-37.54-94.82.998-2.74-292.703L47.8 2.67 18.796 24.893V48.02L17.21 182.714l-15.786 1.152 1.803 52.505 18.454 1.076-1.947 163.234-18.31.355 1.804 52.504h14.038l4.447 148.932"/><path opacity=".6" fill-rule="evenodd" clip-rule="evenodd" fill="#FFF381" d="M403.577 291.91L403.41.367H153.544L156.8 291.21l116.11 3.145 36.1.047"/><path opacity=".6" fill-rule="evenodd" clip-rule="evenodd" fill="#FBC563" d="M406.7 294.496l250.136.003V4.942l-252.3-2.484"/></svg>