<svg xmlns="http://www.w3.org/2000/svg" width="1158.204" height="838.988" viewBox="0 0 1158.204 838.988"><path opacity=".6" fill-rule="evenodd" clip-rule="evenodd" fill="#E7B7C0" d="M1132.6 782.295l.588-143.35 23.598-2.964v-50.66l-24.725 1.078 2.31-167.953 22.416-.985-5.492-50.064-14.13.13 1.462-160.426-27.034-22.233-96.76 1.34 1.44 295.945h-119.21v79.386L722.95 562.77l-1.54 5.696 1.3 264.956 248.863.907 26.964-20.975-1.877-22.91 3.692-15.22 125.012-1.516"/><path opacity=".6" fill-rule="evenodd" clip-rule="evenodd" fill="#C1D466" d="M491.26 834.33l1.696-272.792-176.885-2.003-.77-23.704-76.237-1.592-.83 27.12-152.312-1.513-1.47 220.997 131.017 4.35-.847 29.354 26.92 21.92M667.914 478.253l-2.694-289.11-3.28-45.19 118.266.23-.912 50.963 121.31-11.547 110.532 1.078-2.01 290.172-206.663 2.095"/><path opacity=".6" fill-rule="evenodd" clip-rule="evenodd" fill="#FFF381" d="M433.937 144.026H662.91v334.227H433.936z"/><path opacity=".6" fill-rule="evenodd" clip-rule="evenodd" fill="#FBC563" d="M433.376 477.483l.616-292.103-322.185-.702-21.897 19.815-1.064 291.463v60.282l146.537.46-.036-25.76 78.415 1.658 3.54-2.77v-54.31"/></svg>