<svg xmlns="http://www.w3.org/2000/svg" width="446.307" height="446.308" viewBox="0 0 446.307 446.308"><path opacity=".6" fill="#A1DAF8" d="M117.517 403.02l101.23-101.23 21.037 20.817h4.144v90.842H212.61v6.39h34.327v24.293h-45.721v-27.436h-.458v-3.248h-6.024v10.738h-55.788v-.197l-.23.23-5.996-5.996-4.433 4.433 7.804 7.804.12.12h7.188v13.553h-33.263V405.8l.694-.603 8.74 8.74 4.433-4.433"/><path opacity=".6" fill="#009FE3" d="M297.896 333.302H351.95v90.885h-50.615V413.45h-6.287v3.246h-.46V444.46h-45.77v-24.62h34.085v-6.39h-35.82v-90.952h50.813M94.678 354.088l88.315-88.315 33.546 33.545-88.316 88.316-1.847-1.847-3.283 3.284-.386-.385-1.2 1.2-6.22 6.222-5.602 5.6-31.427-31.426L90.08 358.46l23.218 23.218 4.483-4.483"/><path opacity=".6" fill="#A1DAF8" d="M301.08 330.225v-41.76H253.6l-10.79-10.79L312.485 208l31.274 31.274h29.7v-6.44h-7.04v-9.432h.008l8.87-8.87.03.03h69.078v3.864h.002v69.462h-18.205v-55.054h-40.825v6.44h34.408v184.963h-64.714v-94.012"/><path opacity=".6" fill="#009FE3" d="M43.24 328.822l101.23-101.23-20.707-21.037v-4.144h-90.95v31.32H26.42V199.4H2.13v45.72h27.436v.458h3.248v6.025h-10.74v55.788h.198l-.23.23 6.06 6.058-4.434 4.434-7.866-7.866-.117-.118v-7.19H2.128v33.264H40.46l.602-.694-8.74-8.74 4.432-4.434"/><path opacity=".6" fill="#A1DAF8" d="M112.958 148.442V94.39H22.073v50.614H32.81v6.286h-3.247v.46H1.8v45.77h24.62V163.14h6.39v36.112h90.952v-50.812"/><path opacity=".6" fill="#009FE3" d="M116.036 145.257h41.76v47.483l10.79 10.79 69.857-69.677-31.344-31.388L206.986 57h6.44v22.918h9.432v-.008l8.87-8.87-.03-.03V1.933h-3.866V1.93h-69.46v18.205h55.053v24.948h-6.44v-18.53H22.024v64.712h94.012"/><path opacity=".6" fill="#A1DAF8" d="M92.172 351.66l88.315-88.314-33.545-33.546-88.316 88.315 1.847 1.847-2.333 2.333.614.613-2.15 2.15-6.223 6.223-5.6 5.6 31.2 31.2L87.8 356.257 64.584 333.04l4.483-4.484"/></svg>