<svg xmlns="http://www.w3.org/2000/svg" width="442.518" height="442.785" viewBox="0 0 442.518 442.785"><path opacity=".6" fill="#009FE3" d="M100.976 1.93H1.93v139.25l13.446.113v-8.64h6.662v11.158h103.685v30.85h30.59v16.447l10.883 10.846 69.133-69.17-31.294-31.143V78.52h6.612v1.02l9.157-.208 9.028-8.833-.13-44.036-9.222-.003V21.92h-.454V20.1h9.677V2.044h-72.807l-.13 18.055h51.958v1.818l-.454.01v4.602L22.038 26.4v18.575h-4.843v.39h-1.82V20.1h85.602V1.93zm-83.78 69.933v.52h4.842v32.798h-6.662V71.863h1.82z"/><path opacity=".6" fill="#A1DAF8" d="M15.44 160.968h1.818v-.227h4.7v-13.81h100.894l-.118 57.326 56.374 56.83-103.95 103.87-27.1-26.86 3.324-3.326-15.13-15.132-4.362 4.36 8.67 8.738-.57.57-38.124.13.066-33.188h13.65l.017 7.34 7.684 7.743 4.33-4.328-5.874-5.876V249.2h10.846v-51.96l-10.628.066v-9.222H15.44v15.522h10.976v39.424H15.44v.052H1.996v-99.94H15.44"/><path opacity=".6" fill="#009FE3" d="M281.368 427.143v-1.818h.227v-4.7h13.812V319.73l-57.326.12-56.83-56.375-103.528 103.78 26.52 27.27 3.325-3.324 15.13 15.132-4.36 4.36-8.736-8.67-.57.57-.13 38.125 33.188-.066V427l-7.34-.016-7.742-7.685 4.33-4.33 5.874 5.873h55.927v-10.846h51.958l-.065 10.628h9.222V427.143H238.73v-10.976h-39.424v10.976h-.844v13.444h100.734v-13.444"/><path opacity=".6" fill="#A1DAF8" d="M422.216 341.542v85.6H396.95v-1.818h.39v-4.843h18.576l-.13-186.232h4.603l.007-.454h1.82v51.958l18.054-.13v-72.807h-18.054v9.677h-1.82v-.455h-4.542l-.003-9.222-44.034-.13-8.833 9.028-.207 9.157h1.02v6.612h-23.12l-31.144-31.292-69.17 69.133 10.847 10.883h16.445v30.59h30.85V420.48h11.156v6.663h-8.637v14.32h49.07v.033h91.12v-99.954h-18.997zm-51.763 85.6h-33.317v-6.66h32.798v4.842h.52v1.82z"/></svg>