<svg xmlns="http://www.w3.org/2000/svg" width="450.772" height="450.83" viewBox="0 0 450.772 450.83"><path opacity=".6" fill="#A1DAF8" d="M430.544 216.81v9.475h-6.495v-9.17l-44.762-.1-9.166 9.028-.06 15.826-22.602-.023-31.532-31.532-70.412 70.412L256.5 291.71h16.54v31.195h30.508V428.83h52.194v-37.573h4.573V433.237h17.962v-.133h50.282V340.28h-50.283v-6.723h45.772V238.89h6.494v52.166h18.26V216.81h-18.26zm-74.802 135.71v-18.963h4.573v18.963h-4.573z"/><path opacity=".6" fill="#009FE3" d="M300.746 428.736l-.23-102.485-58.362-.162-57.6-57.4L78.923 374.287l27.38 27.587 3.26-3.26 7.167 7.168 23.58-23.412 3.855 3.854-27.72 27.72-5.388-4.79v39.828h33.675v-15.613l48.695.198-.413-48.92-5.238-5.24 4.652-4.65 7.255 7.272.315 35.726h49.464v10.983h51.284zm-122.648-59.008l-8.64-8.64-3.58 3.58-3.855-3.856 8.286-8.227 12.45 12.48-4.662 4.663z"/><path opacity=".6" fill="#A1DAF8" d="M125.02 209.41v-59.406l-102.67-.116v51.455h10.676l-.067 49.884 35.803-.098 7.17 7.168-4.606 4.605-5.278-5.277-.18.18v-.03H17.505v48.43H1.958v33.577h40.027l-5.293-5.06 27.92-27.92 4.443 4.444L45.9 334.4l6.51 6.807-3.307 3.307 27.523 27.523L182.59 266.172l-57.57-56.763zM90.96 289.337l-4.46-4.46 3.4-3.4-8.618-8.616 4.606-4.606 13.077 13.077-8.005 8.005z"/><path opacity=".6" fill="#009FE3" d="M209.13 103.682l-.02-22.602 15.825-.06 9.028-9.166-.1-44.76h-9.275V20.46h9.328V2.067h-74.1V20.46h52.3v6.634H117.42v45.038h-6.826v-49.82h-93.09v68.212H59.65V95.4h-37.5v52.194h105.923v30.508h31.195v16.54l10.984 10.983 70.41-70.41-31.53-31.533zm-91.71-8.28H98.487v-4.878h11.644v.066h7.29v4.81z"/></svg>