<svg xmlns="http://www.w3.org/2000/svg" width="1065.59" height="799.193" viewBox="0 0 1065.59 799.193"><path opacity=".79" fill="#F8FF7F" d="M719.277 137.83l-.27 23.083 7.145-7.583.122-10.17 10.268-11.56 37.755.584 2.915 1.568 8 .33 13.585-2-.083-2.834 53.917-10.417 5.71 2.334 15.707-2.5v-6.667l13.417-10.833 47.833.646.063 4.625 74.406.813-.234-25.5-74.742-2.25-.246-3.25s-44.998-1.5-45.998-1-13.75 12.75-13.75 12.75l.25 4.25-16.5 3.75-6-2-54 11.5.25 2-13 3.5-8.5.25-3.25-1.75-37.25-1.25-11.75 12.5v9.083l-5.77 8z"/><path opacity=".79" fill="#F8FF7F" d="M719.277 162.334l-.067 5.58-12.662 13.832.166 8.584 7.5.25 11.938-13.085.122-9.947 10.4-9.677 37.75.75 2.624 1.376h8.25l13.625-2.062.125-3.156 53.375-9.58 6.625 2.15 15.5-3.113-.125-6.245 13.5-10.372 47.125.877.03 3.063 20.634.53.002 2.908h8l49.667.667-.166 5.958 12.834-8.04v-10.177l-16.625-.375-.11-14.282-74.226-1.5-.113-3.75-46.995-.875-13.623 11.75-.06 6.064-15.25 2.937-6.625-2.936-53.375 10.312-.187 2.375-13.562 2.314-7.875-.188-3.188-1.812-37.5-.5-10.062 10.875-.188 10.31"/><path opacity=".79" fill="#FFF" d="M715.798 189.87l.062 22.876 10.688-10-.063-9.937 9.875-8.5 37.875.75 3.125 1.06 8-.25 13.688-1.81.062-3.376 53.25-8.813 6.438 2.314 15.25-2.563v-5.81l13.687-9.314 47.375 1 21.188.375.125 1.376 56.812.875-.002-24.31-57.185-.814v-2.5l-20.782-.312-.234-1.25-47.18-.563-13.277 9.75-.264 5.814-15.38 3.25-6.504-2.188-53.314 9.375-.25 2.987-13.564 1.875-7.875-.152-3.188-1.47-37.5-.406-10.062 8.82-.14 10.41"/><path opacity=".79" fill="#FFF" d="M715.673 214.184l.062 22.312 10.688-8.437.086-8.767 10.237-9.61 37.182.313 3.496 1.5 7.936.125 13.498-2.06.188-2.098 53.28-8.598 6.454 2.256 15.57-2.56.067-5.75 13.313-8.948 47.376.976 21.187.366.125 2.34 56.813.855-.398-25.28-56.79-1.457v-2l-68.45-1.292-13.15 9.515-.2 5.67-15.35 3.172-6.55-2.856-53.243 9.37-.247 3.413-13.56 1.83-7.875-.15-3.187-1.433-37.188-.716-10 8.926v8.824"/><path opacity=".79" fill="#FFF" d="M715.673 237.85l.062 20.98 10.688-7.934.086-8.242 10.35-8.22 37.063.25 3.437 1.375 8.063.124 13.5-1.75-.063-2.375 53.375-7.876 6.688 1.875 15.5-2.376-.063-4.75 13.188-8 68.5.646.218 2.166 56.907.875-.125-24.874-56.532-.85-.218-2.483-68.498-1.042-13.25 8.946-.252 5.333-15.375 2.98-6.595-2.685-53.28 8.81v2.68l-13.844 1.75-7.734-.314-3.243-1.56-37.246-.376-9.932 8.98v8.298"/><path opacity=".79" fill="#FFF" d="M715.673 260.028l.062 22.052 10.688-7.205.086-7.485 10.35-7.464 37.063.227 3.437 1.248 8.063.115 13.5-1.59-.063-2.156 53.375-7.153 6.688 1.703 15.5-2.157-.063-4.313 13.188-7.265 68.5.586.218 1.97 56.907.794-.125-25.59-56.532-.77-.218-2.257-68.498-.946-13.25 8.124-.252 4.843-15.375 2.708-6.595-2.44-53.28 8v2.434l-13.844 1.588-7.734-.284-3.243-1.42-37.246-.34-9.932 8.157v7.536"/><path opacity=".79" fill="#FFF" d="M715.673 284.78l.062 20.55 10.688-6.714.086-6.975 10.35-6.955 37.063.212 3.437 1.224 8.063.25 13.5-1.685-.125-1.44 53.375-6 6.875 1.126 15.416-2.374-.166-3.625 13.562-7.31 68.625 1.31.063 1.94 56.78.81-.28-25.046-56.532-.72-.218-2.1-68.498-.883-13.25 7.57-.065 4.43-15.562 2.607-6.595-2.273-53.28 7.455v2.266l-13.844 1.48-7.734-.263-3.243-1.323-37.246-.317-9.932 7.6v7.022"/><path opacity=".79" fill="#FFF" d="M715.673 305.934l.062 23.062 10.688-5.955.086-6.187 10.35-6.17 37.063.187 3.437 1.087 8.125.22 13.563-1.495v-1.06l53.187-5.54 6.844 1 16.15-2.21.034-3.46 13.33-6.5 67.914 1.084.04 2.16 56.78.72-.28-26.22-56.532-.638-.093-2.084-68.375-.75-13.5 6.902-.125 3.348-15.563 2.187-6.532-1.308-53.28 6.613-.063 2.134-14 1.374-7.625-.375-3.437-1.19-37.5-.186-9.75 6.312-.25 6.04"/><path opacity=".79" fill="#FFF" d="M715.673 331.146l.04 21.225 10.75-5.332.046-4.686 10.35-5.727 37.063.174 3.437 1.007 8.063.206 13.5-1.388-.125-1.185 53.375-4.94 6.875.927 16-1.68.208-3.58 13.292-5.754 67.958.833.042 1.897 56.78.67-.28-25.407-56.532-.592-.093-1.934-67.96-1.175-13.082 6.5-.124 3.29-16.396 2.232-6.532-1.215-53.447 5.65.105 1.655-13.875 1.276-7.625-.348-3.25-1.102-37.5-.464-10.437 5.973.125 6.613"/><path opacity=".79" fill="#FFF" d="M715.673 355.776l.04 20.262 10.75-4.84.046-4.253 10.35-5.197 37.063.158 3.437.915 8.188.364 13.5-1.063v-1.447l53.25-4.483 6.812.84 16.094-1.47.068-2.48 13.283-3.917 67.955-.37.04 1.72 56.78.567-.282-25.016-56.53-.537-.095-1.756-67.96-1.065-13.082 5.9-.207 3.33-16.313 1.68-6.532-1.103-53.447 5.13.105 1.5-13.875 1.158-7.625-.316-3.25-1-37.5-.42-10.437 5.42.125 6"/><path opacity=".79" fill="#FFF" d="M715.673 377.162l.04 21.21 10.75-3.873.046-3.403 10.35-4.158 37.063.126 3.437.732 8.063.15 13.5-1.01-.125-.86 53.375-3.585 6.875.672 16.125-.856.083-2.305 13.292-3.134 67.958-.296.042 1.377 56.78.455-.28-25.013-56.532-.43-.218-1.8-67.834-.166-13.083 4.428-.145 2.947-16.375 1.063-6.532-.882-53.447 4.104.105 1.2-13.875.927-7.625-.252-3.25-.8-37.5-.337-10.437 4.34.125 4.8"/><path opacity=".79" fill="#FFF" d="M715.673 400l-.063 21.184 9-3.188-.125-2.125 12.375-3.632 37.063.107 3.437.276 8.063.467 13.5-.85-.125-.724 53.375-3.022 6.718.568 14.47-.687.188-1.624 14.843-2.992 68.038-.25.08 1.16 56.8.382-.27-25.077-56.527-.363-.09-1.183-67.957.072-13.083 3.185-.145 2.485-16.375.894-6.532-.744-53.447 3.458.105 1.01-13.875.782-7.625-.213-3.25-.674-37.5-.285-10.437 3.655.125 4.045"/><path opacity=".79" fill="#FFF" d="M715.673 423.14l-.063 23.377 10.563-3.104.04-1.792 10.647-2.863 37.063.092 3.437.24 8.063.404 13.5-.737-.125-.63 53.375-2.62 6.718.49 15.47-.594-.146-1.49 14.177-2.516 68.038-.217.08 1.007 56.8.33-.27-25.753-56.527-.314-.087-.704-68.063.125-14.312 2.814.062 1.937-15.25.56-6.532-.645-53.447 3 .105.877-13.875.677-7.625-.185-3.25-.585-37.5-.246-10.437 3.17.125 2.51"/><path opacity=".79" fill="#FFF" d="M715.673 447.715l-.063 22.427 10.563-2.695.04-1.555 10.522-1.833 37.375.186 3.25.448 8.188.35 13.5-.423v-.76l53.187-1.864 6.72.014 15.436-.517.345-.872 13.688-1.624h68.062l.026-.045 56.8.164-.272-25.42-56.526-.305-.09-.628-68.062.1-14.312 2.438.062 1.68-15.25.485-6.532-.56-53.447 2.603.105.762-13.875.588-7.625-.16-3.25-.508-37.5-.214-10.437 2.752.125 2.047"/><path opacity=".79" fill="#FFF" d="M716.048 472.415v18.894l10.312-1.19.188-.624 10.312-.5h37.75l2.938-.312 7.968.437 13.532-.25v.064l52.937-.563 7.125.064 15.375-.938.063-.687 13-.69 68.5.126v.125l57.012.126-.147-24.91-56.464-.285-.058-.512-68.047.066-14.305 1.894.066 1.306-15.248.375-6.53-.438-53.448 2.03.105.592-13.875.458-7.625-.125-3.25-.396-37.5-.165-10.437 2.145.312 1.595"/><path opacity=".79" fill="#FFF" d="M716.048 493.225v22.396l83 .876 214.012.625-.147-28.027-56.464-.11-.058-.195-68.047.025-14.305.723.066.498-15.248.143-6.53-.166-53.448.775.105.226-13.875.176-7.625-.048-3.25-.15-37.5-.064-10.437.818.312.61M716.048 537.93l-.125-20.31 83.25.376 213.887.5-.147 22.794-56.464.09-.058.158-68.047-.02-9.297-.688-4.942-.305-15.248-.117-6.53.136-53.448-.63.105-.184-13.875-.142-7.625.04-3.25.122-37.5.05-10.437-.664.312-.495M716.048 564.496l-.167-24.5 10.668 1.334 9 .166 38.5.167 11.333.167 13.668-.167 74.835.75 14.165.833 47.666.75 20.667-.333 56.168.583.365 24.872-56.532-.538.012.666-67.72.605-12.624-1.437v-.333l-17.065-.026-6.593.137-53.478-.642.09-.19-13.884-.144-7.63.04-3.25.125-37.502.052-10.438-.68-.125-.568"/><path opacity=".79" fill="#FFF" d="M715.964 579.413l-.083-12.417 10.668 1.334 9 .166 38.5.167 11.333.167 13.668-.167 74.835.75 14.33 1.583h47.5l20.668-.333 56.168.583.166 26.917-56.666.833-67.667.5-17.332-3.166-16.417-.584-2.25-.083-53.416-2-.833-.167-14.25-.625-9 .126H764.3l-27.917.21-33.166-7.793-.083-5.5"/><path opacity=".79" fill="#9FCFFF" d="M715.964 613.38l-.083-23.55 10.668 2.5 9 1.833 48.5.167 19.833.5 67.5 2.666 14.168 2.834 49 .5 22.166.333 52.667-.5.334 29.167-56.833.666-67.166.834-65.666-3.667-32.834-1.833-.166-5.334-41.834-1.5-7.833.334"/><path opacity=".79" fill="#9FCFFF" d="M715.964 639.38l-.083-23.55 21.668 5.54 8.062-.25 41.438 1.25v3.5l98.25 6.126h21.125l102.75-1 .998 33.766-123.998-1.258-14.562-6.254-57.563-5.002-12.374.624-17.375-1.25-38.625.125-29.75-9.376"/><path opacity=".79" fill="#F8FF7F" d="M657.923 155.434l-65.542-2.188-.082-1.75-39.333-.833-3.833 8.25-.167 3.833-6.75 1.167-7.417-.417-38.167 8.083.168 2.166-7.083 1.583-7.667.666-3.917-1.75-31.916-.5-1.417 8.75.167 16.583 1.833-5.668 31.333.167 4.23 1.666s7.52.25 7.853.167c.333-.083 6.583-1.25 6.583-1.25l-.25-1 37.917-8.5 7.875.917 6.708-1v-5.75l3.48-7.77 39.52.75v2.25l65.9 1.353-.023-19.98z"/><path opacity=".79" fill="#F8FF7F" d="M658.048 176.87l-66.063-1.124-.03-2.125-38.83-.5-3.882 9.5-.03 2.918-6.93 1.396-7.93-.875-37.87 8.124.125 1.812-6.124 1.188-8.228-.27-3.834-1.48-31.208-.535-2.29 6.66-.19 17.56 2-4.5 31.94.5 3.686 1.876h8.25l6.188-.937.062-2.376 37.813-7.375 7.968.936 6.408-1.062v-5.563l3.625-6.81 39.812.56.03 2.564 18.533.312.083 1.834 48.98 1.04.313 10.69 9-12.376-.032-8.5-11.342-.438"/><path opacity=".79" fill="#FFF" d="M660.048 200.913l-67.75-1.167.166-3.25-39.338-.375-3.883 8.692-.03 2.67-6.93 1.276-7.93-.8-37.87 7.432.125 1.66-6.124 1.085-8.228-.248-3.834-1.353-31.208-.49-2.29 4.14-.19 20.02 2-4.116 31.94.325 3.686 1.583h8.25l6.188-.725.062-2.106 37.813-6.714 7.968.874 6.408-.955v-5.09l3.625-6.233 39.812.515.03 2.344 19.533.122.062.968 48.28.313"/><path opacity=".79" fill="#FFF" d="M660.36 222.934l-48.187-.78-.032-.408-19.686-.187-.188-2.126-39.14-.313-3.883 7.904-.03 2.426-6.93 1.16-7.93-.727-37.87 6.76.125 1.507-6.124.988-8.228-.226-3.834-1.23-31.208-.445-2.29 4.01-.19 19.958 2-3.744 31.94.197 3.686 1.34h8.25l6.188-.56.062-1.866 37.813-6.078 7.968.807 6.408-.857v-4.627l3.625-5.667 39.812.467.03 2.13 19.533.11.062.882 48.28.694"/><path opacity=".79" fill="#FFF" d="M660.36 245.56l-48.187-.705-.032-.366-19.686-.17-.188-1.917-39.14-.282-3.883 7.13-.03 2.188-6.93 1.047-7.93-.657-37.87 6.097.125 1.36-6.124.89-8.228-.203-3.834-1.11-31.208-.4-2.29 3.784-.19 19.188 2-2.313 31.94.19 3.686.874 8.313.5 6.125-.75.187-2.313 37.438-5.124 8.218.375 6.408-.75v-3.92l3.625-5.112 39.812.422.03.922 19.533.1.062.794 48.28.627"/><path opacity=".79" fill="#FFF" d="M660.36 268.363l-48.187-.664-.032-.346-19.686-.16-.188-1.807-39.14-.266-3.883 6.72-.03 2.064-6.93.988-7.93-.62-37.87 5.748.125 1.282-6.124.84-8.228-.19-3.834-1.048-31.208-.378-2.29 3.57-.19 19.713 2-2.806 31.94.176 3.686.825 8.313.472 6.125-.707.187-2.18 37.438-4.832 8.218.353 6.408-.706v-3.698l3.625-4.818 39.812.397.03.87 19.533.094.062.748 48.28.59"/><path opacity=".79" fill="#FFF" d="M660.36 290.434l-48.187-.688-.032-.437-19.686-.314-.188-.626-39.14-.25-3.883 6.287-.03 1.93-6.93.924-7.93-.578-37.87 5.376.125 1.2-6.124.785-8.228-.18-3.834-.978-31.208-.354-2.29 3.34-.19 17.856 2-2.04 31.94.166 3.686.77 8.313.442 6.125-.66.187-1.345 37.438-4.626 8.218.875 5.408-.98.083-2.417 4.543-5.73 39.812.688.03.5 19.533.376.062.75 48.28.563"/><path opacity=".79" fill="#FFF" d="M660.36 312.25l-48.187-.633-.032-.403-19.686-.287-.188-.577-39.14-.23-3.883 5.787-.03 1.776-6.93.85-7.93-.532-37.87 4.95.125 1.103-6.124.723-8.228-.165-3.834-.9-31.208-.326-2.333 2.112.084 19 1.5-1.25 31.834.334 3.75.75 7.708.166 7.292-.333v-1.542l37.29-3.957 7.98.833 7.157-.75.078-4.583 3.414-2.917 39.52-.026.03.46 19.53.345.063.69 48.188.28"/><path opacity=".79" fill="#FFF" d="M660.36 335.863l-48.187-.518-.032-.33-19.686-.235-.188-.47-39.14-.19-3.883 4.735-.03 1.453-6.93.696-7.93-.436-37.87 4.05.125.902-6.124.59-8.228-.133-3.834-.738-31.208-.267-2.333 1.728.084 18.546 1.5-1.022 31.834.272 3.75.614 7.708.136 7.292-.272.125-.915 37.166-3.586 7.978.68 7.157-.612.078-3.75 3.414-2.387 39.52-.02.03.375 19.53.283.063.565 48.188.23"/><path opacity=".79" fill="#FFF" d="M660.36 358.602l-48.187-.44-.032-.28-19.686-.2-.188-.402-39.14-.16-3.883 4.025-.03 1.236-6.93.592-7.93-.37-37.805 3.207.06 1-6.124.504-8.228-.115-3.834-.628-31.208-.226-2.333 1.47.084 18.764 1.5-.87 31.834.232 3.75.522 7.708.116 7.292-.232v-1.072l37.29-2.753 7.98.58 7.157-.522.078-2.542 3.414-2.674 39.52-.018.03.32 19.53.24.063.48 48.188.195"/><path opacity=".79" fill="#FFF" d="M660.36 381.325l-48.187-.358-.032-.227-19.926-.163.052-.326-39.14-.13-3.883 3.274-.03 1.005-6.93.48-7.93-.302-37.805 2.61.06.814-6.124.41-8.228-.095-3.834-.51-31.916-.183-1.625.872.084 19.584 1.5-.707 31.834.188 3.75.425 7.708.095 7.292-.19v-.87l37.29-2.24 7.98.47 7.157-.423.078-2.164 3.414-2.078 39.52-.015.03.26 19.53.195.063.39 48.188.16"/><path opacity=".79" fill="#FFF" d="M660.36 404.087l-48.187-.287-.032-.183-19.686-.13-.188-.262-39.14-.104-3.883 2.626-.03.806-6.93.386-7.93-.242-37.758 2.093.013.652-6.124.33-8.228-.076-3.834-.41-31.208-.147-2.333.957.084 19.358 1.5-.567 31.834.15 3.75.34 7.708.077 7.292-.152v-.7l37.29-1.795 7.98.378 7.157-.34.078-2.08 3.414-1.853 39.52.25.03.477 19.53.156.063.314 48.188.127"/><path opacity=".79" fill="#FFF" d="M660.36 426.24l-48.187-.283-.032-.18-19.686-.13-.188-.257-39.14-.102-3.883 2.588-.03.795-6.93.38-7.93-.237-37.805 2.063.06.644-6.124.324-8.228-.074-3.834-.403-31.208-.146-2.333.946.084 20.08 1.5-.56 31.834.15 3.75.336 7.708.074 7.292-.15v-.688l37.29-1.77 7.98.37 7.157-.334.078-2.05 3.414-1.305 39.52-.013.03.206 19.53.154.063.31 48.188.125"/><path opacity=".79" fill="#FFF" d="M660.36 449.028l-48.187-.22-.032-.14-19.686-.1-.188-.2-39.14-.08-3.883 2.012-.03.618-6.93.296-7.93-.186-37.805 1.604.06.5-6.124.253-8.228-.057-3.834-.314-31.208-.113-2.333.735.084 19.61 1.5-.433 31.834.116 3.75.26 7.708.058 7.292-.116v-.536l37.29-1.376 7.98.29 7.157-.262.078-1.594 3.414-1.014 39.52-.01.03.16 19.53.12.063.24 48.188.1"/><path opacity=".79" fill="#FFF" d="M660.36 471.002l-48.187-.232-.032-.14-19.686-.096-.188-.174-39.14-.07-3.883 1.684-.03.517-6.93.248-7.93-.155-37.805 1.342.06.42-6.124.21-8.228-.048-3.834-.262-31.208-.095-2.333.615-.02 19.106 1.604-.05 31.834.097 3.75.218 7.708.05 7.292-.098v-.45l37.187-.39 8.083-.063 7.157-.125.078-1 62.495-.064h48.25M660.36 494.64l-48.187-.138-.032-.076-19.686-.045-.188-.06-39.14-.024-3.883.497-6.96.224-7.93-.046-37.805.4.06.123-6.124.062-8.228-.014-3.834-.077-31.208-.028-2.333.182-.02 19.662 1.604-.017 31.834.03 3.75.064 7.708.014 7.292-.027v-.133l37.187-.116 8.083-.02 7.157-.036.078-.16 62.495.118h48.25M660.36 537.028l-48.187.194-.032.105-19.686.06-.188.065-39.14.03-3.883-.485-.03-.148-6.93-.072-7.93.046-37.805-.39.06-.12-6.124-.06-8.228.013-3.834.076-31.208.027-2.333-.178-.02-19.23 1.604.015 31.834-.028 3.75-.065 7.708-.014 7.292.03v.13l37.187.113 8.083.018 69.73-.164h48.25M660.36 560.258l-48.187.167-.032.09-19.686.055-.188.066-39.14.027-3.883-.517-.03-.158-6.93-.075-8.18.048-38.055-.413-4.25-.3-.875-1.376-8.25-.25-3.813.25-31.72.126-2.108-.375-.234-19.624h1.625l31.875.604 3.75-.104 7.708.162 7.042-.412.25.627 37.375-.252 7.895.393 6.855-.017 2.375.625 60.5-.624h48.25"/><path opacity=".79" fill="#9FCFFF" d="M659.88 611.163l-62.5 1.5-44.332.333-3 .177-14.834-1.005-15.5.83-65.833-3 .168-3.668-.334-3.5-2.833-.167-.332-20.333 3 .166 33.333.334 13.834.333 9.667.667 23.168 1 4.75.333 9.75.833 3.5 1.875 60.5-.874h48.25"/><path opacity=".79" fill="#9FCFFF" d="M659.88 638.163l-62.832 3.917-44.834.916-2.166-2.823-14.834-1.005-1.5-6.088-14.25.75-48.416-2.75-17.542-1.25-2.458-.917V611.08l2.04.166 66.772 3.167 15.22-.833 14.608 1.166 1.847.125 60.513-.874 47.75-.75"/><path opacity=".79" fill="#FFF" d="M660.11 575.87l8.938 2.5v6.5l-116.797.75-4.726-1.874-12.863-.75-35.493-1.5-12.872-.375-40.5.126-1.373-2.625.438-18.54 1.604.036 31.834-1.065 3.75-.146 7.708-.033 1.542 1.25 5.75.118 37 .633 8.062.126h7.313l2.625.503 60.062-.254 48.22-.183"/></svg>