<?xml version="1.0" encoding="utf-8"?>
<!-- Generator: Adobe Illustrator 19.0.1, SVG Export Plug-In . SVG Version: 6.00 Build 0)  -->
<svg version="1.1" id="Слой_1" xmlns="http://www.w3.org/2000/svg" xmlns:xlink="http://www.w3.org/1999/xlink" x="0px" y="0px"
	 width="60.913px" height="39.682px" viewBox="0 0 60.913 39.682" enable-background="new 0 0 60.913 39.682" xml:space="preserve">
<g>
	<g>
		<defs>
			<path id="SVGID_1_" d="M38.178,39.051c0.171-0.171,0.663-0.664,0.834-0.834c0-0.26,0-1.028,0-1.028
				c0-0.238,0.193-0.431,0.43-0.431c0,0,18.294,0,18.645,0c0.189-0.189,1.006-1.006,1.196-1.195c0-0.344,0-8.63,0-8.63
				c0-0.238,0.193-0.43,0.43-0.43c0,0,0.42,0,0.776,0c0-0.57,0-2.07,0-2.639c-0.356,0-0.776,0-0.776,0
				c-0.238,0-0.43-0.193-0.43-0.431v-8.928c0-0.238,0.193-0.43,0.43-0.43c0,0,0.42,0,0.776,0c0-0.57,0-2.069,0-2.638
				c-0.356,0-0.776,0-0.776,0c-0.238,0-0.43-0.192-0.43-0.43c0,0,0-7.361,0-8.137c-0.766,0-7.172,0-7.172,0
				c-0.238,0-0.431-0.192-0.431-0.43c0,0,0-0.995,0-1.27c-0.185-0.185-0.89-0.89-1.075-1.075c-0.354,0-41.357,0-41.633,0
				C8.816,0.205,8.253,0.612,8.018,0.781c0,0.33,0,1.401,0,1.401c0,0.238-0.192,0.431-0.43,0.431c0,0-6.764,0.012-7.534,0.013
				c0,0.833,0,32.346,0,32.694c0.198,0.198,1.239,1.239,1.437,1.437c0.351,0,17.92,0,17.92,0c0.238,0,0.431,0.193,0.431,0.431
				c0,0,0,0.549,0,0.787c0.185,0.185,0.89,0.89,1.076,1.075C21.265,39.051,37.831,39.051,38.178,39.051"/>
		</defs>
		<use xlink:href="#SVGID_1_"  overflow="visible" fill-rule="evenodd" clip-rule="evenodd" fill="#FFFFFF"/>
		<clipPath id="SVGID_2_">
			<use xlink:href="#SVGID_1_"  overflow="visible"/>
		</clipPath>
	</g>
	<path fill="#FFFFFF" d="M29.417,21.613"/>
</g>
</svg>
