<?xml version="1.0" encoding="utf-8"?>
<!-- Generator: Adobe Illustrator 19.0.1, SVG Export Plug-In . SVG Version: 6.00 Build 0)  -->
<svg version="1.1" id="OVER" xmlns="http://www.w3.org/2000/svg" xmlns:xlink="http://www.w3.org/1999/xlink" x="0px" y="0px"
	 width="870.15px" height="545.3px" viewBox="0 0 870.15 545.3" enable-background="new 0 0 870.15 545.3" xml:space="preserve">
<polygon opacity="0.6" fill="#E7B7C0" points="96.76,507.62 4.01,508.12 3.76,41.37 112.072,41.245 111.697,3.339 209.26,3.401 
	209.291,37.12 187.01,37.089 187.51,151.37 158.76,151.12 159.26,219.37 187.26,219.62 187.01,279.37 97.51,278.87 "/>
<polygon opacity="0.6" fill="#FFF381" points="278.343,507.37 101.343,507.37 101.343,284.703 277.343,284.703 "/>
<polygon opacity="0.6" fill="#FBC563" points="459.343,541.37 282.343,541.37 282.343,284.703 458.343,284.703 "/>
<polygon opacity="0.6" fill="#FFF381" points="640.343,507.37 551.427,507.37 551.427,541.537 462.843,541.37 462.843,284.703 
	639.34,284.703 "/>
<polygon opacity="0.6" fill="#E7B7C0" points="821.51,469.37 808.51,470.37 808.51,506.87 648.01,506.87 645.01,220.37 
	725.51,219.87 726.01,49.87 819.01,49.87 "/>
<polygon opacity="0.6" fill="#FFF381" points="164.51,157.37 165.01,213.12 323.76,213.62 325.76,37.62 325.51,3.87 213.51,3.87 
	213.51,42.12 193.76,42.12 193.76,157.62 "/>
<polygon opacity="0.6" fill="#FBC563" points="718.343,50.037 718.343,213.037 507.01,213.037 507.01,3.703 619.677,3.703 
	619.677,50.703 "/>
</svg>
