<?xml version="1.0" encoding="utf-8"?>
<!-- Generator: Adobe Illustrator 19.0.1, SVG Export Plug-In . SVG Version: 6.00 Build 0)  -->
<svg version="1.1" id="OVER" xmlns="http://www.w3.org/2000/svg" xmlns:xlink="http://www.w3.org/1999/xlink" x="0px" y="0px"
	 width="870.15px" height="545.3px" viewBox="0 0 870.15 545.3" enable-background="new 0 0 870.15 545.3" xml:space="preserve">
<polygon opacity="0.6" fill="#E7B7C0" points="773.39,507.62 866.14,508.12 866.39,41.37 758.077,41.245 758.452,3.339 
	660.89,3.401 660.859,37.12 683.14,37.089 682.64,151.37 711.39,151.12 710.89,219.37 682.89,219.62 683.14,279.37 772.64,278.87 
	"/>
<polygon opacity="0.6" fill="#FFF381" points="591.807,507.37 768.807,507.37 768.807,284.703 592.807,284.703 "/>
<polygon opacity="0.6" fill="#FBC563" points="410.807,541.37 587.807,541.37 587.807,284.703 411.807,284.703 "/>
<polygon opacity="0.6" fill="#FFF381" points="229.807,507.37 318.723,507.37 318.723,541.537 407.307,541.37 407.307,284.703 
	230.809,284.703 "/>
<polygon opacity="0.6" fill="#E7B7C0" points="48.64,469.37 61.64,470.37 61.64,506.87 222.14,506.87 225.14,220.37 144.64,219.87 
	144.14,49.87 51.14,49.87 "/>
<polygon opacity="0.6" fill="#FFF381" points="705.64,157.37 705.14,213.12 546.39,213.62 544.39,37.62 544.64,3.87 656.64,3.87 
	656.64,42.12 676.39,42.12 676.39,157.62 "/>
<polygon opacity="0.6" fill="#FBC563" points="151.807,50.037 151.807,213.037 363.14,213.037 363.14,3.703 250.473,3.703 
	250.473,50.703 "/>
</svg>
