<?xml version="1.0" encoding="utf-8"?>
<!-- Generator: Adobe Illustrator 17.1.0, SVG Export Plug-In . SVG Version: 6.00 Build 0)  -->
<!DOCTYPE svg PUBLIC "-//W3C//DTD SVG 1.1//EN" "http://www.w3.org/Graphics/SVG/1.1/DTD/svg11.dtd">
<svg version="1.1" id="Layer_1" xmlns="http://www.w3.org/2000/svg" xmlns:xlink="http://www.w3.org/1999/xlink" x="0px" y="0px"
	 width="446.662px" height="115.26px" viewBox="0 0 446.662 115.26" enable-background="new 0 0 446.662 115.26"
	 xml:space="preserve">
<polygon points="51.19,89.392 41.988,102.381 41.988,89.392 39.181,89.392 39.181,102.381 29.988,89.392 26.479,89.392 
	34.553,99.96 26.234,114.662 29.498,114.662 36.236,102.171 39.181,105.855 39.181,114.662 41.988,114.662 41.988,105.855 
	44.937,102.171 51.68,114.662 54.939,114.662 46.628,99.96 54.693,89.392 "/>
<g>
	<defs>
		<rect id="SVGID_1_" y="0" width="446.662" height="115.26"/>
	</defs>
	<clipPath id="SVGID_2_">
		<use xlink:href="#SVGID_1_"  overflow="visible"/>
	</clipPath>
	<path clip-path="url(#SVGID_2_)" d="M69.659,89.392v20.639c0,0.912-0.034,1.892-0.067,2.807h0.067
		c0.354-1.159,0.461-2.071,1.019-3.474l7.862-19.972h4.07v25.27h-2.812V94.518c0-1.299,0.04-2.598,0.073-3.86h-0.073
		c-0.239,1.509-0.523,2.95-0.979,4.106l-7.894,19.898h-4.069v-25.27H69.659z"/>
	<path clip-path="url(#SVGID_2_)" d="M112.536,89.392v25.27h-2.814V91.92h-8.493v10.003c0,5.651-0.102,13.057-5.018,13.057
		c-0.523,0-1.123-0.073-1.689-0.213v-2.489c0.394,0.139,0.78,0.173,1.089,0.173c2.601,0,2.812-3.928,2.812-12.039v-11.02H112.536z"
		/>
	<path clip-path="url(#SVGID_2_)" d="M125.85,101.993c0-5.79,0.948-13.09,8.319-13.09c7.404,0,8.355,7.3,8.355,13.09
		c0,6.982-0.988,13.267-8.355,13.267C126.798,115.26,125.85,108.975,125.85,101.993 M134.104,91.43
		c-4.323,0-5.341,4.456-5.341,10.107c0,7.337,0.773,11.196,5.406,11.196c4.64,0,5.442-3.859,5.442-11.161
		C139.611,95.923,138.556,91.43,134.104,91.43"/>
	<path clip-path="url(#SVGID_2_)" d="M158.646,89.392v20.639c0,0.912-0.034,1.893-0.068,2.807h0.068
		c0.352-1.159,0.462-2.071,1.019-3.474l7.863-19.972h4.072v25.27h-2.806V94.518c0-1.299,0.031-2.598,0.065-3.86h-0.065
		c-0.248,1.509-0.529,2.95-0.988,4.106l-7.891,19.898h-4.072v-25.27H158.646z M160.298,83.533c0.425,1.753,1.579,2.423,3.225,2.423
		c1.728,0,2.775-0.599,3.166-2.423h1.438c0,3.018-2.034,4.314-4.739,4.314c-2.459,0-4.528-1.331-4.528-4.314H160.298z"/>
	<polygon clip-path="url(#SVGID_2_)" points="205.614,102.381 214.808,89.392 218.323,89.392 210.246,99.96 218.568,114.662 
		215.303,114.662 208.566,102.171 205.614,105.855 205.614,114.662 202.808,114.662 202.808,89.392 205.614,89.392 	"/>
	<path clip-path="url(#SVGID_2_)" d="M229.012,101.993c0-5.79,0.948-13.09,8.316-13.09c7.404,0,8.358,7.3,8.358,13.09
		c0,6.982-0.988,13.267-8.358,13.267C229.96,115.26,229.012,108.975,229.012,101.993 M237.26,91.43
		c-4.32,0-5.338,4.456-5.338,10.107c0,7.337,0.774,11.196,5.406,11.196c4.64,0,5.442-3.859,5.442-11.161
		C242.77,95.923,241.714,91.43,237.26,91.43"/>
	<path clip-path="url(#SVGID_2_)" d="M263.949,89.392l4.953,19.727c0.236,1.051,0.382,2.104,0.523,3.719h0.068
		c0.174-1.263,0.245-2.319,0.633-3.758l5.02-19.688h4.948v25.27h-2.809v-20.81c0-1.089,0.107-2.248,0.107-3.194h-0.107
		c-0.354,1.472-0.599,2.352-0.844,3.367l-5.296,20.637h-3.332l-5.305-20.915c-0.208-0.877-0.417-1.721-0.737-3.089h-0.065
		c0,1.333,0.098,2.174,0.098,3.262v20.742h-2.802v-25.27H263.949z"/>
	<polygon clip-path="url(#SVGID_2_)" points="309.375,89.392 309.375,114.662 306.578,114.662 306.578,91.92 296.914,91.92 
		296.914,114.662 294.111,114.662 294.111,89.392 	"/>
	<path clip-path="url(#SVGID_2_)" d="M339.301,89.392v25.27h-2.811V91.92h-8.491v10.003c0,5.651-0.104,13.057-5.02,13.057
		c-0.521,0-1.12-0.073-1.68-0.213v-2.489c0.385,0.139,0.771,0.173,1.086,0.173c2.595,0,2.809-3.928,2.809-12.039v-11.02H339.301z"/>
	<polygon clip-path="url(#SVGID_2_)" points="365.991,89.392 365.991,91.92 356.128,91.92 356.128,100.134 365.358,100.134 
		365.358,102.659 356.128,102.659 356.128,112.133 366.025,112.133 366.025,114.662 353.322,114.662 353.322,89.392 	"/>
	<polygon clip-path="url(#SVGID_2_)" points="381.877,102.381 391.068,89.392 394.586,89.392 386.509,99.96 394.825,114.662 
		391.561,114.662 384.826,102.171 381.877,105.855 381.877,114.662 379.071,114.662 379.071,89.392 381.877,89.392 	"/>
	<path clip-path="url(#SVGID_2_)" d="M417.619,96.974c0-3.053-1.016-5.544-4.528-5.544c-4.874,0-4.911,6.879-4.911,10.21
		c0,5.126,0.279,11.093,4.911,11.093c3.653,0,4.25-3.016,4.528-7.195h2.811c-0.32,5.828-1.758,9.722-7.128,9.722
		c-7.435,0-8.031-7.579-8.031-13.548c0-5.686,1.047-12.809,7.966-12.809c4.773,0,7.193,3.543,7.193,8.071H417.619z"/>
	<polygon clip-path="url(#SVGID_2_)" points="135.449,63.052 108.478,63.052 108.478,35.097 90.884,63.052 66.806,63.052 
		66.806,2.518 93.78,2.518 93.78,31.412 111.258,2.518 135.449,2.518 	"/>
	<polygon clip-path="url(#SVGID_2_)" points="214.276,63.052 187.302,63.052 187.302,40.667 174.05,40.667 174.05,63.052 
		147.073,63.052 147.073,2.518 174.05,2.518 174.05,24.752 187.302,24.752 187.302,2.518 214.276,2.518 	"/>
	<polygon clip-path="url(#SVGID_2_)" points="273.61,63.052 225.429,63.052 225.429,2.518 273.61,2.518 273.61,17.612 
		251.935,17.612 251.935,24.826 271.106,24.826 271.106,39.841 251.935,39.841 251.935,47.331 273.61,47.331 	"/>
	<polygon clip-path="url(#SVGID_2_)" points="365.234,63.052 339.476,63.052 336.099,39.449 329.438,63.052 316.422,63.052 
		309.758,39.449 306.387,63.052 280.59,63.052 288.782,2.518 316.74,2.518 322.923,28.038 329.083,2.518 357.039,2.518 	"/>
	<path clip-path="url(#SVGID_2_)" d="M34.282,42.93c-5.6,0-10.142-4.543-10.142-10.144c0-5.605,4.542-10.139,10.142-10.139
		c3.374,0,6.337,1.66,8.189,4.189l19.387-14.085c-0.844-1.075-1.742-2.123-2.749-3.125C52.611,3.208,44.34,0,34.307,0
		C24.292,0,16.029,3.208,9.5,9.626C3.169,15.877,0,23.598,0,32.786c0,9.216,3.169,16.946,9.5,23.203
		c6.496,6.379,14.766,9.58,24.807,9.58c10.033,0,18.304-3.21,24.802-9.622c1.007-0.996,1.905-2.053,2.749-3.131L42.471,38.73
		C40.619,41.264,37.656,42.93,34.282,42.93"/>
	<path clip-path="url(#SVGID_2_)" d="M425.297,2.517h-38.7l-21.363,60.535h27.638l3.135-10.428h19.916l3.138,10.428h27.601
		L425.297,2.517z M412.076,32.062l1.731,8.825l-7.86-4.374l-7.857,4.374l1.728-8.825l-6.586-6.122l8.93-1.085l3.785-8.16l3.793,8.16
		l8.924,1.085L412.076,32.062z"/>
</g>
</svg>
