<?xml version="1.0" encoding="utf-8"?>
<!-- Generator: Adobe Illustrator 17.1.0, SVG Export Plug-In . SVG Version: 6.00 Build 0)  -->
<!DOCTYPE svg PUBLIC "-//W3C//DTD SVG 1.1//EN" "http://www.w3.org/Graphics/SVG/1.1/DTD/svg11.dtd">
<svg version="1.1" id="Layer_1" xmlns="http://www.w3.org/2000/svg" xmlns:xlink="http://www.w3.org/1999/xlink" x="0px" y="0px"
	 width="134.668px" height="120.059px" viewBox="0 0 134.668 120.059" enable-background="new 0 0 134.668 120.059"
	 xml:space="preserve">
<g>
	<defs>
		<rect id="SVGID_1_" y="0" width="134.668" height="120.059"/>
	</defs>
	<clipPath id="SVGID_2_">
		<use xlink:href="#SVGID_1_"  overflow="visible"/>
	</clipPath>
	<path clip-path="url(#SVGID_2_)" fill-rule="evenodd" clip-rule="evenodd" fill="#5F842A" d="M124.485,73.074
		c-0.411-1.054-1.163-1.52-2.232-1.583c-3.356-0.206-6.949-0.87-9.188-4.378c-0.515-0.811-0.956-1.8-1.392-3.011
		c-2.302-6.398-0.166-15.3,0.848-20.091c0.63-2.884,1.239-6.441,0.507-6.757c-0.73-0.316-2.325,0.157-3.888,0.882
		c0-2.998-0.72-8.515-1.984-8.662c-0.656-0.078-2.083,1.034-3.567,2.413c-0.769-2.979-2.562-7.606-3.753-7.474
		c-0.71,0.079-1.979,1.71-3.208,3.557c-1.191-3.047-3.264-7.006-4.41-6.773c-0.72,0.147-1.847,1.861-2.935,3.846
		c-1.727-2.96-4.488-6.678-5.629-6.252c-0.735,0.272-1.651,2.313-2.475,4.601c-1.763-2.888-5.589-7.658-6.871-7.073
		c-0.702,0.319-1.458,2.357-2.104,4.655c-1.87-2.83-5.842-7.442-7.099-6.815c-0.774,0.387-1.54,2.927-2.141,5.568
		c-2.068-3.043-6.068-7.631-7.368-6.987c-0.978,0.485-1.947,4.18-2.633,7.47c-2.225-2.947-6.278-7.178-7.525-6.492
		c-0.977,0.536-1.803,4.422-2.35,7.79c-2.362-2.832-6.141-6.455-7.299-5.774c-0.731,0.429-1.32,2.79-1.757,5.385
		c-0.113-0.25-0.231-0.5-0.358-0.75c-2.298-4.532-5.998-6.049-9.79-5.336c-1.295,0.243-2.097,0.652-2.976,1.276
		c0.123-0.381,6.919-4.921,4.923-16.309c-8.519,4.122-10.425,10.097-8.927,15.883c-1.317-1.851-2.155-2.601-3.133-3.29
		c-0.98-0.688-1.757,0.02-2.334,1.027c-0.791,1.386,4.127,2.689,5.765,5.078c-0.132,0.044-0.266,0.086-0.401,0.12
		c-7.23,1.908-10.534,7.428-7.084,13.586c0.364,0.654,0.772,1.276,1.217,1.869c-2.886-0.064-6.217,0.225-6.435,1.176
		c-0.178,0.776,1.234,2.844,2.77,4.809c-2.71,1.024-5.727,2.555-5.572,3.522c0.117,0.718,1.862,1.936,3.809,3.087
		c-2.563,1.702-5.925,4.525-5.464,5.548c0.247,0.549,1.666,1.137,3.388,1.669c-1.859,2.354-3.868,5.563-3.184,6.347
		c0.336,0.385,1.483,0.553,2.919,0.602c-1.024,2.676-1.855,5.853-1.042,6.374c0.308,0.197,0.987,0.169,1.861,0.011
		c2.505,22.254,35.992,29.648,55.047,29.983c18.803,0.331,35.117-4.769,46.606-9.603c5.307-2.231,12.876-6.207,17.594-10.766
		C124.367,75.932,125.041,74.511,124.485,73.074 M34.89,72.924c-0.04,0.302-0.096,0.549-0.176,0.731
		c-0.079,0.19-0.178,0.328-0.294,0.414c-0.111,0.082-0.25,0.126-0.382,0.126H19.946c-0.506,0-0.94-0.151-1.29-0.453
		c-0.347-0.301-0.524-0.795-0.524-1.48V45.966c0-0.686,0.175-1.179,0.524-1.48c0.351-0.304,0.781-0.456,1.29-0.456h14.021
		c0.135,0,0.266,0.042,0.374,0.12c0.102,0.076,0.198,0.215,0.277,0.407c0.073,0.198,0.136,0.446,0.176,0.747
		c0.04,0.311,0.056,0.693,0.056,1.161c0,0.439-0.016,0.804-0.056,1.115c-0.04,0.301-0.096,0.548-0.176,0.732
		c-0.079,0.191-0.173,0.329-0.277,0.411c-0.108,0.089-0.242,0.128-0.374,0.128h-9.725v7.351h6.903c0.143,0,0.272,0.045,0.382,0.128
		c0.115,0.086,0.215,0.215,0.294,0.397c0.079,0.174,0.135,0.417,0.176,0.726c0.039,0.3,0.055,0.665,0.055,1.096
		c0,0.453-0.015,0.828-0.055,1.123c-0.041,0.293-0.097,0.531-0.176,0.707c-0.081,0.181-0.18,0.307-0.294,0.381
		c-0.111,0.072-0.244,0.119-0.382,0.119h-6.903v8.496h9.796c0.144,0,0.272,0.043,0.382,0.127c0.116,0.088,0.215,0.223,0.294,0.414
		c0.08,0.184,0.136,0.431,0.176,0.732c0.039,0.309,0.054,0.684,0.054,1.137C34.944,72.239,34.929,72.613,34.89,72.924
		 M68.995,73.813c-0.088,0.115-0.255,0.22-0.5,0.297c-0.235,0.07-0.568,0.137-0.972,0.173c-0.404,0.037-0.929,0.057-1.581,0.057
		c-0.661,0-1.197-0.02-1.601-0.057c-0.412-0.036-0.75-0.108-0.993-0.19c-0.253-0.086-0.435-0.203-0.549-0.351
		c-0.113-0.145-0.226-0.328-0.294-0.548l-2.141-6.842c-0.279-0.899-0.581-1.673-0.907-2.315c-0.321-0.634-0.704-1.162-1.138-1.576
		c-0.427-0.408-0.94-0.714-1.511-0.906l-0.119-0.037V73.36c0,0.166-0.047,0.311-0.142,0.429c-0.088,0.12-0.248,0.215-0.469,0.304
		c-0.232,0.087-0.533,0.152-0.924,0.19c-0.381,0.04-0.874,0.057-1.455,0.057c-0.589,0-1.083-0.017-1.463-0.057
		c-0.39-0.038-0.693-0.103-0.924-0.19c-0.223-0.089-0.374-0.184-0.46-0.304c-0.089-0.118-0.128-0.263-0.128-0.429V61.518
		l-0.118,0.037c-0.57,0.192-1.083,0.498-1.513,0.906c-0.433,0.414-0.816,0.942-1.137,1.576c-0.326,0.642-0.626,1.416-0.908,2.315
		l-2.14,6.842c-0.068,0.22-0.179,0.403-0.294,0.548c-0.114,0.148-0.296,0.265-0.548,0.351c-0.244,0.082-0.585,0.154-0.995,0.19
		c-0.403,0.037-0.938,0.057-1.599,0.057c-0.652,0-1.179-0.02-1.582-0.057c-0.404-0.036-0.735-0.103-0.971-0.173
		c-0.245-0.077-0.414-0.182-0.501-0.297c-0.09-0.118-0.143-0.262-0.143-0.429c0-0.08,0.002-0.178,0.007-0.286
		c0.006-0.101,0.036-0.235,0.072-0.382c0.039-0.149,0.095-0.331,0.151-0.525c0.059-0.198,0.164-0.44,0.262-0.724l2.092-6.02
		c0.39-1.123,0.784-2.072,1.171-2.841c0.387-0.769,0.805-1.418,1.232-1.932c0.435-0.522,0.915-0.956,1.424-1.29
		c0.509-0.332,1.09-0.629,1.727-0.874v-0.024c-0.542-0.167-1.046-0.407-1.505-0.701c-0.451-0.289-0.884-0.686-1.271-1.169
		c-0.396-0.492-0.787-1.105-1.146-1.829c-0.36-0.728-0.729-1.615-1.074-2.658l-1.79-5.402c-0.164-0.495-0.293-0.894-0.35-1.176
		c-0.057-0.284-0.096-0.534-0.096-0.732c0-0.166,0.043-0.314,0.127-0.429c0.087-0.118,0.242-0.208,0.47-0.279
		c0.22-0.069,0.534-0.127,0.931-0.166c0.398-0.04,0.907-0.057,1.527-0.057c0.66,0,1.188,0.02,1.591,0.057
		c0.404,0.036,0.725,0.11,0.954,0.19c0.228,0.081,0.4,0.204,0.502,0.351c0.098,0.142,0.184,0.33,0.246,0.539l1.901,6.381
		c0.261,0.877,0.555,1.631,0.852,2.237c0.295,0.597,0.652,1.092,1.049,1.462c0.402,0.372,0.871,0.642,1.393,0.804V44.844
		c0-0.177,0.039-0.319,0.128-0.432c0.086-0.117,0.237-0.213,0.46-0.294c0.231-0.078,0.534-0.134,0.924-0.173
		c0.38-0.04,0.874-0.057,1.463-0.057c0.581,0,1.074,0.017,1.455,0.057c0.391,0.039,0.692,0.095,0.924,0.173
		c0.221,0.081,0.381,0.177,0.469,0.294c0.095,0.113,0.142,0.255,0.142,0.432v11.065c0.522-0.162,0.991-0.432,1.393-0.804
		c0.396-0.37,0.755-0.865,1.05-1.462c0.296-0.606,0.59-1.36,0.851-2.237l1.9-6.381c0.063-0.209,0.149-0.397,0.248-0.539
		c0.102-0.147,0.273-0.27,0.501-0.351c0.229-0.08,0.55-0.154,0.954-0.19c0.402-0.037,0.931-0.057,1.592-0.057
		c0.621,0,1.127,0.017,1.529,0.057c0.394,0.039,0.708,0.097,0.928,0.166c0.229,0.071,0.385,0.161,0.468,0.279
		c0.086,0.115,0.13,0.263,0.13,0.429c0,0.198-0.039,0.448-0.095,0.732c-0.059,0.282-0.187,0.681-0.353,1.176l-1.788,5.402
		c-0.346,1.043-0.716,1.93-1.073,2.658c-0.361,0.723-0.753,1.337-1.147,1.829c-0.388,0.483-0.821,0.88-1.272,1.169
		c-0.459,0.294-0.963,0.534-1.505,0.701v0.024c0.637,0.245,1.218,0.542,1.728,0.874c0.508,0.334,0.988,0.768,1.421,1.29
		c0.429,0.514,0.848,1.163,1.236,1.929c0.386,0.772,0.779,1.721,1.17,2.844l2.09,6.02c0.097,0.284,0.205,0.526,0.262,0.724
		c0.056,0.194,0.115,0.376,0.152,0.525c0.039,0.147,0.066,0.281,0.073,0.382c0.005,0.108,0.008,0.206,0.008,0.286
		C69.14,73.551,69.088,73.695,68.995,73.813 M95.359,73.409c0,0.15-0.05,0.286-0.152,0.404c-0.103,0.12-0.27,0.22-0.503,0.294
		c-0.227,0.076-0.551,0.138-0.947,0.176c-0.398,0.04-0.89,0.055-1.48,0.055c-0.588,0-1.081-0.015-1.48-0.055
		c-0.394-0.038-0.708-0.103-0.931-0.176c-0.231-0.074-0.386-0.176-0.475-0.294c-0.093-0.118-0.142-0.254-0.142-0.404V58.635
		c0-0.605,0.009-1.203,0.022-1.783c0.014-0.586,0.039-1.105,0.071-1.551h-0.049c-0.128,0.215-0.27,0.473-0.443,0.754L78.242,73.433
		c-0.105,0.175-0.256,0.319-0.379,0.437c-0.137,0.125-0.304,0.223-0.52,0.296c-0.205,0.068-0.46,0.117-0.764,0.142
		c-0.301,0.022-0.7,0.03-1.176,0.03c-0.604,0-1.098-0.015-1.465-0.055c-0.372-0.038-0.666-0.103-0.874-0.176
		c-0.214-0.078-0.358-0.181-0.429-0.301c-0.079-0.127-0.12-0.28-0.12-0.446V44.819c0-0.152,0.047-0.287,0.152-0.404
		c0.103-0.12,0.269-0.216,0.507-0.297c0.24-0.071,0.559-0.134,0.948-0.173c0.383-0.04,0.875-0.057,1.463-0.057
		c0.597,0,1.097,0.017,1.479,0.057c0.392,0.039,0.7,0.102,0.931,0.173c0.23,0.081,0.397,0.179,0.485,0.297
		c0.093,0.12,0.142,0.255,0.142,0.404v14.306c0,0.492-0.007,1.027-0.021,1.582c-0.016,0.564-0.04,1.108-0.072,1.632h0.05
		l11.067-17.544c0.098-0.157,0.223-0.287,0.348-0.405c0.127-0.12,0.293-0.22,0.502-0.294c0.203-0.076,0.47-0.129,0.781-0.159
		c0.309-0.032,0.706-0.049,1.191-0.049c0.591,0,1.068,0.017,1.433,0.057c0.364,0.039,0.654,0.097,0.874,0.173
		c0.216,0.076,0.368,0.177,0.456,0.297c0.083,0.117,0.128,0.262,0.128,0.429V73.409z M102.854,74.413
		c-1.646,0-2.978-1.332-2.978-2.976c0-1.644,1.332-2.979,2.978-2.979c1.644,0,2.977,1.335,2.977,2.979
		C105.831,73.081,104.498,74.413,102.854,74.413"/>
	<path clip-path="url(#SVGID_2_)" fill="#000" d="M12.942,111.366c-0.016,0.036-0.04,0.061-0.075,0.074c-0.036,0.014-0.089,0.015-0.161,0.003
		c-0.072-0.013-0.162-0.037-0.274-0.075c-0.111-0.037-0.252-0.093-0.422-0.166c-0.188-0.081-0.34-0.152-0.458-0.213
		c-0.116-0.061-0.204-0.116-0.263-0.163c-0.06-0.046-0.098-0.092-0.116-0.137c-0.018-0.045-0.027-0.091-0.027-0.139l0.054-1.656
		c0.01-0.23,0.004-0.427-0.015-0.592c-0.018-0.165-0.057-0.306-0.115-0.424c-0.058-0.117-0.137-0.218-0.235-0.301
		c-0.101-0.083-0.229-0.158-0.385-0.226l-0.342-0.147l-1.067,2.469c-0.016,0.035-0.043,0.06-0.083,0.074
		c-0.041,0.015-0.099,0.015-0.173,0.001c-0.073-0.012-0.165-0.037-0.274-0.074c-0.109-0.036-0.24-0.088-0.391-0.153
		c-0.153-0.066-0.28-0.126-0.384-0.182c-0.104-0.055-0.185-0.105-0.245-0.15c-0.061-0.044-0.1-0.087-0.117-0.126
		c-0.018-0.039-0.019-0.076-0.003-0.113l1.066-2.468l-0.335-0.145c-0.161-0.07-0.306-0.112-0.434-0.128
		c-0.129-0.016-0.257-0.005-0.384,0.033c-0.128,0.038-0.26,0.106-0.396,0.204c-0.134,0.098-0.283,0.229-0.444,0.393l-1.161,1.177
		c-0.035,0.033-0.075,0.058-0.12,0.076c-0.045,0.018-0.105,0.021-0.18,0.01c-0.074-0.011-0.173-0.038-0.296-0.08
		c-0.122-0.042-0.277-0.104-0.465-0.185c-0.165-0.072-0.3-0.136-0.403-0.19c-0.104-0.055-0.185-0.105-0.242-0.149
		c-0.059-0.044-0.096-0.083-0.112-0.12c-0.016-0.036-0.017-0.072,0-0.108c0.014-0.035,0.043-0.08,0.088-0.133
		c0.044-0.052,0.116-0.126,0.215-0.221l1.145-1.065c0.197-0.186,0.38-0.335,0.548-0.448c0.168-0.113,0.332-0.2,0.491-0.262
		c0.159-0.061,0.314-0.101,0.466-0.12c0.152-0.02,0.309-0.028,0.473-0.028l0.006-0.012c-0.092-0.083-0.179-0.177-0.26-0.284
		c-0.081-0.106-0.152-0.234-0.213-0.382c-0.06-0.149-0.109-0.322-0.145-0.521c-0.036-0.198-0.051-0.434-0.044-0.707l0.025-1.366
		c0.001-0.127,0.007-0.226,0.016-0.296c0.01-0.07,0.023-0.128,0.043-0.173c0.016-0.036,0.04-0.061,0.072-0.076
		c0.033-0.015,0.084-0.018,0.152-0.01c0.068,0.008,0.157,0.031,0.266,0.067c0.109,0.036,0.246,0.09,0.411,0.162
		c0.188,0.081,0.339,0.152,0.454,0.212c0.115,0.06,0.202,0.114,0.259,0.164c0.059,0.049,0.095,0.097,0.11,0.143
		c0.014,0.046,0.021,0.096,0.019,0.147l-0.089,1.514c-0.008,0.219-0.006,0.408,0.011,0.566c0.017,0.159,0.053,0.294,0.106,0.408
		c0.055,0.113,0.128,0.211,0.221,0.291c0.094,0.079,0.209,0.149,0.348,0.21l0.335,0.144l1.017-2.354
		c0.016-0.037,0.043-0.06,0.082-0.072c0.04-0.012,0.097-0.012,0.171,0.002c0.074,0.013,0.166,0.039,0.278,0.076
		c0.111,0.037,0.243,0.088,0.395,0.155c0.152,0.065,0.278,0.125,0.38,0.179c0.101,0.055,0.182,0.105,0.242,0.149
		c0.06,0.045,0.1,0.086,0.118,0.123s0.02,0.074,0.004,0.109l-1.017,2.354l0.342,0.149c0.135,0.057,0.264,0.093,0.389,0.104
		c0.125,0.011,0.249-0.003,0.372-0.042c0.123-0.04,0.249-0.107,0.377-0.2s0.267-0.216,0.418-0.368l1.069-1.091
		c0.037-0.037,0.076-0.066,0.117-0.089c0.042-0.022,0.099-0.029,0.173-0.02c0.073,0.008,0.169,0.031,0.287,0.072
		c0.118,0.04,0.268,0.1,0.452,0.179c0.165,0.071,0.298,0.134,0.4,0.189c0.101,0.054,0.178,0.104,0.23,0.147
		c0.053,0.045,0.087,0.084,0.1,0.12c0.014,0.034,0.014,0.07-0.002,0.106c-0.019,0.045-0.051,0.094-0.096,0.15
		c-0.045,0.054-0.114,0.126-0.204,0.214l-0.998,0.946c-0.193,0.187-0.373,0.337-0.542,0.45c-0.167,0.113-0.324,0.198-0.467,0.256
		c-0.145,0.057-0.282,0.093-0.41,0.109c-0.129,0.016-0.255,0.019-0.377,0.008l-0.006,0.014c0.113,0.118,0.215,0.238,0.304,0.362
		c0.09,0.124,0.164,0.263,0.222,0.418c0.057,0.155,0.102,0.333,0.131,0.535c0.03,0.201,0.045,0.437,0.045,0.708l0.001,1.561
		c0.003,0.069,0.003,0.13,0.003,0.179c-0.001,0.051-0.004,0.095-0.009,0.132c-0.006,0.037-0.013,0.068-0.02,0.091
		S12.95,111.348,12.942,111.366"/>
	<path clip-path="url(#SVGID_2_)" fill="#000" d="M20.428,113.831c-0.016,0.046-0.042,0.082-0.078,0.105c-0.036,0.023-0.091,0.035-0.161,0.034
		c-0.072-0.002-0.164-0.016-0.276-0.044s-0.25-0.07-0.416-0.126c-0.166-0.056-0.304-0.109-0.414-0.156
		c-0.11-0.048-0.196-0.095-0.261-0.14c-0.065-0.045-0.107-0.089-0.125-0.131c-0.019-0.042-0.021-0.087-0.005-0.132l0.937-2.754
		c0.066-0.193,0.14-0.393,0.223-0.596c0.082-0.204,0.168-0.401,0.259-0.591c-0.177,0.156-0.362,0.305-0.554,0.448
		c-0.193,0.143-0.388,0.284-0.585,0.423l-3.045,2.12c-0.058,0.037-0.112,0.066-0.161,0.088c-0.049,0.022-0.106,0.034-0.17,0.035
		c-0.064,0.001-0.143-0.01-0.232-0.033c-0.09-0.023-0.204-0.058-0.342-0.105c-0.166-0.056-0.3-0.107-0.401-0.152
		c-0.1-0.044-0.177-0.087-0.233-0.129c-0.056-0.042-0.09-0.084-0.103-0.128c-0.014-0.043-0.013-0.088,0.003-0.134l2.108-6.191
		c0.014-0.042,0.04-0.075,0.077-0.101c0.036-0.027,0.093-0.04,0.167-0.04c0.075,0,0.169,0.013,0.281,0.038
		c0.113,0.025,0.251,0.066,0.417,0.122c0.327,0.112,0.551,0.214,0.668,0.306c0.118,0.091,0.162,0.181,0.133,0.268l-0.933,2.739
		c-0.064,0.19-0.138,0.383-0.221,0.582c-0.083,0.198-0.167,0.388-0.255,0.569c0.174-0.147,0.348-0.292,0.526-0.435
		c0.177-0.142,0.359-0.278,0.547-0.405l3.068-2.119c0.054-0.039,0.108-0.068,0.162-0.088c0.052-0.021,0.114-0.03,0.183-0.03
		c0.07,0.001,0.151,0.011,0.244,0.032c0.093,0.022,0.211,0.057,0.354,0.105c0.162,0.056,0.294,0.106,0.396,0.151
		c0.104,0.046,0.182,0.09,0.237,0.135c0.053,0.043,0.087,0.088,0.097,0.133c0.01,0.045,0.008,0.09-0.009,0.137L20.428,113.831z"/>
	<path clip-path="url(#SVGID_2_)" fill="#000" d="M27.989,115.922c-0.013,0.046-0.038,0.084-0.075,0.111c-0.039,0.028-0.094,0.044-0.166,0.05
		c-0.073,0.006-0.167-0.001-0.285-0.021c-0.12-0.02-0.263-0.053-0.432-0.099c-0.174-0.047-0.317-0.092-0.429-0.135
		c-0.112-0.044-0.199-0.086-0.261-0.129c-0.061-0.042-0.1-0.084-0.117-0.126c-0.015-0.042-0.017-0.087-0.005-0.134l1.387-5.083
		l-1.275-0.348c-0.278,0.718-0.547,1.34-0.809,1.866c-0.263,0.527-0.521,0.973-0.778,1.337c-0.255,0.364-0.508,0.656-0.756,0.873
		c-0.249,0.217-0.501,0.375-0.754,0.472c-0.254,0.098-0.514,0.146-0.778,0.144c-0.265-0.001-0.533-0.039-0.806-0.113
		c-0.066-0.019-0.117-0.043-0.154-0.073c-0.037-0.031-0.061-0.076-0.069-0.136c-0.009-0.061-0.004-0.143,0.014-0.25
		c0.02-0.105,0.052-0.244,0.098-0.413c0.048-0.173,0.09-0.314,0.126-0.42c0.037-0.105,0.072-0.186,0.107-0.239
		c0.034-0.054,0.071-0.086,0.11-0.096c0.038-0.009,0.081-0.008,0.127,0.005c0.131,0.036,0.265,0.043,0.4,0.022
		c0.134-0.022,0.272-0.087,0.417-0.197c0.142-0.11,0.293-0.266,0.449-0.469c0.156-0.202,0.321-0.465,0.497-0.791
		c0.174-0.327,0.362-0.72,0.565-1.183c0.202-0.463,0.422-1.005,0.662-1.626c0.063-0.19,0.142-0.322,0.241-0.397
		c0.099-0.074,0.23-0.089,0.394-0.044l3.645,0.995c0.165,0.044,0.274,0.125,0.329,0.241c0.054,0.115,0.055,0.27,0.002,0.463
		L27.989,115.922z"/>
	<path clip-path="url(#SVGID_2_)" fill="#000" d="M36.898,114.445c-0.114,0.544-0.289,1.026-0.525,1.444c-0.237,0.418-0.534,0.759-0.894,1.022
		c-0.358,0.264-0.775,0.438-1.251,0.523c-0.475,0.084-1.007,0.066-1.593-0.057c-0.567-0.119-1.045-0.301-1.431-0.546
		c-0.387-0.244-0.688-0.547-0.902-0.905c-0.212-0.359-0.34-0.771-0.382-1.237c-0.042-0.467-0.004-0.982,0.114-1.544
		c0.113-0.544,0.29-1.026,0.529-1.446c0.24-0.42,0.539-0.76,0.898-1.022c0.357-0.261,0.773-0.434,1.247-0.519
		c0.472-0.085,1.003-0.067,1.589,0.056c0.572,0.12,1.051,0.301,1.439,0.544c0.388,0.242,0.687,0.542,0.897,0.9
		c0.212,0.358,0.338,0.77,0.38,1.237C37.055,113.361,37.017,113.879,36.898,114.445 M35.031,114.13
		c0.065-0.315,0.101-0.61,0.106-0.885c0.005-0.275-0.031-0.523-0.109-0.743c-0.079-0.221-0.205-0.406-0.38-0.558
		c-0.176-0.15-0.413-0.257-0.713-0.32c-0.267-0.057-0.512-0.057-0.732,0c-0.221,0.056-0.415,0.164-0.583,0.326
		c-0.168,0.161-0.313,0.368-0.432,0.619c-0.12,0.25-0.215,0.546-0.285,0.885c-0.066,0.314-0.101,0.609-0.104,0.885
		c-0.002,0.275,0.034,0.523,0.11,0.743c0.076,0.22,0.203,0.405,0.381,0.554c0.177,0.149,0.415,0.254,0.71,0.316
		c0.271,0.057,0.518,0.058,0.739,0.002c0.221-0.055,0.414-0.163,0.582-0.323c0.168-0.159,0.31-0.364,0.428-0.616
		C34.866,114.764,34.96,114.469,35.031,114.13"/>
	<path clip-path="url(#SVGID_2_)" fill="#000" d="M44.058,118.897c-0.007,0.048-0.026,0.087-0.057,0.118c-0.032,0.029-0.083,0.05-0.154,0.062
		c-0.071,0.011-0.164,0.014-0.278,0.007c-0.115-0.006-0.259-0.022-0.432-0.047c-0.173-0.025-0.319-0.051-0.436-0.079
		c-0.116-0.027-0.211-0.056-0.282-0.088c-0.072-0.033-0.12-0.068-0.148-0.106c-0.026-0.038-0.035-0.082-0.028-0.13l0.417-2.878
		c0.029-0.203,0.066-0.412,0.109-0.627c0.044-0.215,0.092-0.425,0.147-0.629c-0.146,0.186-0.299,0.367-0.463,0.542
		c-0.163,0.176-0.329,0.351-0.496,0.523l-2.606,2.641c-0.051,0.048-0.099,0.086-0.142,0.117c-0.044,0.03-0.098,0.052-0.161,0.066
		c-0.064,0.012-0.142,0.016-0.235,0.009c-0.091-0.006-0.211-0.019-0.355-0.04c-0.174-0.025-0.314-0.05-0.421-0.075
		c-0.108-0.026-0.191-0.055-0.254-0.085c-0.061-0.032-0.104-0.068-0.125-0.107c-0.021-0.04-0.028-0.084-0.021-0.133l0.939-6.472
		c0.006-0.043,0.025-0.081,0.057-0.114c0.032-0.032,0.085-0.055,0.158-0.069c0.072-0.014,0.167-0.019,0.282-0.014
		c0.115,0.004,0.26,0.019,0.434,0.043c0.341,0.051,0.579,0.11,0.712,0.178c0.132,0.069,0.192,0.149,0.179,0.24l-0.415,2.864
		c-0.029,0.198-0.066,0.401-0.111,0.612c-0.045,0.209-0.095,0.412-0.148,0.606c0.144-0.176,0.291-0.351,0.439-0.524
		c0.148-0.172,0.302-0.338,0.464-0.497l2.628-2.647c0.046-0.046,0.093-0.085,0.141-0.116c0.05-0.03,0.108-0.051,0.177-0.063
		c0.067-0.013,0.149-0.016,0.244-0.012c0.096,0.004,0.218,0.017,0.367,0.039c0.17,0.024,0.309,0.049,0.418,0.075
		c0.11,0.026,0.196,0.056,0.257,0.089c0.062,0.033,0.102,0.071,0.12,0.113c0.019,0.042,0.024,0.087,0.017,0.135L44.058,118.897z
		 M44.908,109.266c-0.041,0.285-0.126,0.545-0.254,0.783c-0.128,0.238-0.307,0.437-0.541,0.597c-0.232,0.16-0.524,0.272-0.875,0.335
		c-0.35,0.062-0.77,0.058-1.257-0.012c-0.472-0.069-0.868-0.179-1.185-0.328c-0.32-0.149-0.57-0.329-0.753-0.541
		c-0.184-0.211-0.305-0.453-0.364-0.725c-0.059-0.271-0.066-0.562-0.021-0.87c0.01-0.072,0.032-0.13,0.065-0.171
		c0.034-0.043,0.083-0.073,0.151-0.093c0.066-0.02,0.154-0.028,0.266-0.025c0.11,0.004,0.246,0.018,0.411,0.042
		c0.154,0.022,0.281,0.048,0.38,0.077c0.098,0.029,0.172,0.063,0.22,0.102c0.049,0.039,0.08,0.083,0.096,0.132
		c0.015,0.049,0.018,0.105,0.009,0.168c-0.019,0.13-0.013,0.254,0.016,0.371c0.03,0.118,0.084,0.222,0.161,0.315
		c0.079,0.092,0.179,0.171,0.302,0.236c0.124,0.065,0.265,0.109,0.424,0.132c0.154,0.022,0.298,0.02,0.429-0.005
		c0.131-0.025,0.248-0.072,0.349-0.142c0.101-0.068,0.182-0.156,0.245-0.263c0.062-0.106,0.103-0.227,0.122-0.362
		c0.009-0.058,0.026-0.107,0.051-0.148c0.027-0.041,0.069-0.073,0.129-0.095c0.06-0.024,0.138-0.036,0.235-0.036
		c0.095-0.001,0.215,0.008,0.36,0.029c0.174,0.026,0.316,0.053,0.428,0.081c0.111,0.028,0.199,0.062,0.262,0.101
		c0.063,0.039,0.105,0.083,0.125,0.132C44.914,109.133,44.918,109.194,44.908,109.266"/>
	<path clip-path="url(#SVGID_2_)" fill="#5F842A" d="M55.823,115.197c-0.048,0.842-0.186,1.567-0.413,2.176
		c-0.227,0.609-0.536,1.108-0.926,1.496c-0.391,0.387-0.858,0.667-1.402,0.838c-0.544,0.172-1.164,0.238-1.86,0.198
		c-0.238-0.013-0.481-0.045-0.73-0.096c-0.248-0.051-0.481-0.113-0.699-0.186c-0.218-0.074-0.411-0.156-0.578-0.249
		c-0.168-0.093-0.285-0.173-0.349-0.243s-0.107-0.127-0.126-0.172c-0.02-0.045-0.034-0.103-0.045-0.174
		c-0.011-0.072-0.017-0.158-0.018-0.258c-0.002-0.1,0.001-0.226,0.01-0.376c0.014-0.239,0.046-0.41,0.096-0.514
		c0.05-0.105,0.115-0.155,0.198-0.15c0.059,0.003,0.137,0.045,0.235,0.127c0.097,0.081,0.231,0.17,0.402,0.268
		c0.17,0.097,0.385,0.19,0.646,0.278c0.261,0.088,0.583,0.143,0.968,0.165c0.345,0.019,0.659-0.018,0.943-0.111
		c0.284-0.094,0.533-0.247,0.747-0.459s0.39-0.483,0.526-0.812c0.136-0.329,0.225-0.716,0.27-1.163l-3.916-0.223
		c-0.049-0.003-0.09-0.018-0.123-0.047c-0.033-0.028-0.059-0.073-0.08-0.132c-0.021-0.06-0.035-0.138-0.042-0.233
		c-0.007-0.096-0.005-0.212,0.001-0.348c0.008-0.136,0.021-0.253,0.039-0.349c0.018-0.097,0.039-0.172,0.068-0.227
		c0.027-0.055,0.058-0.094,0.094-0.119c0.037-0.025,0.078-0.036,0.127-0.033l3.896,0.222c-0.012-0.401-0.072-0.757-0.181-1.069
		c-0.11-0.311-0.26-0.576-0.453-0.796c-0.192-0.222-0.429-0.392-0.71-0.513c-0.281-0.121-0.594-0.192-0.939-0.212
		c-0.317-0.018-0.598,0.003-0.846,0.062c-0.246,0.059-0.461,0.128-0.644,0.205c-0.182,0.078-0.332,0.15-0.448,0.22
		c-0.117,0.069-0.202,0.102-0.255,0.099c-0.029-0.002-0.056-0.014-0.082-0.038c-0.025-0.023-0.047-0.061-0.062-0.113
		c-0.017-0.052-0.03-0.123-0.036-0.211c-0.007-0.088-0.007-0.198,0-0.329c0.008-0.146,0.019-0.27,0.032-0.371
		c0.014-0.103,0.029-0.186,0.048-0.25c0.017-0.065,0.039-0.12,0.064-0.165c0.024-0.045,0.061-0.088,0.11-0.13
		c0.047-0.041,0.145-0.097,0.291-0.17c0.145-0.072,0.329-0.137,0.549-0.195c0.22-0.058,0.469-0.105,0.746-0.141
		c0.279-0.035,0.581-0.043,0.906-0.025c0.647,0.037,1.226,0.171,1.738,0.402c0.511,0.232,0.938,0.56,1.279,0.985
		c0.342,0.424,0.595,0.942,0.758,1.554C55.809,113.702,55.869,114.404,55.823,115.197"/>
	<path clip-path="url(#SVGID_2_)" fill="#5F842A" d="M64.174,119.715c0.001,0.054-0.014,0.099-0.042,0.136
		c-0.029,0.037-0.081,0.067-0.157,0.092c-0.075,0.025-0.176,0.044-0.303,0.057c-0.127,0.013-0.289,0.021-0.489,0.022
		c-0.21,0.001-0.379-0.004-0.508-0.014c-0.13-0.011-0.233-0.03-0.31-0.057c-0.08-0.025-0.137-0.062-0.177-0.108
		c-0.039-0.046-0.07-0.103-0.089-0.171l-0.775-2.099c-0.11-0.306-0.224-0.562-0.342-0.768c-0.119-0.206-0.249-0.373-0.392-0.501
		c-0.143-0.128-0.303-0.219-0.484-0.271c-0.18-0.052-0.383-0.078-0.608-0.076l-0.43,0.003l0.028,3.785
		c0.001,0.054-0.014,0.099-0.043,0.136c-0.028,0.037-0.08,0.069-0.152,0.096c-0.074,0.028-0.171,0.048-0.292,0.061
		c-0.122,0.013-0.278,0.02-0.468,0.021c-0.186,0.002-0.34-0.003-0.464-0.015c-0.124-0.01-0.223-0.029-0.297-0.056
		c-0.073-0.026-0.126-0.057-0.157-0.093c-0.032-0.037-0.048-0.082-0.049-0.135l-0.066-8.937c0-0.054,0.015-0.099,0.046-0.135
		c0.032-0.037,0.084-0.068,0.157-0.093c0.073-0.024,0.172-0.043,0.296-0.057c0.123-0.013,0.278-0.02,0.463-0.021
		c0.191-0.002,0.346,0.003,0.467,0.014c0.122,0.012,0.22,0.029,0.294,0.053c0.073,0.024,0.124,0.054,0.154,0.09
		c0.029,0.036,0.044,0.082,0.044,0.135l0.027,3.551l0.431-0.003c0.219-0.001,0.412-0.032,0.577-0.092
		c0.166-0.06,0.314-0.154,0.447-0.281c0.133-0.128,0.254-0.293,0.362-0.496c0.108-0.203,0.212-0.454,0.312-0.751l0.622-1.89
		c0.024-0.068,0.053-0.126,0.086-0.173c0.034-0.046,0.089-0.083,0.164-0.111c0.075-0.027,0.175-0.047,0.299-0.06
		c0.125-0.013,0.291-0.02,0.501-0.022c0.189-0.001,0.346,0.004,0.47,0.014c0.125,0.012,0.222,0.028,0.293,0.05
		c0.071,0.021,0.12,0.049,0.144,0.086c0.023,0.037,0.037,0.082,0.037,0.135c0,0.064-0.01,0.141-0.031,0.235
		c-0.022,0.092-0.058,0.214-0.111,0.366l-0.623,1.685c-0.115,0.313-0.23,0.579-0.344,0.799c-0.116,0.22-0.238,0.407-0.366,0.562
		c-0.127,0.154-0.263,0.281-0.406,0.379c-0.142,0.098-0.302,0.18-0.476,0.245v0.007c0.195,0.081,0.372,0.174,0.531,0.277
		c0.159,0.104,0.309,0.235,0.449,0.395c0.14,0.16,0.273,0.357,0.402,0.589c0.129,0.233,0.26,0.519,0.394,0.86l0.789,1.952
		c0.079,0.2,0.127,0.336,0.143,0.412C64.165,119.605,64.174,119.666,64.174,119.715"/>
	<path clip-path="url(#SVGID_2_)" fill="#5F842A" d="M73.39,114.45c0.061,0.782,0.017,1.489-0.129,2.121
		c-0.145,0.632-0.395,1.177-0.745,1.636c-0.35,0.461-0.8,0.825-1.348,1.095c-0.548,0.27-1.193,0.434-1.936,0.491
		c-0.734,0.057-1.382,0.011-1.943-0.138c-0.561-0.15-1.039-0.407-1.434-0.772c-0.395-0.365-0.706-0.844-0.936-1.437
		c-0.229-0.593-0.377-1.305-0.441-2.136c-0.059-0.762-0.015-1.456,0.132-2.081c0.147-0.624,0.395-1.165,0.746-1.622
		c0.35-0.457,0.8-0.822,1.347-1.094c0.549-0.273,1.197-0.438,1.945-0.495c0.714-0.056,1.351-0.011,1.913,0.137
		c0.56,0.147,1.04,0.403,1.437,0.768c0.398,0.364,0.713,0.84,0.947,1.425C73.178,112.934,73.326,113.634,73.39,114.45
		 M71.387,114.708c-0.039-0.496-0.113-0.943-0.222-1.342c-0.109-0.4-0.268-0.737-0.478-1.012c-0.209-0.274-0.476-0.478-0.798-0.612
		c-0.323-0.133-0.719-0.182-1.185-0.146c-0.47,0.036-0.857,0.156-1.159,0.358c-0.303,0.202-0.539,0.458-0.71,0.769
		c-0.171,0.312-0.282,0.668-0.331,1.07c-0.05,0.403-0.056,0.825-0.022,1.267c0.04,0.514,0.114,0.974,0.224,1.379
		c0.11,0.404,0.268,0.745,0.475,1.021c0.207,0.278,0.473,0.481,0.795,0.609c0.323,0.129,0.72,0.176,1.191,0.138
		c0.471-0.036,0.858-0.153,1.159-0.353c0.302-0.199,0.54-0.457,0.71-0.774c0.17-0.315,0.281-0.677,0.33-1.084
		C71.415,115.589,71.422,115.16,71.387,114.708"/>
	<path clip-path="url(#SVGID_2_)" fill="#000" d="M84.307,117.51c0.006,0.039-0.002,0.073-0.023,0.104c-0.023,0.031-0.067,0.06-0.131,0.087
		c-0.065,0.028-0.155,0.056-0.272,0.084c-0.116,0.029-0.262,0.058-0.441,0.086c-0.202,0.032-0.368,0.054-0.5,0.065
		c-0.132,0.011-0.237,0.015-0.317,0.01c-0.08-0.004-0.139-0.02-0.178-0.049c-0.039-0.029-0.072-0.065-0.099-0.11l-0.845-1.441
		c-0.105-0.195-0.211-0.356-0.317-0.482c-0.107-0.126-0.218-0.223-0.332-0.291s-0.239-0.109-0.375-0.125
		c-0.137-0.016-0.288-0.01-0.456,0.018l-0.368,0.059l0.421,2.626c0.004,0.033-0.007,0.069-0.035,0.106
		c-0.03,0.036-0.078,0.072-0.146,0.107c-0.068,0.037-0.159,0.07-0.272,0.1c-0.115,0.031-0.253,0.059-0.416,0.086
		c-0.169,0.026-0.312,0.043-0.428,0.049c-0.118,0.007-0.215,0.004-0.291-0.009c-0.076-0.013-0.133-0.032-0.168-0.058
		c-0.037-0.026-0.058-0.057-0.063-0.09l-1.043-6.515c-0.006-0.034,0.005-0.069,0.031-0.105c0.026-0.037,0.074-0.071,0.142-0.104
		c0.07-0.034,0.16-0.065,0.274-0.096c0.113-0.03,0.255-0.059,0.422-0.087c0.165-0.026,0.304-0.042,0.421-0.048
		c0.119-0.007,0.214-0.005,0.29,0.005c0.077,0.01,0.133,0.028,0.172,0.054c0.038,0.026,0.061,0.056,0.067,0.09l0.4,2.503
		l0.368-0.059c0.15-0.024,0.281-0.063,0.396-0.119c0.114-0.055,0.214-0.132,0.299-0.232c0.084-0.1,0.158-0.227,0.22-0.38
		c0.062-0.152,0.114-0.339,0.159-0.558l0.32-1.472c0.006-0.051,0.023-0.097,0.051-0.138c0.028-0.042,0.075-0.079,0.141-0.111
		c0.067-0.033,0.16-0.064,0.281-0.094c0.121-0.028,0.284-0.059,0.486-0.091c0.176-0.029,0.323-0.048,0.438-0.056
		c0.115-0.009,0.206-0.008,0.275,0c0.067,0.009,0.115,0.025,0.143,0.047c0.029,0.023,0.046,0.053,0.052,0.092
		c0.008,0.048,0.008,0.107-0.001,0.178c-0.009,0.071-0.027,0.167-0.057,0.29l-0.316,1.309c-0.063,0.262-0.136,0.487-0.222,0.675
		c-0.085,0.19-0.178,0.348-0.278,0.478c-0.1,0.129-0.205,0.238-0.315,0.324c-0.109,0.086-0.216,0.158-0.321,0.214l0.003,0.014
		c0.159,0.039,0.31,0.084,0.451,0.136s0.28,0.125,0.416,0.222c0.137,0.096,0.273,0.221,0.408,0.374
		c0.135,0.154,0.276,0.342,0.42,0.566l0.859,1.343c0.039,0.058,0.07,0.108,0.095,0.151c0.024,0.043,0.044,0.082,0.059,0.116
		c0.015,0.035,0.026,0.064,0.032,0.088C84.299,117.47,84.304,117.491,84.307,117.51"/>
	<path clip-path="url(#SVGID_2_)" fill="#000" d="M90.985,112.634c0.116,0.544,0.15,1.054,0.103,1.533c-0.048,0.478-0.183,0.91-0.405,1.296
		c-0.221,0.386-0.533,0.714-0.933,0.983c-0.401,0.27-0.895,0.467-1.482,0.592c-0.566,0.12-1.076,0.147-1.528,0.078
		c-0.453-0.068-0.85-0.222-1.191-0.463c-0.339-0.241-0.623-0.568-0.85-0.977c-0.227-0.411-0.4-0.896-0.52-1.459
		c-0.115-0.543-0.148-1.055-0.098-1.537c0.05-0.48,0.185-0.913,0.408-1.297c0.222-0.383,0.532-0.71,0.931-0.978
		c0.398-0.269,0.89-0.466,1.476-0.591c0.571-0.122,1.084-0.15,1.536-0.084c0.452,0.066,0.848,0.219,1.186,0.461
		c0.337,0.242,0.62,0.568,0.846,0.978C90.691,111.579,90.865,112.067,90.985,112.634 M89.149,113.1
		c-0.066-0.315-0.153-0.599-0.26-0.853c-0.106-0.253-0.239-0.465-0.4-0.636c-0.161-0.169-0.352-0.288-0.572-0.356
		c-0.222-0.067-0.483-0.069-0.783-0.005c-0.266,0.056-0.489,0.155-0.669,0.295c-0.179,0.141-0.313,0.319-0.402,0.535
		c-0.088,0.215-0.137,0.461-0.145,0.74c-0.008,0.278,0.024,0.587,0.096,0.925c0.068,0.315,0.156,0.598,0.264,0.851
		c0.108,0.254,0.242,0.466,0.4,0.636c0.159,0.171,0.349,0.288,0.572,0.352c0.222,0.065,0.482,0.066,0.777,0.003
		c0.272-0.057,0.498-0.156,0.677-0.297c0.179-0.14,0.313-0.317,0.402-0.53c0.09-0.213,0.138-0.459,0.143-0.737
		C89.255,113.746,89.221,113.438,89.149,113.1"/>
	<path clip-path="url(#SVGID_2_)" fill="#000" d="M101.976,113.005c0.042,0.115,0.012,0.211-0.092,0.292c-0.103,0.08-0.306,0.163-0.605,0.248
		c-0.184,0.052-0.33,0.091-0.442,0.118c-0.111,0.027-0.199,0.039-0.263,0.037c-0.064-0.002-0.112-0.018-0.142-0.046
		c-0.031-0.029-0.057-0.072-0.078-0.127l-1.331-3.26c-0.049-0.118-0.101-0.249-0.154-0.396c-0.055-0.147-0.111-0.296-0.166-0.447
		c-0.056-0.151-0.11-0.302-0.163-0.452c-0.052-0.149-0.103-0.283-0.152-0.401l-0.043-0.178c0.003,0.136,0.006,0.285,0.009,0.446
		c0.003,0.162,0.003,0.327,0,0.494c-0.002,0.169-0.004,0.334-0.002,0.499c0.001,0.164,0,0.312-0.003,0.445l-0.114,3.786
		c-0.003,0.061-0.017,0.119-0.043,0.171c-0.026,0.053-0.069,0.102-0.129,0.147c-0.061,0.045-0.142,0.088-0.244,0.13
		c-0.102,0.042-0.233,0.086-0.392,0.131c-0.145,0.041-0.269,0.071-0.374,0.088c-0.104,0.016-0.193,0.022-0.269,0.016
		c-0.075-0.007-0.138-0.026-0.187-0.057c-0.05-0.032-0.09-0.077-0.122-0.133l-2.061-3.159c-0.073-0.111-0.152-0.235-0.24-0.372
		c-0.087-0.137-0.175-0.277-0.264-0.419c-0.088-0.142-0.173-0.284-0.256-0.425c-0.084-0.14-0.158-0.27-0.221-0.388l0.057,0.173
		c0.025,0.124,0.054,0.265,0.088,0.419c0.035,0.155,0.066,0.312,0.096,0.471c0.031,0.158,0.06,0.314,0.088,0.468
		c0.028,0.155,0.056,0.294,0.081,0.418l0.589,3.426c0.008,0.065,0.005,0.119-0.007,0.166c-0.013,0.046-0.048,0.09-0.106,0.132
		c-0.059,0.042-0.144,0.083-0.254,0.122s-0.257,0.085-0.44,0.137c-0.164,0.047-0.297,0.079-0.398,0.098
		c-0.101,0.018-0.182,0.022-0.243,0.013c-0.061-0.011-0.106-0.034-0.134-0.069c-0.027-0.035-0.048-0.084-0.06-0.146l-1.052-6.045
		c-0.035-0.208-0.012-0.378,0.067-0.509c0.079-0.132,0.229-0.229,0.449-0.291l0.892-0.255c0.188-0.053,0.351-0.084,0.49-0.093
		c0.14-0.01,0.268,0.007,0.387,0.049c0.118,0.043,0.227,0.115,0.327,0.218c0.102,0.103,0.203,0.239,0.307,0.407l1.315,1.95
		c0.082,0.129,0.166,0.264,0.251,0.404c0.086,0.14,0.171,0.28,0.257,0.421c0.086,0.14,0.166,0.276,0.242,0.409
		c0.075,0.133,0.146,0.259,0.21,0.377l0.007-0.002c-0.008-0.134-0.015-0.282-0.02-0.442c-0.005-0.161-0.009-0.324-0.014-0.49
		c-0.004-0.166-0.005-0.33-0.003-0.493s0.005-0.316,0.01-0.459l0.092-2.344c-0.002-0.181,0.009-0.341,0.031-0.476
		c0.023-0.136,0.068-0.252,0.136-0.35c0.069-0.098,0.163-0.183,0.284-0.256c0.122-0.072,0.278-0.136,0.47-0.191l0.886-0.252
		c0.224-0.064,0.406-0.061,0.546,0.009c0.139,0.069,0.246,0.202,0.322,0.398L101.976,113.005z"/>
	<path clip-path="url(#SVGID_2_)" fill="#000" d="M109.188,110.421c0.016,0.045,0.017,0.091,0.002,0.135c-0.016,0.044-0.052,0.091-0.109,0.136
		c-0.059,0.048-0.141,0.098-0.247,0.148c-0.106,0.052-0.243,0.108-0.413,0.17c-0.165,0.06-0.304,0.105-0.422,0.133
		c-0.116,0.03-0.212,0.046-0.29,0.048c-0.076,0.001-0.133-0.01-0.171-0.035c-0.037-0.025-0.065-0.061-0.082-0.107l-1.791-4.931
		l-2.314,0.84l1.791,4.932c0.017,0.046,0.016,0.091-0.001,0.136c-0.017,0.046-0.056,0.091-0.113,0.139
		c-0.059,0.046-0.141,0.095-0.246,0.147c-0.106,0.051-0.243,0.108-0.412,0.17c-0.17,0.061-0.312,0.106-0.426,0.135
		c-0.114,0.028-0.208,0.043-0.283,0.044c-0.075,0.001-0.131-0.011-0.168-0.036c-0.038-0.025-0.066-0.06-0.082-0.107l-2.107-5.804
		c-0.067-0.183-0.079-0.335-0.034-0.457c0.043-0.123,0.147-0.214,0.313-0.273l4.821-1.751c0.16-0.058,0.297-0.055,0.409,0.011
		c0.111,0.065,0.2,0.19,0.268,0.373L109.188,110.421z"/>
	<path clip-path="url(#SVGID_2_)" fill="#000" d="M116.423,107.329c0.019,0.045,0.022,0.09,0.011,0.135c-0.013,0.045-0.045,0.093-0.098,0.142
		c-0.053,0.05-0.132,0.104-0.236,0.162c-0.105,0.06-0.238,0.124-0.398,0.194c-0.166,0.072-0.304,0.126-0.419,0.163
		c-0.114,0.037-0.21,0.058-0.284,0.064c-0.074,0.006-0.131-0.003-0.17-0.025c-0.039-0.023-0.068-0.057-0.088-0.102l-2.106-4.829
		l-1.212,0.529c0.233,0.732,0.414,1.386,0.54,1.961c0.126,0.575,0.203,1.085,0.232,1.528c0.029,0.445,0.015,0.83-0.043,1.155
		c-0.056,0.325-0.154,0.606-0.291,0.841c-0.136,0.235-0.308,0.435-0.515,0.599c-0.207,0.165-0.441,0.304-0.699,0.417
		c-0.063,0.027-0.119,0.041-0.166,0.04c-0.048,0-0.095-0.021-0.139-0.063c-0.045-0.041-0.094-0.109-0.145-0.204
		c-0.051-0.094-0.113-0.222-0.183-0.382c-0.072-0.165-0.127-0.301-0.165-0.406c-0.038-0.107-0.061-0.19-0.068-0.254
		c-0.006-0.064,0.003-0.111,0.027-0.143c0.023-0.031,0.057-0.057,0.101-0.076c0.125-0.055,0.235-0.132,0.325-0.234
		c0.092-0.101,0.16-0.239,0.202-0.414c0.043-0.176,0.062-0.392,0.057-0.648c-0.005-0.254-0.042-0.564-0.11-0.927
		c-0.068-0.365-0.169-0.789-0.301-1.277c-0.133-0.486-0.301-1.047-0.503-1.682c-0.071-0.186-0.092-0.34-0.06-0.46
		c0.03-0.119,0.123-0.213,0.279-0.281l3.463-1.51c0.156-0.068,0.292-0.074,0.406-0.018c0.115,0.056,0.213,0.175,0.293,0.359
		L116.423,107.329z"/>
	<path clip-path="url(#SVGID_2_)" fill="#000" d="M121.847,100.717c0.103,0.2,0.134,0.37,0.095,0.511c-0.04,0.141-0.138,0.251-0.294,0.331
		l-3.526,1.818c0.126,0.247,0.271,0.456,0.433,0.627c0.162,0.171,0.344,0.294,0.544,0.369c0.2,0.075,0.42,0.097,0.659,0.067
		c0.24-0.03,0.5-0.118,0.781-0.263c0.286-0.147,0.526-0.297,0.722-0.449c0.196-0.153,0.36-0.295,0.491-0.426
		c0.133-0.131,0.241-0.244,0.324-0.339c0.082-0.095,0.156-0.159,0.22-0.192c0.039-0.021,0.076-0.03,0.11-0.028
		c0.034,0.002,0.069,0.018,0.107,0.048c0.037,0.03,0.077,0.079,0.121,0.147c0.043,0.068,0.092,0.156,0.149,0.264
		c0.049,0.096,0.089,0.178,0.119,0.247c0.03,0.07,0.054,0.131,0.069,0.183c0.016,0.051,0.023,0.099,0.023,0.14
		c0,0.042-0.007,0.084-0.02,0.129s-0.068,0.126-0.168,0.243c-0.098,0.116-0.231,0.25-0.401,0.4c-0.169,0.15-0.37,0.308-0.602,0.474
		c-0.233,0.166-0.491,0.323-0.777,0.47c-0.516,0.266-1.001,0.434-1.455,0.504s-0.879,0.039-1.276-0.091
		c-0.395-0.131-0.761-0.364-1.096-0.701c-0.336-0.337-0.643-0.776-0.922-1.318c-0.266-0.515-0.438-1.014-0.517-1.496
		c-0.078-0.483-0.064-0.934,0.043-1.354c0.107-0.42,0.305-0.799,0.593-1.139c0.287-0.34,0.661-0.629,1.12-0.866
		c0.485-0.25,0.936-0.392,1.354-0.426c0.419-0.034,0.802,0.018,1.154,0.157c0.352,0.14,0.669,0.356,0.951,0.649
		c0.282,0.293,0.528,0.643,0.738,1.05L121.847,100.717z M120.021,101.066c-0.224-0.466-0.501-0.779-0.833-0.939
		c-0.332-0.161-0.704-0.136-1.115,0.077c-0.208,0.107-0.369,0.239-0.483,0.396c-0.113,0.157-0.187,0.328-0.22,0.513
		c-0.035,0.185-0.032,0.38,0.006,0.587c0.04,0.209,0.107,0.417,0.203,0.624L120.021,101.066z"/>
	<path clip-path="url(#SVGID_2_)" fill="#000" d="M130.041,99.925c0.02,0.033,0.026,0.068,0.017,0.105c-0.009,0.037-0.038,0.08-0.088,0.13
		c-0.05,0.05-0.123,0.11-0.22,0.18c-0.098,0.07-0.224,0.151-0.378,0.245c-0.175,0.106-0.321,0.188-0.439,0.248
		c-0.118,0.059-0.214,0.102-0.289,0.128c-0.077,0.026-0.137,0.033-0.184,0.021c-0.047-0.011-0.092-0.033-0.133-0.065l-1.324-1.019
		c-0.17-0.141-0.329-0.25-0.475-0.328c-0.146-0.077-0.285-0.125-0.417-0.145c-0.131-0.02-0.262-0.012-0.394,0.024
		c-0.132,0.037-0.27,0.1-0.416,0.188l-0.319,0.192l1.375,2.278c0.017,0.029,0.019,0.066,0.006,0.11
		c-0.012,0.045-0.044,0.097-0.093,0.155c-0.051,0.059-0.122,0.124-0.216,0.195c-0.094,0.07-0.212,0.15-0.354,0.234
		c-0.146,0.088-0.272,0.158-0.379,0.207c-0.106,0.051-0.197,0.084-0.271,0.101c-0.076,0.017-0.135,0.02-0.179,0.009
		c-0.044-0.01-0.074-0.031-0.092-0.06l-3.409-5.649c-0.017-0.029-0.021-0.065-0.011-0.108c0.011-0.045,0.041-0.095,0.094-0.15
		c0.051-0.057,0.123-0.121,0.217-0.192c0.094-0.071,0.214-0.15,0.359-0.239c0.142-0.085,0.266-0.153,0.373-0.203
		c0.106-0.05,0.197-0.084,0.27-0.104c0.074-0.018,0.134-0.023,0.18-0.014c0.044,0.01,0.077,0.029,0.094,0.058l1.311,2.172
		l0.318-0.193c0.13-0.078,0.237-0.164,0.323-0.259c0.084-0.094,0.148-0.203,0.19-0.328c0.042-0.124,0.062-0.269,0.062-0.434
		c-0.001-0.165-0.021-0.357-0.062-0.577l-0.256-1.485c-0.013-0.049-0.014-0.098-0.004-0.147c0.011-0.049,0.04-0.101,0.09-0.156
		c0.048-0.056,0.124-0.12,0.225-0.191c0.102-0.073,0.24-0.163,0.416-0.268c0.153-0.093,0.282-0.165,0.385-0.216
		c0.103-0.051,0.188-0.085,0.254-0.102c0.067-0.018,0.117-0.021,0.152-0.011c0.035,0.011,0.062,0.033,0.082,0.066
		c0.026,0.041,0.046,0.097,0.066,0.165c0.018,0.068,0.037,0.165,0.056,0.291l0.197,1.331c0.041,0.266,0.057,0.502,0.049,0.709
		c-0.009,0.208-0.035,0.39-0.079,0.548c-0.045,0.157-0.102,0.297-0.17,0.418c-0.069,0.122-0.143,0.228-0.218,0.319l0.008,0.012
		c0.161-0.023,0.318-0.038,0.468-0.043c0.15-0.006,0.307,0.011,0.469,0.05c0.163,0.038,0.336,0.102,0.519,0.194
		c0.183,0.091,0.384,0.214,0.601,0.367l1.3,0.922c0.058,0.04,0.107,0.075,0.144,0.106c0.039,0.03,0.072,0.059,0.098,0.085
		c0.029,0.026,0.049,0.049,0.064,0.068C130.019,99.89,130.031,99.909,130.041,99.925"/>
	<path clip-path="url(#SVGID_2_)" fill="#000" d="M134.346,95.57c0.073,0.104,0.13,0.193,0.173,0.267c0.043,0.074,0.076,0.139,0.1,0.193
		c0.023,0.056,0.038,0.102,0.045,0.142s0.002,0.1-0.013,0.179c-0.016,0.079-0.059,0.193-0.129,0.339
		c-0.07,0.147-0.16,0.298-0.272,0.453s-0.243,0.309-0.395,0.462c-0.151,0.154-0.32,0.295-0.503,0.423
		c-0.411,0.287-0.82,0.477-1.227,0.571s-0.805,0.091-1.195-0.008c-0.391-0.099-0.766-0.29-1.127-0.573
		c-0.36-0.283-0.702-0.656-1.025-1.12c-0.374-0.535-0.629-1.044-0.768-1.527c-0.138-0.483-0.176-0.936-0.114-1.359
		c0.06-0.423,0.212-0.811,0.453-1.163s0.558-0.666,0.949-0.939c0.159-0.111,0.326-0.206,0.499-0.286
		c0.174-0.079,0.344-0.141,0.512-0.187c0.167-0.045,0.324-0.075,0.472-0.089c0.148-0.014,0.258-0.014,0.334-0.001
		c0.075,0.014,0.131,0.029,0.17,0.046c0.04,0.017,0.08,0.047,0.123,0.088s0.093,0.094,0.148,0.16
		c0.055,0.066,0.116,0.148,0.186,0.248c0.162,0.231,0.255,0.409,0.281,0.531c0.026,0.121,0.007,0.204-0.058,0.249
		c-0.067,0.047-0.159,0.07-0.274,0.066c-0.115-0.002-0.247-0.002-0.399,0.004c-0.151,0.003-0.318,0.028-0.502,0.072
		c-0.182,0.045-0.373,0.137-0.573,0.276c-0.391,0.273-0.586,0.633-0.583,1.08c0.003,0.446,0.207,0.961,0.614,1.545
		c0.201,0.287,0.404,0.523,0.61,0.706c0.205,0.184,0.41,0.314,0.615,0.391c0.205,0.076,0.41,0.098,0.615,0.065
		c0.205-0.033,0.41-0.122,0.614-0.264c0.208-0.144,0.365-0.3,0.471-0.467c0.108-0.166,0.19-0.326,0.249-0.481
		c0.059-0.153,0.104-0.288,0.137-0.402c0.033-0.115,0.075-0.191,0.128-0.227c0.035-0.025,0.072-0.036,0.11-0.033
		c0.037,0.004,0.082,0.027,0.134,0.071s0.111,0.105,0.178,0.184C134.175,95.333,134.254,95.438,134.346,95.57"/>
</g>
</svg>
