<?xml version="1.0" encoding="utf-8"?>
<!-- Generator: Adobe Illustrator 19.0.1, SVG Export Plug-In . SVG Version: 6.00 Build 0)  -->
<svg version="1.1" xmlns="http://www.w3.org/2000/svg" xmlns:xlink="http://www.w3.org/1999/xlink" x="0px" y="0px"
	 width="1145.9px" height="763.37px" viewBox="0 0 1145.9 763.37" enable-background="new 0 0 1145.9 763.37" xml:space="preserve">
<g id="Layer_1" display="none">
	
		<image display="inline" overflow="visible" width="4000" height="2501" xlink:href="1380-3-005_eji_exterior_0004.jpg"  transform="matrix(0.3052 0 0 0.3052 -37.502 -1.130000e-004)">
	</image>
</g>
<g id="Layer_2">
	<polygon opacity="0.6" fill="#FFFFFF" points="500.015,593.17 464.015,590.67 464.015,589.586 450.515,588.67 446.682,589.336 
		405.099,586.253 405.015,585.086 390.599,583.836 387.265,584.753 342.182,581.17 331.515,581.336 290.182,591.003 283.349,590.67 
		273.182,590.836 241.182,598.17 241.099,602.003 187.182,614.336 181.265,614.086 173.182,614.253 151.849,619.336 
		151.765,622.336 139.599,625.17 140.224,603.086 153.015,599.503 153.015,595.586 173.932,589.42 181.765,589.17 187.432,589.753 
		242.349,574.253 242.599,569.92 273.932,560.42 283.515,560.086 290.599,560.836 331.765,549.17 342.349,548.836 387.349,553.003 
		390.765,552.003 404.932,553.503 404.849,554.586 447.015,558.503 450.432,557.753 464.015,558.753 464.015,559.586 
		500.015,563.586 	"/>
	<polygon opacity="0.6" fill="#FFFFFF" points="499.932,561.753 464.265,558.17 464.015,557.107 450.515,555.976 446.682,556.798 
		405.099,552.995 405.015,551.555 390.599,550.013 387.265,551.144 342.182,546.724 331.515,546.929 290.182,558.854 
		283.765,558.253 274.182,558.42 242.015,567.586 242.015,572.42 188.015,587.878 182.182,587.586 174.349,587.586 152.432,593.878 
		152.265,597.982 140.349,601.368 140.765,579.602 152.849,575.344 153.099,570.59 174.432,563.172 182.265,562.921 
		188.349,563.254 242.953,545.024 243.015,539.899 273.932,528.126 283.515,527.715 291.203,528.461 331.765,514.248 
		342.349,513.836 387.349,518.977 390.765,517.743 404.932,519.593 404.849,520.93 447.015,525.761 450.432,524.836 464.015,526.07 
		464.015,527.098 500.015,532.032 	"/>
	<polygon opacity="0.6" fill="#FFFFFF" points="499.745,529.785 464.015,525.274 464.015,524.274 451.328,522.918 447.588,523.896 
		406.052,519.375 405.992,517.665 391.587,515.832 388.26,517.176 343.179,511.922 332.514,512.167 291.181,526.339 
		284.765,525.625 275.182,525.823 242.14,537.211 242.078,542.774 188.515,561.399 182.89,560.899 174.703,561.211 153.015,568.961 
		152.89,573.649 140.39,578.086 140.765,555.461 153.703,550.711 153.765,545.274 175.328,536.524 182.89,536.274 188.765,536.836 
		243.265,515.274 243.14,508.836 274.932,495.819 284.515,495.331 291.578,496.024 332.765,479.325 343.349,478.836 
		388.349,484.945 391.765,483.479 405.932,485.678 405.849,487.267 448.015,493.009 451.432,491.91 465.015,493.376 465.14,495.461 
		499.922,500.462 	"/>
	<polygon opacity="0.6" fill="#FFFFFF" points="500.14,498.336 464.015,493.014 464.015,491.847 451.328,490.265 447.588,491.406 
		406.052,486.132 405.992,484.136 391.587,481.998 388.26,483.566 343.179,477.437 332.514,477.722 291.181,494.257 
		284.765,493.423 275.182,493.654 242.14,506.941 242.078,513.43 188.515,535.159 182.89,534.576 174.703,534.941 153.015,543.982 
		152.89,549.451 140.39,554.628 140.765,532.232 153.703,526.691 153.765,520.347 175.328,510.139 182.89,509.847 188.64,510.503 
		242.89,486.086 243.015,478.586 275.64,463.461 285.203,463.086 291.734,463.836 333.75,445.407 344.341,444.836 388.39,451.336 
		391.89,449.961 405.64,451.961 406.015,454.336 447.515,460.336 451.39,459.336 464.765,461.336 465.14,463.586 500.015,468.711 	
		"/>
	<polygon opacity="0.6" fill="#FFFFFF" points="501.14,466.539 465.015,460.4 465.015,459.055 452.328,457.231 448.588,458.546 
		407.052,452.463 406.992,450.162 392.587,447.696 389.26,449.504 344.179,442.435 333.514,442.764 292.181,461.834 
		285.765,460.872 276.182,461.139 243.14,476.462 243.078,483.947 189.515,509.008 183.89,508.335 175.703,508.755 154.015,519.183 
		153.89,525.491 141.39,531.461 142.349,508.67 154.682,502.42 154.765,495.17 176.515,484.086 184.015,483.67 189.765,484.42 
		243.932,456.836 244.015,448.253 276.64,431.317 286.203,430.885 292.734,431.75 334.75,410.494 345.341,409.836 389.39,417.333 
		392.89,415.747 406.64,418.054 407.015,420.793 448.515,427.713 452.39,426.56 464.849,428.92 464.765,431.086 501.015,437.372 	
		"/>
	<polygon opacity="0.6" fill="#FFFFFF" points="500.765,435.274 465.432,428.807 465.265,426.753 453.328,424.173 448.432,425.586 
		407.349,418.336 407.015,416.503 393.182,414.086 389.015,415.67 345.179,407.522 334.514,407.892 292.432,429.92 286.099,428.67 
		276.682,429.003 243.515,446.336 243.765,455.003 189.932,482.586 183.932,481.92 176.703,482.158 154.599,494.003 
		154.432,500.836 142.432,507.086 143.015,485.253 155.015,478.336 155.349,470.336 177.015,457.92 184.515,457.503 190.515,458.17 
		243.015,428.336 243.015,419.07 275.64,400.01 286.182,399.003 292.682,400.086 333.75,376.577 344.341,375.836 388.39,384.273 
		391.89,382.488 405.64,385.084 406.015,388.167 447.515,395.954 451.703,393.961 464.578,396.649 464.828,399.336 500.64,406.024 	
		"/>
	<polygon opacity="0.6" fill="#FFFFFF" points="500.765,403.991 465.432,396.793 465.265,394.508 453.328,391.636 448.182,393.836 
		407.015,385.753 407.015,383.099 393.182,380.409 389.015,382.172 345.179,373.103 334.514,373.515 292.432,398.032 
		286.099,396.641 276.682,397.012 243.515,416.304 243.765,425.95 189.932,456.651 183.932,455.909 176.703,456.175 
		154.599,469.358 154.432,476.963 142.432,483.92 143.015,462.024 154.953,454.586 155.39,445.961 178.265,432.024 185.078,431.836 
		191.078,432.024 245.14,398.336 245.328,388.836 275.64,368.742 286.182,367.621 292.682,368.827 333.75,342.66 344.89,341.649 
		389.203,351.274 391.89,349.24 406.765,352.211 406.89,354.524 448.578,363.586 452.099,361.67 465.015,364.399 464.828,367.992 
		500.64,375.436 	"/>
	<polygon opacity="0.6" fill="#FFFFFF" points="500.849,372.503 465.349,364.67 465.432,362.67 451.765,359.92 448.432,361.503 
		407.099,352.753 407.182,349.92 394.182,347.019 390.015,348.946 346.179,339.033 335.514,339.483 293.432,366.283 
		280.015,363.336 244.515,386.257 244.349,397.086 190.932,430.361 179.265,428.67 155.599,444.252 155.432,452.566 143.432,460.17 
		144.015,438.253 153.599,432.003 153.932,422.336 179.932,404.586 191.515,406.253 242.099,371.67 242.182,359.92 280.515,333.688 
		293.765,336.262 334.75,308.759 345.89,307.651 390.203,318.171 392.89,315.948 407.765,319.195 407.599,321.92 449.015,330.837 
		452.182,328.92 466.015,332.518 466.099,335.753 501.015,343.92 	"/>
	<polygon opacity="0.6" fill="#FFFFFF" points="500.849,341.712 465.349,333.249 465.432,331.089 451.765,328.118 448.432,329.828 
		407.099,320.376 407.182,317.315 394.182,314.181 390.015,316.262 346.179,305.553 335.514,306.04 293.432,334.992 
		280.015,331.809 242.015,358.503 241.765,369.753 190.932,404.217 180.099,402.086 153.682,421.253 153.432,430.336 
		143.265,436.836 144.099,415.42 154.099,408.003 154.182,397.753 179.932,378.372 191.515,380.173 242.099,342.812 
		242.182,330.118 280.515,301.779 293.765,304.56 334.75,274.848 345.89,273.651 390.203,285.016 392.89,282.614 407.765,286.123 
		407.599,289.066 449.015,298.699 452.182,296.628 466.015,300.515 466.099,304.01 501.015,312.833 	"/>
	<polygon opacity="0.6" fill="#FFFFFF" points="500.849,310.551 465.349,301.362 465.432,299.016 451.765,295.791 448.432,297.648 
		407.099,287.384 407.182,284.061 394.182,280.658 390.015,282.918 346.179,271.29 335.514,271.818 293.932,302.336 280.765,299.92 
		242.432,328.92 242.265,341.253 190.932,378.419 180.099,376.105 154.265,396.503 154.015,406.336 144.099,413.836 
		144.599,392.003 154.765,384.086 155.015,373.003 180.932,352.17 192.182,354.503 242.932,314.253 243.182,301.086 
		281.349,269.836 294.265,273.086 334.75,240.95 345.89,239.651 390.203,251.991 392.89,249.383 407.765,253.193 407.599,256.388 
		449.015,266.848 452.182,264.599 466.015,268.82 466.099,272.615 501.015,282.194 	"/>
	<polygon opacity="0.6" fill="#FFFFFF" points="500.849,278.521 466.349,269.559 466.432,267.015 452.765,263.518 449.432,265.531 
		408.099,254.403 408.182,250.8 393.64,247.086 390.265,249.086 346.015,237.211 336.515,238.086 294.765,270.961 281.765,267.994 
		243.432,299.436 243.265,312.808 191.932,353.103 181.099,350.595 155.265,372.71 155.015,383.372 145.099,391.503 145.89,368.711 
		155.89,360.086 156.39,347.711 181.515,326.086 193.14,328.336 243.89,285.461 244.14,271.211 281.89,238.336 295.265,241.902 
		335.75,207.06 346.89,205.651 391.203,219.031 393.89,216.202 408.765,220.333 408.599,223.798 450.015,235.138 453.37,232.7 
		466.015,236.586 466.015,240.836 501.203,250.776 	"/>
	<polygon opacity="0.6" fill="#CAF700" points="501.015,248.836 466.307,238.427 466.245,234.92 452.755,231.253 449.427,234.156 
		408.096,222.354 408.181,218.533 393.64,214.595 390.265,216.716 346.015,204.122 336.515,205.05 294.765,239.915 281.765,236.768 
		243.432,270.113 243.265,284.295 191.932,327.029 181.099,324.369 155.265,347.823 155.015,359.129 145.099,367.753 
		145.932,345.753 155.765,336.836 156.182,324.253 181.932,300.253 193.099,303.086 243.765,257.503 244.015,242.17 
		282.432,206.836 295.349,210.42 336.515,173.67 346.849,172.42 390.932,185.753 394.099,182.92 409.015,187.67 409.015,191.336 
		450.015,203.753 453.265,201.253 466.057,205.586 466.12,209.336 501.015,220.086 	"/>
	<polygon opacity="0.6" fill="#CAF700" points="501.39,218.024 466.39,206.961 466.265,203.586 453.078,199.399 449.765,201.774 
		409.096,189.55 409.181,185.484 394.64,181.294 391.265,183.55 347.015,170.151 337.515,171.138 295.765,208.234 282.765,204.886 
		244.432,240.365 244.265,255.454 192.932,300.923 182.099,298.092 156.265,323.047 156.015,335.078 146.099,344.253 
		146.828,322.774 156.765,313.274 156.828,300.336 182.265,274.961 193.328,277.711 244.328,228.649 244.828,213.399 
		282.828,175.649 295.453,179.274 337.39,140.461 347.078,139.086 391.578,153.461 394.89,150.586 408.703,155.586 408.89,158.961 
		449.64,172.274 452.953,170.211 466.14,174.336 466.078,177.961 501.203,189.336 	"/>
	<polygon opacity="0.6" fill="#FFFFFF" points="500.015,622.071 464.015,620.084 464.015,619.223 450.515,618.494 446.682,619.024 
		405.099,616.574 405.015,615.646 390.599,614.653 387.265,615.382 342.182,612.534 331.515,612.666 290.182,620.349 
		283.349,620.084 273.026,620.216 238.015,625.899 238.015,628.899 187.026,638.893 181.187,638.695 173.143,638.827 
		151.829,642.867 151.756,645.251 139.594,647.503 140.221,626.952 153.015,624.104 153.015,620.991 173.932,616.09 
		181.765,615.892 187.432,616.355 242.349,604.036 242.599,600.593 273.932,593.042 283.515,592.777 290.599,593.374 
		331.765,584.101 342.349,583.836 387.349,587.148 390.765,586.353 404.932,587.545 404.849,588.406 447.015,591.519 
		450.432,590.923 464.015,591.718 464.015,592.38 500.015,595.559 	"/>
	<polygon opacity="0.6" fill="#74C7FF" points="499.828,657.461 341.515,651.649 331.328,651.899 289.203,656.399 282.328,656.524 
		272.515,656.586 241.203,659.336 241.078,661.774 186.14,667.524 180.515,667.211 172.922,667.336 151.015,669.711 
		151.015,671.461 139.078,672.836 140.015,650.399 151.89,647.836 152.015,646.086 172.39,642.336 180.953,642.461 186.578,642.774 
		241.515,633.211 241.39,630.836 272.015,625.399 282.828,625.149 289.265,625.555 330.453,618.586 341.89,618.586 387.349,621.105 
		390.765,620.585 404.932,621.459 404.849,622.085 447.015,624.311 450.432,623.889 464.015,624.459 464.203,625.211 
		500.015,627.199 	"/>
	<polygon opacity="0.6" fill="#74C7FF" points="499.265,689.67 341.015,686.836 330.349,686.92 138.849,697.086 139.515,674.211 
		151.432,672.961 151.39,671.461 172.557,669.128 180.39,669.045 186.349,669.253 241.182,663.211 241.39,661.503 272.015,658.18 
		282.828,658.012 289.265,658.286 330.453,653.586 341.89,653.586 500.015,659.394 	"/>
	<polygon opacity="0.6" fill="#74C7FF" points="499.265,727.68 340.89,727.211 328.765,727.461 138.39,725.086 139.39,698.336 
		330.453,688.586 341.89,688.586 499.672,691.68 	"/>
	<polygon opacity="0.6" fill="#FFFFFF" points="847.516,580.67 872.516,583.295 877.099,582.607 886.099,583.461 886.182,584.92 
		907.766,587.211 912.391,586.253 919.974,587.211 920.057,588.503 938.807,590.545 938.307,566.378 919.891,564.253 
		919.682,562.253 911.849,561.17 907.349,562.211 885.932,559.628 885.391,557.753 877.307,556.795 872.599,558.003 
		846.932,554.545 820.182,558.378 815.818,557.753 806.25,558.086 682.016,576.753 682.016,578.586 665.974,581.211 
		665.807,590.503 628.182,595.753 628.266,597.586 597.266,601.295 593.286,600.92 585.984,601.253 542.974,607.17 543.016,608.378 
		532.182,609.753 532.266,627.42 543.016,626.003 543.307,624.753 587.016,619.545 593.641,619.628 597.016,619.753 
		627.682,616.503 628.432,615.232 665.599,610.951 665.682,602.685 682.349,600.844 682.932,598.924 806.932,583.588 
		816.016,583.337 820.599,583.67 	"/>
	<polygon opacity="0.6" fill="#FFFFFF" points="847.516,609.009 872.516,611.166 877.099,610.601 886.099,611.303 886.182,612.501 
		907.766,614.384 912.391,613.597 919.974,614.384 920.057,615.445 938.807,617.123 938.307,592.267 919.891,590.521 
		919.682,588.878 911.849,587.988 907.349,588.844 885.932,586.721 885.391,585.181 877.307,584.393 872.599,585.386 
		846.932,582.545 820.182,585.694 815.818,585.181 806.25,585.455 682.016,600.791 682.016,602.298 665.974,604.454 
		665.807,612.089 628.182,616.402 628.266,617.908 597.266,620.955 593.286,620.647 585.984,620.921 542.974,625.782 
		543.016,626.775 532.182,627.905 532.391,645.857 543.141,644.693 543.266,643.774 587.141,639.762 593.766,639.831 
		597.266,639.808 627.932,637.138 628.495,635.906 665.661,632.389 665.807,626.41 682.474,624.898 682.932,624.007 
		806.932,611.407 816.016,611.201 820.599,611.474 	"/>
	<polygon opacity="0.6" fill="#FFFFFF" points="848.266,633.586 872.516,635.515 877.099,635.062 921.057,637.95 938.766,639.586 
		938.307,618.348 919.891,616.946 919.682,615.628 911.849,614.913 907.349,615.6 885.932,613.897 885.391,612.66 877.307,612.028 
		872.599,612.825 846.932,610.545 820.182,613.072 815.818,612.66 806.25,612.88 682.016,625.189 682.016,626.398 665.974,628.129 
		665.807,634.256 628.182,637.718 628.266,638.926 597.266,641.372 593.286,641.124 585.984,641.344 542.974,645.246 
		543.016,646.042 532.182,646.949 532.391,662.357 543.141,661.423 543.266,660.685 587.141,657.465 593.766,657.52 
		597.266,657.503 627.932,655.359 628.495,654.371 665.661,652.548 665.807,647.75 682.474,646.536 682.932,645.821 
		807.016,635.836 816.766,635.461 821.391,635.711 	"/>
	<polygon opacity="0.6" fill="#74C7FF" points="848.266,664.583 938.766,669.02 938.307,644.315 848.141,638.586 820.766,640.461 
		817.141,640.336 807.516,640.586 682.016,649.373 682.016,650.267 665.974,651.547 665.807,656.078 628.182,658.638 
		628.266,659.531 597.266,661.34 593.286,661.157 585.984,661.319 542.974,664.204 543.016,664.793 532.182,665.464 
		532.766,682.586 593.766,679.836 597.391,679.586 629.016,678.586 629.016,678.086 666.516,676.336 666.578,673.211 
		807.047,666.247 816.781,665.969 821.398,666.154 	"/>
	<polygon opacity="0.6" fill="#74C7FF" points="848.849,692.92 939.016,694.753 938.307,670.349 848.516,666.211 820.182,667.777 
		815.818,667.576 806.25,667.684 682.016,673.685 682.016,674.275 665.974,675.119 665.807,678.106 628.182,679.794 
		628.266,680.384 597.266,681.576 593.286,681.455 585.984,681.563 542.974,683.465 543.016,683.853 533.349,684.336 
		533.432,701.92 	"/>
	<polygon opacity="0.6" fill="#74C7FF" points="850.266,728.753 939.807,725.586 939.161,696.42 848.838,694.545 534.016,703.586 
		534.016,719.753 	"/>
	<polygon opacity="0.6" fill="#FFFFFF" points="847.516,552.972 872.516,556.13 877.099,555.303 886.099,556.331 886.182,558.085 
		907.766,560.842 912.391,559.689 919.974,560.842 920.057,562.396 938.807,564.852 938.307,540.78 919.891,538.224 
		919.682,535.818 911.849,534.514 907.349,535.768 885.932,532.66 885.391,530.404 877.307,529.251 872.599,530.705 
		846.932,526.545 820.182,531.156 815.818,530.404 806.25,530.805 682.516,552.586 682.182,555.003 666.016,557.753 665.849,568.67 
		628.182,574.753 628.099,576.586 597.182,581.42 593.599,581.003 586.516,581.17 543.266,588.17 543.016,589.836 532.182,591.67 
		532.266,609.211 543.016,607.507 543.307,606.004 587.016,599.738 593.641,599.838 597.016,599.989 627.682,596.079 
		628.432,594.55 665.599,589.4 665.682,579.457 682.349,577.242 682.932,574.931 806.932,556.483 816.016,556.182 820.599,556.581 	
		"/>
	<polygon opacity="0.6" fill="#FFFFFF" points="846.516,525.395 871.516,529.081 876.099,528.116 885.099,529.315 885.182,531.363 
		906.766,534.581 911.391,533.235 918.974,534.581 919.057,536.395 937.807,539.262 937.266,514.711 918.828,511.711 
		918.682,509.369 910.849,507.848 906.349,509.311 884.932,505.683 884.391,503.05 876.307,501.704 871.599,503.401 
		845.932,498.545 819.182,503.928 814.818,503.05 805.25,503.518 682.766,528.336 682.328,531.024 665.578,534.336 665.703,547.149 
		628.453,553.836 627.703,555.899 597.203,561.524 593.703,561.086 586.891,561.336 543.516,569.399 543.453,570.961 
		533.078,573.274 532.766,590.524 543.328,588.336 543.453,587.024 587.078,580.024 593.516,579.774 597.203,580.211 
		627.766,575.336 628.203,573.649 666.016,567.274 666.016,556.024 681.953,553.586 682.578,551.211 805.963,529.493 
		815.031,529.141 819.607,529.608 	"/>
	<polygon opacity="0.6" fill="#FFFFFF" points="846.516,497.384 871.516,501.618 876.099,500.509 885.099,501.887 885.182,504.239 
		906.766,507.936 911.391,506.39 918.974,507.936 919.057,510.019 937.807,513.312 937.078,489.086 918.016,485.586 
		918.016,483.149 910.297,481.461 906.062,482.461 884.226,478.649 884.371,476.72 876.297,475.174 871.323,476.399 845.93,471.545 
		819.141,477.211 814.766,476.274 805.578,476.711 682.578,504.524 682.609,507.586 666.016,511.274 666.016,525.274 
		628.203,532.961 628.141,535.461 596.953,541.649 593.328,541.274 586.891,541.399 543.641,550.461 543.516,552.711 
		533.203,554.774 532.766,572.191 543.328,569.678 543.453,568.171 587.078,560.13 593.516,559.843 597.203,560.346 
		627.766,554.746 628.203,552.808 666.016,545.486 666.016,532.564 681.953,529.765 682.578,527.037 805.963,502.092 
		815.031,501.687 819.607,502.223 	"/>
	<polygon opacity="0.6" fill="#FFFFFF" points="846.516,469.472 871.516,474.253 876.099,473.001 884.432,474.67 884.516,476.753 
		906.266,481.469 910.266,480.253 918.766,482.003 918.578,483.711 937.807,487.457 937.078,463.102 918.016,459.15 
		918.016,456.398 910.297,454.492 906.062,455.622 884.226,451.317 884.371,449.138 876.297,447.393 871.323,448.776 
		845.93,443.295 819.141,449.693 814.766,448.635 805.578,449.129 682.578,480.534 682.609,483.992 666.016,488.156 
		666.016,503.964 628.203,512.644 628.141,515.467 596.953,522.454 593.328,522.031 586.891,522.172 543.641,531.405 
		543.516,533.945 533.203,536.274 532.766,553.941 543.328,551.104 543.453,549.401 587.078,540.323 593.516,539.998 
		597.203,540.566 627.766,534.243 628.203,532.055 666.016,523.787 666.016,509.196 681.953,506.035 682.578,502.955 
		805.963,474.787 815.031,474.33 819.607,474.936 	"/>
	<polygon opacity="0.6" fill="#FFFFFF" points="845.516,442.311 870.516,447.61 875.099,446.222 884.099,447.947 884.182,450.891 
		905.682,455.253 909.682,453.92 917.974,455.517 918.057,458.125 936.807,462.246 935.682,437.92 917.016,433.87 917.016,430.819 
		909.297,428.707 905.062,429.958 883.226,425.187 883.371,422.772 875.297,420.837 870.323,422.37 845.099,416.503 
		819.141,423.387 814.766,422.214 805.578,422.762 681.578,456.572 681.609,460.406 665.016,465.021 665.016,482.544 
		627.203,491.166 627.141,494.295 596.953,502.039 593.328,501.57 586.891,501.726 543.599,513.086 542.849,515.336 533.266,518.17 
		532.766,534.941 542.328,532.796 542.453,530.909 586.078,520.846 593.349,520.253 597.266,520.753 626.766,514.107 
		627.203,511.681 665.016,502.516 665.016,486.343 680.953,482.839 681.578,479.425 804.963,448.203 814.031,447.696 
		818.607,448.367 	"/>
	<polygon opacity="0.6" fill="#FFFFFF" points="845.516,414.871 870.516,420.696 875.099,419.171 884.099,421.066 884.182,424.302 
		905.682,429.097 909.682,427.632 917.391,429.388 917.474,432.254 936.807,436.785 935.682,412.044 917.016,407.593 
		917.016,404.239 909.297,401.917 905.062,403.293 883.226,398.048 883.371,395.394 875.297,393.267 870.323,394.952 
		845.099,388.503 819.141,396.07 814.766,394.781 805.578,395.382 681.578,432.548 681.609,436.761 665.016,441.834 
		665.016,461.096 627.203,470.573 627.141,474.012 596.953,482.525 593.328,482.009 586.891,482.181 543.599,494.668 
		542.849,497.142 533.266,500.256 532.766,516.691 542.328,514.333 542.453,512.259 586.078,501.197 593.349,500.546 
		597.266,501.096 626.766,493.79 627.203,491.124 665.016,481.05 665.016,463.272 680.953,459.42 681.578,455.667 804.963,421.348 
		814.031,420.791 818.607,421.528 	"/>
	<polygon opacity="0.6" fill="#FFFFFF" points="844.516,387.357 870.516,393.731 875.099,392.062 884.099,394.136 884.182,397.677 
		905.016,402.336 909.682,401.32 917.266,403.336 917.516,406.336 936.016,411.003 934.932,386.836 916.266,381.503 
		916.016,378.722 908.297,376.182 904.062,377.687 882.226,371.948 882.371,369.043 874.297,366.716 869.323,368.56 
		844.516,361.586 818.141,369.784 813.766,368.372 804.578,369.031 681.578,409.699 681.682,413.753 665.182,419.086 
		664.932,439.67 627.849,450.586 627.432,453.67 596.953,462.388 593.328,461.823 586.891,462.011 543.599,475.676 542.849,478.382 
		533.349,481.503 532.766,498.774 543.099,495.92 543.432,493.42 587.349,481.003 593.432,480.92 596.932,481.503 627.182,473.003 
		627.932,469.586 665.016,459.773 665.016,440.32 680.953,436.105 681.578,431.998 804.963,394.444 814.031,393.835 
		818.607,394.642 	"/>
	<polygon opacity="0.6" fill="#FFFFFF" points="844.516,359.564 869.891,366.711 874.391,365.836 882.641,368.086 883.016,370.461 
		904.516,376.461 909.016,375.086 916.516,377.336 917.641,380.086 935.141,384.961 934.682,361.749 916.016,355.959 
		915.516,352.94 907.797,350.182 904.187,351.816 882.351,345.585 882.371,342.307 874.297,339.78 868.823,341.908 844.016,334.336 
		817.391,342.961 813.266,342.078 804.078,342.793 681.766,385.711 681.682,389.971 664.807,396.011 664.557,418.108 
		627.849,429.709 627.557,433.432 597.078,442.896 593.203,442.533 586.766,442.738 543.641,457.086 543.766,459.961 
		533.349,463.524 532.766,480.524 543.099,477.425 543.432,474.711 587.349,461.231 593.432,461.141 596.932,461.774 
		627.182,452.546 627.745,448.837 665.016,438.183 665.016,417.064 680.766,412.488 681.484,408.029 804.917,367.258 
		814.008,366.597 818.595,367.473 	"/>
	<polygon opacity="0.6" fill="#FFFFFF" points="843.516,332.505 868.891,340.203 873.391,338.461 882.016,340.836 882.016,344.241 
		903.516,350.703 908.141,349.336 915.891,351.586 916.641,354.607 934.141,359.857 933.557,336.234 914.891,329.998 
		915.266,327.122 907.547,324.151 902.937,325.912 881.101,319.201 881.246,315.92 873.172,313.199 868.323,315.115 
		843.516,306.961 816.891,316.375 812.766,315.424 803.828,316.069 681.516,362.29 680.932,367.003 664.432,373.383 
		663.932,396.804 627.599,409.299 627.307,413.183 596.078,423.938 593.391,423.086 587.016,423.586 543.516,438.586 
		543.141,441.848 533.224,445.45 532.766,462.079 542.599,458.839 543.766,455.961 587.141,441.586 593.141,441.461 
		597.016,442.086 626.182,432.644 626.932,428.648 665.016,416.925 665.016,394.18 681.078,389.002 681.703,384.2 803.963,340.792 
		813.031,340.079 817.607,341.023 	"/>
	<polygon opacity="0.6" fill="#CAF700" points="843.516,305.317 868.891,313.56 873.391,311.695 882.016,314.239 882.016,317.885 
		903.516,324.805 908.141,323.341 915.891,325.751 916.641,328.986 934.141,334.608 933.307,311.143 915.349,304.586 
		915.599,301.385 907.88,298.204 903.182,299.92 881.101,292.069 881.246,288.555 873.099,286.086 868.182,288.336 843.349,279.67 
		816.849,289.92 812.682,288.836 803.849,289.336 681.516,338.214 680.932,343.26 664.432,350.093 663.932,375.175 627.599,388.556 
		627.307,392.715 596.078,404.234 593.391,403.321 587.016,403.857 543.516,419.921 543.141,423.413 533.432,427.17 
		533.182,444.336 543.266,440.67 543.766,437.528 587.141,422.133 593.141,421.999 597.016,422.669 626.182,412.556 
		626.932,408.278 665.016,395.723 665.016,371.365 681.078,365.82 681.703,360.678 803.963,314.191 813.031,313.428 
		817.607,314.438 	"/>
	<polygon opacity="0.6" fill="#CAF700" points="842.516,277.978 867.891,286.756 872.391,284.77 881.016,287.478 881.016,291.361 
		902.516,298.729 907.141,297.17 914.849,300.17 915.641,303.181 933.141,309.167 932.391,286.015 915.016,279.17 915.016,276.586 
		907.016,273.586 903.474,274.898 881.057,266.503 880.87,263.503 872.859,260.42 868.625,262.148 842.862,253.17 815.939,264.42 
		812.519,263.253 802.934,263.879 680.35,315.923 680.016,320.796 664.516,327.988 664.307,353.92 628.12,368.586 627.901,372.92 
		596.833,384.836 593.591,383.92 587.262,384.253 543.93,401.253 543.681,405.253 533.265,409.336 533.349,426.003 543.016,422.17 
		543.016,418.586 587.182,402.503 593.182,402.253 596.641,403.086 627.161,391.67 627.588,387.42 665.016,373.907 665.016,347.971 
		681.12,342.15 681.641,336.675 803.016,287.427 812.057,286.614 816.62,287.69 	"/>
</g>
</svg>
