<?xml version="1.0" encoding="utf-8"?>
<!-- Generator: Adobe Illustrator 19.0.1, SVG Export Plug-In . SVG Version: 6.00 Build 0)  -->
<svg version="1.1" id="OVER_1" xmlns="http://www.w3.org/2000/svg" xmlns:xlink="http://www.w3.org/1999/xlink" x="0px" y="0px"
	 width="1158.204px" height="838.988px" viewBox="0 0 1158.204 838.988" enable-background="new 0 0 1158.204 838.988"
	 xml:space="preserve">
<polygon opacity="0.6" fill-rule="evenodd" clip-rule="evenodd" fill="#E7B7C0" points="1132.601,782.295 1133.188,638.944 
	1156.786,635.981 1156.786,585.321 1132.061,586.398 1134.37,418.445 1156.786,417.46 1151.294,367.396 1137.164,367.527 
	1138.626,207.1 1111.592,184.867 1014.832,186.208 1016.272,482.152 897.063,482.152 897.063,561.538 722.95,562.77 721.41,568.466 
	722.71,833.422 971.573,834.329 998.537,813.355 996.66,790.446 1000.352,775.224 1125.364,773.709 "/>
<polygon opacity="0.6" fill-rule="evenodd" clip-rule="evenodd" fill="#C1D466" points="491.261,834.329 492.956,561.538 
	316.071,559.535 315.301,535.831 239.063,534.238 238.234,561.359 85.921,559.845 84.449,780.842 215.467,785.193 214.62,814.546 
	241.54,836.467 "/>
<polygon opacity="0.6" fill-rule="evenodd" clip-rule="evenodd" fill="#C1D466" points="667.914,478.253 665.22,189.142 
	661.939,143.952 780.206,144.184 779.294,195.146 900.604,183.599 1011.136,184.678 1009.127,474.85 802.463,476.945 "/>
<rect x="433.937" y="144.026" opacity="0.6" fill-rule="evenodd" clip-rule="evenodd" fill="#FFF381" width="228.972" height="334.227"/>
<polygon opacity="0.6" fill-rule="evenodd" clip-rule="evenodd" fill="#FBC563" points="433.376,477.483 433.992,185.38 
	111.807,184.678 89.91,204.493 88.846,495.956 88.846,556.238 235.383,556.697 235.347,530.938 313.762,532.596 317.302,529.825 
	317.302,475.516 "/>
</svg>
