<?xml version="1.0" encoding="utf-8"?>
<!-- Generator: Adobe Illustrator 19.0.1, SVG Export Plug-In . SVG Version: 6.00 Build 0)  -->
<svg version="1.1" id="OVER_2" xmlns="http://www.w3.org/2000/svg" xmlns:xlink="http://www.w3.org/1999/xlink" x="0px" y="0px"
	 width="1617.209px" height="719.818px" viewBox="0 0 1617.209 719.818" enable-background="new 0 0 1617.209 719.818"
	 xml:space="preserve">
<polygon opacity="0.6" fill-rule="evenodd" clip-rule="evenodd" fill="#C1D466" points="780.317,598.604 781.702,2.839 
	653.177,3.385 653.177,298.513 558.826,297.884 562.183,331.305 562.021,366.902 560.007,381.771 521.484,381.719 521.399,654.011 
	607.362,651.645 637.572,628.964 638.717,599.337 "/>
<polygon opacity="0.6" fill-rule="evenodd" clip-rule="evenodd" fill="#FBC563" points="1046.331,598.839 1046.447,374.083 
	998.023,379.716 1001.522,366.525 1001.451,330.775 1002.457,293.675 911.472,291.21 908.215,0.365 781.671,4.671 781.945,598.66 
	928.668,599.337 926.15,629.094 955.663,654.011 1044.655,655.132 "/>
<polygon opacity="0.6" fill-rule="evenodd" clip-rule="evenodd" fill="#E7B7C0" points="1533.972,304.457 1542.65,47.819 
	1545.016,26.669 1514.804,1.623 1409.87,3.225 1404.399,291.21 1314.718,298.765 1314.742,380.728 1270.72,379.771 
	1274.069,651.645 1360.032,651.645 1390.243,630.326 1387.645,599.337 1534.8,598.604 "/>
<polygon opacity="0.6" fill-rule="evenodd" clip-rule="evenodd" fill="#C1D466" points="1158.267,294.496 1408.401,294.499 
	1408.401,4.943 1156.1,2.459 "/>
<polygon opacity="0.6" fill-rule="evenodd" clip-rule="evenodd" fill="#FFF381" points="1158.248,291.911 1158.08,0.366 
	908.215,0.365 911.472,291.21 1027.58,294.355 1063.682,294.402 "/>
<polygon opacity="0.6" fill-rule="evenodd" clip-rule="evenodd" fill="#E7B7C0" points="176.538,606.429 174.513,630.077 
	202.311,651.645 291.964,655.132 292.952,377.84 249.731,377.583 250.106,365.827 250.106,331.305 251.124,293.765 156.305,294.763 
	153.564,2.06 47.801,2.669 18.795,24.894 18.795,48.021 17.21,182.713 1.424,183.865 3.227,236.37 21.681,237.446 19.733,400.68 
	1.424,401.035 3.227,453.539 17.265,453.539 21.712,602.472 "/>
<polygon opacity="0.6" fill-rule="evenodd" clip-rule="evenodd" fill="#FFF381" points="403.577,291.911 403.41,0.366 
	153.544,0.365 156.8,291.21 272.909,294.355 309.011,294.402 "/>
<polygon opacity="0.6" fill-rule="evenodd" clip-rule="evenodd" fill="#FBC563" points="406.701,294.496 656.836,294.499 
	656.836,4.943 404.535,2.459 "/>
</svg>
