<?xml version="1.0" encoding="utf-8"?>
<!-- Generator: Adobe Illustrator 19.2.0, SVG Export Plug-In . SVG Version: 6.00 Build 0)  -->
<!DOCTYPE svg PUBLIC "-//W3C//DTD SVG 1.1//EN" "http://www.w3.org/Graphics/SVG/1.1/DTD/svg11.dtd">
<svg version="1.1" id="Layer_2" xmlns="http://www.w3.org/2000/svg" xmlns:xlink="http://www.w3.org/1999/xlink" x="0px" y="0px"
	 width="1197.745px" height="799.667px" viewBox="0 0 1197.745 799.667" enable-background="new 0 0 1197.745 799.667"
	 xml:space="preserve">
<path opacity="0.79" fill="#F8FF7F" d="M808.55,133.982l-0.324,25.955l8.025-8.527l0.133-11.435l11.544-12.998l42.451,0.656
	l3.277,1.763l8.996,0.372l15.273-2.25l-0.094-3.187l60.625-11.713l6.188,2.623l17.433-2.811v-7.496l15.316-12.181l53.899,0.726
	l0.128,5.2l83.692,0.914l-0.249-28.673l-84.034-2.53l-0.273-3.654c0,0-50.595-1.687-51.719-1.124
	c-1.124,0.562-15.459,14.336-15.459,14.336l0.282,4.779l-18.552,4.217l-6.746-2.249l-60.718,12.931l0.281,2.249l-14.617,3.935
	l-9.557,0.281l-3.654-1.968l-41.846-1.406l-13.173,14.055v10.213L808.55,133.982z"/>
<polygon opacity="0.79" fill="#F8FF7F" points="808.511,161.535 808.436,167.809 794.198,183.362 794.386,193.013 802.819,193.294 
	816.242,178.582 816.379,167.398 828.071,156.517 870.518,157.407 873.47,159 882.746,159 898.066,156.634 898.207,153.062 
	958.223,142.28 965.672,144.69 983.1,141.186 982.96,134.164 998.139,122.501 1051.127,123.486 1051.163,126.93 1074.363,127.628 
	1074.365,131 1083.361,131 1139.207,131.648 1138.834,138.296 1153.078,129.203 1153.078,117.76 1134.57,117.338 1134.54,101.28 
	1051.125,99.593 1051.021,95.377 998.191,94.393 982.88,107.605 982.815,114.421 965.67,117.724 958.221,114.421 898.206,126.017 
	897.996,128.688 882.746,131.288 873.891,131.077 870.307,129.039 828.142,128.477 816.827,140.705 816.616,152.3 "/>
<polygon opacity="0.79" fill="#FFFFFF" points="804.599,192.498 804.669,218.219 816.687,206.975 816.616,195.801 827.72,186.243 
	870.307,187.087 873.821,188.281 882.816,188 898.207,185.962 898.277,182.167 958.152,172.259 965.161,174.859 982.078,171.977 
	982.078,165.442 997.698,154.971 1051.083,156.095 1074.964,156.517 1075.133,158.063 1139.028,159.047 1138.702,131.709 
	1074.078,130.796 1074.078,127.985 1051.042,127.633 1050.944,126.228 997.978,125.595 983.09,136.558 982.814,143.094 
	965.529,146.748 958.221,144.289 898.276,154.83 897.996,158.187 882.746,160.296 873.891,160.125 870.307,158.472 828.142,158.016 
	816.827,167.933 816.669,179.638 "/>
<polygon opacity="0.79" fill="#FFFFFF" points="804.373,219.835 804.486,244.924 816.525,235.437 816.632,225.58 828.149,214.776 
	869.96,215.127 873.893,216.814 882.818,216.954 897.996,214.635 898.207,212.278 958.117,202.609 965.373,205.146 982.881,202.266 
	982.955,195.801 997.926,185.741 1051.197,186.838 1075.021,187.25 1075.162,189.883 1139.043,190.843 1138.264,162.42 
	1074.078,160.78 1074.078,158.531 997.442,157.079 982.822,167.776 982.68,174.153 965.462,177.718 958.117,174.507 898.26,185.042 
	897.987,188.879 882.742,190.937 873.889,190.77 870.306,189.157 828.407,188.352 817.078,198.388 817.078,208.31 "/>
<polygon opacity="0.79" fill="#FFFFFF" points="804.373,246.446 804.486,270.036 816.525,261.115 816.632,251.848 828.277,242.605 
	869.953,242.886 873.82,244.432 882.886,244.573 898.066,242.605 897.996,239.934 958.012,231.08 965.531,233.188 982.96,230.517 
	982.89,225.176 997.718,216.181 1074.74,216.907 1074.986,219.344 1138.973,220.327 1138.832,192.357 1075.267,191.403 
	1075.021,188.609 998.001,187.438 983.102,197.496 982.82,203.492 965.531,206.845 958.052,203.826 898.078,213.731 
	898.078,216.743 882.576,218.711 873.912,218.36 870.282,216.603 828.325,216.181 817.078,226.28 817.078,235.609 "/>
<polygon opacity="0.79" fill="#FFFFFF" points="804.373,271.383 804.486,296.179 816.525,288.078 816.632,279.662 828.277,271.268 
	869.953,271.523 873.82,272.927 882.886,273.055 898.066,271.268 897.996,268.843 958.012,260.802 965.531,262.716 982.96,260.291 
	982.89,255.441 997.718,247.272 1074.74,247.932 1074.986,250.144 1138.973,251.038 1138.832,222.265 1075.267,221.398 
	1075.021,218.861 998.001,217.797 983.102,226.931 982.82,232.376 965.531,235.421 958.052,232.679 898.078,241.674 898.078,244.41 
	882.576,246.197 873.912,245.878 870.282,244.282 828.325,243.899 817.078,253.07 817.078,261.542 "/>
<polygon opacity="0.79" fill="#FFFFFF" points="804.373,299.215 804.486,322.321 816.525,314.772 816.632,306.93 828.277,299.108 
	869.953,299.346 873.82,300.723 882.886,301.004 898.066,299.108 897.926,297.49 957.941,290.744 965.672,292.009 983.007,289.338 
	982.819,285.262 998.069,277.04 1075.232,278.516 1075.302,280.694 1139.148,281.608 1138.832,253.444 1075.267,252.636 
	1075.021,250.272 998.001,249.281 983.102,257.793 983.03,262.774 965.531,265.704 958.052,263.149 898.078,271.531 898.078,274.08 
	882.576,275.745 873.912,275.448 870.282,273.961 828.325,273.604 817.078,282.15 817.078,290.045 "/>
<polygon opacity="0.79" fill="#FFFFFF" points="804.459,323.001 804.529,348.932 816.546,342.236 816.643,335.279 828.282,328.34 
	869.956,328.551 873.821,329.773 882.893,330.022 898.078,328.34 898.078,327.147 957.947,320.92 965.675,322.042 983.851,319.557 
	983.898,315.668 998.889,308.36 1075.256,309.578 1075.303,312.005 1139.148,312.815 1138.832,283.333 1075.267,282.617 
	1075.162,280.273 998.28,279.43 983.102,287.191 982.96,290.955 965.461,293.414 958.117,291.942 898.207,299.378 898.137,301.777 
	882.395,303.323 873.821,302.902 869.956,301.566 827.79,301.356 816.827,308.453 816.546,315.244 "/>
<polygon opacity="0.79" fill="#FFFFFF" points="804.459,351.35 804.506,375.216 816.593,369.219 816.643,363.95 828.282,357.51 
	869.956,357.706 873.821,358.84 882.887,359.071 898.066,357.51 897.926,356.178 957.941,350.624 965.672,351.665 983.663,349.776 
	983.897,345.75 998.842,339.281 1075.256,340.218 1075.302,342.35 1139.148,343.103 1138.832,314.536 1075.267,313.871 
	1075.162,311.696 998.748,310.374 984.037,317.683 983.897,321.384 965.461,323.892 958.117,322.526 898.019,328.88 898.137,330.74 
	882.535,332.175 873.962,331.784 870.307,330.544 828.142,330.023 816.406,336.74 816.546,344.175 "/>
<polygon opacity="0.79" fill="#FFFFFF" points="804.459,379.044 804.506,401.827 816.593,396.385 816.643,391.603 828.282,385.759 
	869.956,385.937 873.821,386.966 882.963,387.374 898.078,386.179 898.078,384.55 958.018,379.51 965.71,380.455 983.822,378.8 
	983.906,376.012 998.847,371.608 1075.258,371.191 1075.304,373.126 1139.149,373.763 1138.832,345.635 1075.267,345.031 
	1075.162,343.057 998.748,341.858 984.037,348.491 983.803,352.236 965.461,354.125 958.117,352.886 898.019,358.652 
	898.137,360.34 882.535,361.642 873.962,361.287 870.307,360.163 828.142,359.689 816.406,365.786 816.546,372.533 "/>
<polygon opacity="0.79" fill="#FFFFFF" points="804.459,403.09 804.506,426.939 816.593,422.585 816.643,418.759 828.282,414.085 
	869.956,414.227 873.821,415.05 882.887,415.218 898.066,414.085 897.926,413.117 957.941,409.085 965.672,409.841 983.803,408.878 
	983.897,406.287 998.842,402.764 1075.256,402.43 1075.302,403.978 1139.148,404.488 1138.832,376.363 1075.267,375.88 
	1075.021,373.857 998.748,373.67 984.037,378.648 983.873,381.962 965.461,383.156 958.117,382.164 898.019,386.777 
	898.137,388.127 882.535,389.169 873.962,388.885 870.307,387.985 828.142,387.607 816.406,392.484 816.546,397.882 "/>
<polygon opacity="0.79" fill="#FFFFFF" points="804.459,428.769 804.388,452.59 814.508,449.005 814.368,446.616 828.282,442.531 
	869.956,442.651 873.821,442.962 882.887,443.486 898.066,442.531 897.926,441.716 957.941,438.318 965.496,438.955 
	981.765,438.183 981.976,436.356 998.666,432.991 1075.168,432.71 1075.259,434.014 1139.126,434.444 1138.821,406.247 
	1075.262,405.84 1075.159,404.509 998.747,404.591 984.037,408.172 983.873,410.965 965.461,411.971 958.117,411.135 
	898.019,415.022 898.137,416.16 882.535,417.038 873.962,416.799 870.307,416.041 828.142,415.721 816.406,419.831 816.546,424.38 
	"/>
<polygon opacity="0.79" fill="#FFFFFF" points="804.459,454.789 804.388,481.075 816.265,477.585 816.312,475.57 828.282,472.349 
	869.956,472.453 873.821,472.723 882.887,473.177 898.066,472.349 897.926,471.642 957.941,468.694 965.496,469.247 982.89,468.577 
	982.726,466.902 998.666,464.074 1075.168,463.83 1075.259,464.961 1139.126,465.334 1138.821,436.376 1075.262,436.023 
	1075.162,435.231 998.631,435.372 982.538,438.534 982.608,440.713 965.461,441.341 958.117,440.616 898.019,443.988 
	898.137,444.975 882.535,445.737 873.962,445.529 870.307,444.872 828.142,444.595 816.406,448.16 816.546,450.981 "/>
<polygon opacity="0.79" fill="#FFFFFF" points="804.459,482.421 804.388,507.639 816.265,504.609 816.312,502.86 828.142,500.799 
	870.167,501.01 873.821,501.513 882.963,501.907 898.078,501.431 898.078,500.574 957.947,498.48 965.534,498.495 982.909,497.914 
	983.303,496.38 998.702,494 1075.232,494 1075.261,494.502 1139.127,494.962 1138.822,466.516 1075.262,466.244 1075.162,465.574 
	998.631,465.704 982.538,468.454 982.608,470.348 965.461,470.894 958.117,470.265 898.019,473.193 898.137,474.05 882.535,474.711 
	873.962,474.531 870.307,473.96 828.142,473.72 816.406,476.815 816.546,479.116 "/>
<polygon opacity="0.79" fill="#FFFFFF" points="804.078,510.195 804.078,531.439 816.075,530.104 816.486,529.482 828.282,529 
	870.729,529 874.032,528.568 882.928,529.02 898.078,528.698 898.078,528.769 957.666,528.136 965.71,528.207 983.014,527.152 
	983.092,526.379 997.383,525.606 1074.078,525.747 1074.078,525.888 1138.078,526.028 1138.078,498.02 1074.89,497.698 
	1074.976,497.121 998.538,497.195 982.492,499.325 982.585,500.793 965.449,501.216 958.111,500.724 898.016,503.005 
	898.135,503.672 882.535,504.187 873.961,504.047 870.307,503.602 827.978,503.414 816.078,505.826 816.078,507.619 "/>
<polygon opacity="0.79" fill="#FFFFFF" points="804.078,533.593 804.078,558.777 897.806,559.76 1138.646,560.463 1138.581,528.948 
	1075.142,528.825 1075.102,528.605 998.601,528.633 982.523,529.446 982.601,530.006 965.457,530.167 958.115,529.979 
	898.018,530.85 898.136,531.104 882.535,531.301 873.961,531.247 870.307,531.078 827.978,531.006 816.078,531.926 816.078,532.611 
	"/>
<polygon opacity="0.79" fill="#FFFFFF" points="804.88,583.861 804.74,561.026 898.347,561.447 1138.846,562.009 1138.681,587.639 
	1075.192,587.739 1075.127,587.918 998.614,587.895 988.16,587.121 982.604,586.778 965.459,586.647 958.115,586.8 898.019,586.092 
	898.136,585.885 882.535,585.725 873.962,585.769 870.307,585.907 828.142,585.965 816.406,585.216 816.757,584.66 "/>
<polygon opacity="0.79" fill="#FFFFFF" points="804.88,613.732 804.693,586.184 816.687,587.683 826.806,587.871 870.096,588.058 
	882.84,588.246 898.207,588.058 982.353,588.902 998.28,589.839 1051.877,590.682 1075.115,590.307 1138.27,590.963 
	1138.681,618.929 1075.115,618.324 1075.127,619.073 998.628,619.753 984.078,618.136 984.078,617.762 965.245,617.732 
	958.008,617.887 897.965,617.163 898.11,616.952 882.522,616.788 873.955,616.833 870.304,616.974 828.14,617.033 816.405,616.269 
	816.265,615.63 "/>
<polygon opacity="0.79" fill="#FFFFFF" points="804.787,630.505 804.693,616.544 816.687,618.043 826.806,618.23 870.096,618.418 
	882.84,618.605 898.207,618.418 982.353,618.741 998.467,620 1051.877,620 1075.115,620.146 1138.27,621.062 1138.457,651.458 
	1074.74,652.46 998.655,653.055 979.165,649.51 960.706,648.862 958.176,648.773 898.113,646.526 897.176,646.339 881.153,645.748 
	871.033,646 859.133,646 827.743,646.123 790.45,637.307 790.357,631.095 "/>
<polygon opacity="0.79" fill="#9FCFFF" points="804.787,668.698 804.693,642.218 816.687,645.029 826.806,647.09 881.341,647.278 
	903.641,647.84 979.54,650.838 995.469,654.024 1050.565,654.586 1075.49,654.961 1134.709,654.399 1135.084,687.194 
	1071.18,687.944 995.656,688.881 921.82,684.758 884.901,682.697 884.714,676.7 837.676,675.013 828.868,675.388 "/>
<polygon opacity="0.79" fill="#9FCFFF" points="804.787,697.932 804.693,671.453 829.055,677.684 838.303,677.403 885.078,678.808 
	885.078,682.744 995.188,689 1018.941,689 1134.475,688.191 1135.597,726.315 996.171,724.98 979.797,717.987 915.073,712.383 
	901.158,713.094 881.622,711.693 838.191,711.836 804.74,701.295 "/>
<path fill="#F8FF7F" d="M1082.799,130.702"/>
<path opacity="0.79" fill="#F8FF7F" d="M739.524,153.776l-73.696-2.46l-0.094-1.968l-44.227-0.937l-4.31,9.276l-0.187,4.31
	l-7.59,1.312l-8.339-0.469l-42.915,9.089l0.187,2.436l-7.965,1.78l-8.621,0.75l-4.404-1.968l-35.888-0.562l-1.593,9.839
	l0.187,18.646l2.061-6.372l35.232,0.187l4.755,1.874c0,0,8.456,0.281,8.831,0.188c0.375-0.094,7.402-1.406,7.402-1.406l-0.281-1.124
	l42.634-9.557l8.842,1.031l7.531-1.124v-6.465l4.237-8.738l44.763,0.843v2.53l73.787,1.523L739.524,153.776z"/>
<polygon opacity="0.79" fill="#F8FF7F" points="740.078,177.881 665.589,176.616 665.451,174.226 621.74,173.664 617.348,184.346 
	617.303,187.626 609.504,189.195 600.584,188.211 557.998,197.347 558.14,199.385 551.254,200.72 542.001,200.416 537.691,198.753 
	502.6,198.151 500.023,205.64 499.812,225.387 502.061,220.327 537.972,220.391 542.118,222 551.395,222 558.352,221.445 
	558.422,219.024 600.939,210.856 609.887,211.972 617.078,210.84 617.078,204.585 621.167,196.926 665.938,197.558 665.977,200.439 
	686.815,200.791 686.91,202.852 741.983,204.023 742.334,216.04 752.454,202.126 752.626,192.568 740.078,192.076 "/>
<polygon opacity="0.79" fill="#FFFFFF" points="741.913,204.913 665.734,203.602 665.921,199.947 621.688,199.526 617.323,209.298 
	617.29,212.298 609.498,213.734 600.58,212.834 557.997,221.192 558.139,223.057 551.253,224.278 542.001,224 537.691,222.478 
	502.6,221.928 500.023,226.582 499.812,249.094 502.061,244.465 537.972,245.025 542.118,247 551.395,247 558.352,245.99 
	558.422,243.523 600.939,235.925 609.887,236.884 617.078,235.785 617.078,230.063 621.167,223.055 665.938,223.634 665.977,226.27 
	687.94,226.406 688.011,227.495 742.299,227.847 "/>
<polygon opacity="0.79" fill="#FFFFFF" points="742.264,229.674 688.082,228.796 688.047,228.339 665.91,228.128 665.699,225.739 
	621.688,225.387 617.323,234.273 617.29,237.001 609.498,238.307 600.58,237.488 557.997,245.088 558.139,246.783 551.253,247.894 
	542.001,247.641 537.691,246.257 502.6,245.757 500.023,250.265 499.812,272.706 502.061,268.497 537.972,268.606 542.118,270 
	551.395,270 558.352,269.483 558.422,267.441 600.939,260.633 609.887,261.554 617.078,260.605 617.078,255.403 621.167,249.031 
	665.938,249.557 665.977,251.954 687.94,252.078 688.011,253.068 742.299,253.849 "/>
<polygon opacity="0.79" fill="#FFFFFF" points="742.264,255.115 688.082,254.323 688.047,253.911 665.91,253.721 665.699,251.566 
	621.688,251.249 617.323,259.263 617.29,261.724 609.498,262.902 600.58,262.164 557.997,269.018 558.139,270.547 551.253,271.549 
	542.001,271.321 537.691,270.073 502.6,269.622 500.023,273.878 499.812,295.452 502.061,292.852 537.972,293.063 542.118,294.047 
	551.465,294.609 558.352,293.766 558.563,291.166 600.658,285.403 609.887,285.825 617.078,284.981 617.078,280.571 
	621.167,274.824 665.938,275.298 665.977,276.336 687.94,276.447 688.011,277.341 742.299,278.045 "/>
<polygon opacity="0.79" fill="#FFFFFF" points="742.264,280.756 688.082,280.009 688.047,279.62 665.91,279.441 665.699,277.409 
	621.688,277.11 617.323,284.667 617.29,286.986 609.498,288.096 600.58,287.401 557.997,293.863 558.139,295.305 551.253,296.249 
	542.001,296.034 537.691,294.857 502.6,294.432 500.023,298.444 499.812,320.611 502.061,317.457 537.972,317.656 542.118,318.583 
	551.465,319.113 558.352,318.318 558.563,315.867 600.658,310.434 609.887,310.832 617.078,310.037 617.078,305.879 621.167,300.46 
	665.938,300.908 665.977,301.886 687.94,301.991 688.011,302.833 742.299,303.497 "/>
<polygon opacity="0.79" fill="#FFFFFF" points="742.264,305.572 688.082,304.799 688.047,304.307 665.91,303.956 665.699,303.251 
	621.688,302.972 617.323,310.04 617.29,312.21 609.498,313.249 600.58,312.598 557.997,318.642 558.139,319.991 551.253,320.875 
	542.001,320.673 537.691,319.573 502.6,319.174 500.023,322.928 499.812,343.006 502.061,340.713 537.972,340.899 542.118,341.766 
	551.465,342.262 558.352,341.518 558.563,340.007 600.658,334.807 609.9,335.791 615.978,334.69 616.072,331.973 621.179,325.531 
	665.945,326.304 665.98,326.866 687.941,327.288 688.011,328.131 742.3,328.763 "/>
<polygon opacity="0.79" fill="#FFFFFF" points="742.264,330.102 688.082,329.391 688.047,328.938 665.91,328.615 665.699,327.966 
	621.688,327.709 617.323,334.215 617.29,336.212 609.498,337.168 600.58,336.569 557.997,342.133 558.139,343.374 551.253,344.187 
	542.001,344.001 537.691,342.989 502.6,342.622 499.976,344.997 500.07,366.361 501.757,364.955 537.55,365.33 541.767,366.173 
	550.657,366.361 559.078,365.986 559.078,364.253 600.787,359.802 609.648,360.739 617.639,359.896 617.699,354.742 
	621.524,351.462 665.953,351.433 665.984,351.95 687.943,352.338 688.012,353.115 742.195,353.43 "/>
<polygon opacity="0.79" fill="#FFFFFF" points="742.264,356.653 688.082,356.071 688.047,355.701 665.91,355.436 665.699,354.906 
	621.688,354.695 617.323,360.018 617.29,361.652 609.498,362.434 600.58,361.944 557.997,366.496 558.139,367.512 551.253,368.177 
	542.001,368.025 537.691,367.197 502.6,366.897 499.976,368.84 500.07,389.693 501.757,388.543 537.55,388.849 541.767,389.539 
	550.434,389.693 558.633,389.386 558.774,388.357 600.565,384.326 609.536,385.093 617.583,384.403 617.671,380.186 621.51,377.503 
	665.946,377.479 665.981,377.902 687.941,378.22 688.012,378.855 742.194,379.113 "/>
<polygon opacity="0.79" fill="#FFFFFF" points="742.264,382.221 688.082,381.726 688.047,381.411 665.91,381.186 665.699,380.736 
	621.688,380.557 617.323,385.081 617.29,386.471 609.498,387.135 600.58,386.719 558.071,390.325 558.139,391.452 551.253,392.017 
	542.001,391.888 537.691,391.184 502.6,390.929 499.976,392.581 500.07,413.68 501.757,412.703 537.55,412.963 541.767,413.55 
	550.657,413.68 559.078,413.419 559.078,412.214 600.787,409.118 609.648,409.77 617.639,409.183 617.699,406.325 621.524,403.318 
	665.953,403.298 665.984,403.658 687.943,403.927 688.012,404.467 742.195,404.687 "/>
<polygon opacity="0.79" fill="#FFFFFF" points="742.264,407.772 688.082,407.37 688.047,407.113 665.64,406.931 665.699,406.564 
	621.688,406.418 617.323,410.098 617.29,411.228 609.498,411.769 600.58,411.43 558.071,414.363 558.139,415.279 551.253,415.739 
	542.001,415.634 537.691,415.061 501.803,414.854 499.976,415.835 500.07,437.855 501.757,437.06 537.55,437.272 541.767,437.749 
	550.657,437.855 559.078,437.643 559.078,436.663 600.787,434.145 609.648,434.675 617.639,434.198 617.699,431.764 
	621.524,429.428 665.953,429.411 665.984,429.704 687.943,429.923 688.012,430.362 742.195,430.541 "/>
<polygon opacity="0.79" fill="#FFFFFF" points="742.264,433.366 688.082,433.043 688.047,432.837 665.91,432.691 665.699,432.397 
	621.688,432.28 617.323,435.232 617.29,436.138 609.498,436.572 600.58,436.3 558.124,438.652 558.139,439.387 551.253,439.756 
	542.001,439.672 537.691,439.212 502.6,439.046 499.976,440.124 500.07,461.889 501.757,461.252 537.55,461.422 541.767,461.804 
	550.657,461.889 559.078,461.719 559.078,460.933 600.787,458.913 609.648,459.339 617.639,458.956 617.699,456.618 
	621.524,454.534 665.953,454.815 665.984,455.351 687.943,455.527 688.012,455.879 742.195,456.022 "/>
<polygon opacity="0.79" fill="#FFFFFF" points="742.264,458.275 688.082,457.957 688.047,457.754 665.91,457.61 665.699,457.319 
	621.688,457.204 617.323,460.115 617.29,461.008 609.498,461.436 600.58,461.168 558.071,463.488 558.139,464.212 551.253,464.576 
	542.001,464.493 537.691,464.04 502.6,463.876 499.976,464.939 500.07,487.517 501.757,486.888 537.55,487.056 541.767,487.433 
	550.657,487.517 559.078,487.349 559.078,486.574 600.787,484.582 609.648,485.002 617.639,484.624 617.699,482.319 
	621.524,480.852 665.953,480.838 665.984,481.07 687.943,481.243 688.012,481.591 742.195,481.732 "/>
<polygon opacity="0.79" fill="#FFFFFF" points="742.264,483.898 688.082,483.651 688.047,483.493 665.91,483.381 665.699,483.155 
	621.688,483.066 617.323,485.329 617.29,486.023 609.498,486.356 600.58,486.147 558.071,487.951 558.139,488.514 551.253,488.797 
	542.001,488.733 537.691,488.38 502.6,488.253 499.976,489.079 500.07,511.129 501.757,510.641 537.55,510.771 541.767,511.064 
	550.657,511.129 559.078,510.999 559.078,510.396 600.787,508.848 609.648,509.174 617.639,508.881 617.699,507.089 
	621.524,505.948 665.953,505.938 665.984,506.117 687.943,506.253 688.012,506.522 742.195,506.632 "/>
<polygon opacity="0.79" fill="#FFFFFF" points="742.264,508.499 688.082,508.293 688.047,508.161 665.91,508.067 665.699,507.878 
	621.688,507.803 617.323,509.698 617.29,510.279 609.498,510.557 600.58,510.383 558.071,511.893 558.139,512.365 551.253,512.601 
	542.001,512.547 537.691,512.252 502.6,512.146 499.976,512.837 499.953,534.321 501.757,534.263 537.55,534.372 541.767,534.617 
	550.657,534.672 559.078,534.563 559.078,534.058 600.67,533.618 609.648,533.548 617.639,533.407 617.699,532.176 687.941,532 
	742.194,532 "/>
<polygon opacity="0.79" fill="#FFFFFF" points="742.264,535.147 688.082,535.011 688.047,534.935 665.91,534.889 665.699,534.824 
	621.688,534.797 617.323,535.356 609.498,535.609 600.58,535.557 558.071,536.004 558.139,536.144 551.253,536.214 542.001,536.198 
	537.691,536.111 502.6,536.079 499.976,536.284 499.953,558.391 501.757,558.374 537.55,558.407 541.767,558.479 550.657,558.496 
	559.078,558.463 559.078,558.314 600.67,558.183 609.648,558.102 617.612,558 617.685,558 687.941,558 742.194,558 "/>
<polygon opacity="0.79" fill="#FFFFFF" points="742.264,582.685 688.082,582.984 688.047,583.142 665.91,583.229 665.699,583.314 
	621.688,583.351 617.323,582.809 617.29,582.644 609.498,582.565 600.58,582.617 558.071,582.18 558.139,582.043 551.253,581.975 
	542.001,581.99 537.691,582.076 502.6,582.107 499.976,581.907 499.953,560.284 501.757,560.301 537.55,560.269 541.767,560.198 
	550.657,560.182 559.078,560.214 559.078,560.36 600.67,560.488 609.648,560.347 687.941,560 742.194,560 "/>
<polygon opacity="0.79" fill="#FFFFFF" points="742.264,608.937 688.082,609.14 688.047,609.25 665.91,609.314 665.699,609.39 
	621.688,609.421 617.323,608.841 617.29,608.663 609.498,608.578 600.299,608.633 557.509,608.167 552.73,607.829 551.746,606.283 
	542.47,606.002 538.183,606.283 502.518,606.424 500.146,606.034 499.882,584 501.71,584 537.55,584.646 541.767,584.514 
	550.434,584.687 558.352,584.221 558.633,584.924 600.658,584.639 609.536,585.08 617.243,585.06 619.914,585.733 687.941,585 
	742.194,585 "/>
<polygon opacity="0.79" fill="#9FCFFF" points="741.726,666.189 671.45,667.884 621.6,668.263 618.227,668.464 601.548,667.335 
	584.12,668.269 510.096,664.895 510.283,660.771 509.909,656.836 506.723,656.648 506.348,633.784 509.721,633.972 547.202,634.347 
	562.756,634.722 573.625,635.471 599.674,636.596 605.015,636.971 615.978,637.907 619.914,640 687.941,639 742.194,639 "/>
<polygon opacity="0.79" fill="#9FCFFF" points="741.726,696.565 671.075,700.968 620.664,701.999 618.227,698.825 601.548,697.695 
	599.862,690.849 583.839,691.692 529.398,688.6 509.758,687.195 507.078,686.164 507.078,666.112 509.29,666.299 584.326,669.86 
	601.417,668.923 617.834,670.234 619.905,670.375 687.944,669.391 741.633,668.548 "/>
<polygon opacity="0.79" fill="#FFFFFF" points="741.506,626.523 751.078,629.334 751.078,636.643 620.227,637.486 615.151,635.378 
	600.807,634.534 560.956,632.848 546.513,632.426 500.99,632.567 499.453,629.615 499.949,608.768 501.754,608.807 537.549,607.609 
	541.766,607.444 550.434,607.408 552.168,608.813 558.633,608.945 600.237,609.758 609.302,610 617.524,610 620.476,610.463 
	688.011,610.128 741.991,609.897 "/>
</svg>
