<?xml version="1.0" encoding="utf-8"?>
<!-- Generator: Adobe Illustrator 19.0.1, SVG Export Plug-In . SVG Version: 6.00 Build 0)  -->
<svg version="1.1" id="Слой_1" xmlns="http://www.w3.org/2000/svg" xmlns:xlink="http://www.w3.org/1999/xlink" x="0px" y="0px"
	 width="65.671px" height="43.01px" viewBox="0 0 65.671 43.01" enable-background="new 0 0 65.671 43.01" xml:space="preserve">
<path fill-rule="evenodd" clip-rule="evenodd" fill="#FFFFFF" d="M0.282,4.13v35.56h7.577v1.6l1.877,1.416
	c0,0,44.406,0.048,44.393,0c-0.013-0.048,1.746-1.474,1.746-1.474l0.029-1.552h8.361v-9.136h1.076v-3.492h-0.97v-9.583h1.018v-3.569
	h-1.067V4.433l-1.804-1.475H42.654V1.523l-1.785-1.241H22.984l-1.785,1.396V2.92H1.84L0.282,4.13z"/>
<g>
	<path fill="#868686" d="M22.888,0h18.07l1.98,1.375v1.301h19.682l1.985,1.622v9.318h1.067v4.134h-1.018v9.017h0.969v4.057h-1.076
		v9.136h-8.364l-0.025,1.406l-0.103,0.083c-0.728,0.592-1.532,1.259-1.684,1.407l-0.017,0.022C54.25,43.01,54.25,43.01,42.625,43.01
		c-13.155,0-32.891-0.021-32.891-0.021H9.639l-2.063-1.557v-1.459H0V3.992l1.742-1.355h19.175V1.54L22.888,0z M40.782,0.564h-17.7
		l-1.6,1.252v1.386H1.937L0.564,4.269v35.139h7.576v1.741l1.69,1.275c1.485,0.001,20.17,0.021,32.795,0.021
		c8.341,0,10.864-0.008,11.378-0.017c0.206-0.207,0.656-0.573,1.592-1.332l0.029-1.698h8.356v-9.136h1.077v-2.928h-0.969V17.187
		h1.018v-3.005h-1.067V4.568l-1.623-1.327H42.373v-1.57L40.782,0.564z"/>
</g>
</svg>
